G75*
%MOIN*%
%OFA0B0*%
%FSLAX24Y24*%
%IPPOS*%
%LPD*%
%AMOC8*
5,1,8,0,0,1.08239X$1,22.5*
%
%ADD10C,0.0000*%
%ADD11OC8,0.0660*%
%ADD12C,0.0520*%
%ADD13OC8,0.0600*%
%ADD14R,0.0520X0.0520*%
%ADD15C,0.0600*%
%ADD16C,0.0440*%
%ADD17OC8,0.0520*%
%ADD18C,0.0660*%
%ADD19C,0.0160*%
%ADD20C,0.0356*%
D10*
X000180Y000550D02*
X000180Y019841D01*
X039156Y019841D01*
X039156Y000550D01*
X000180Y000550D01*
X009432Y003085D02*
X009434Y003120D01*
X009440Y003155D01*
X009450Y003189D01*
X009463Y003222D01*
X009480Y003253D01*
X009501Y003281D01*
X009524Y003308D01*
X009551Y003331D01*
X009579Y003352D01*
X009610Y003369D01*
X009643Y003382D01*
X009677Y003392D01*
X009712Y003398D01*
X009747Y003400D01*
X009782Y003398D01*
X009817Y003392D01*
X009851Y003382D01*
X009884Y003369D01*
X009915Y003352D01*
X009943Y003331D01*
X009970Y003308D01*
X009993Y003281D01*
X010014Y003253D01*
X010031Y003222D01*
X010044Y003189D01*
X010054Y003155D01*
X010060Y003120D01*
X010062Y003085D01*
X010060Y003050D01*
X010054Y003015D01*
X010044Y002981D01*
X010031Y002948D01*
X010014Y002917D01*
X009993Y002889D01*
X009970Y002862D01*
X009943Y002839D01*
X009915Y002818D01*
X009884Y002801D01*
X009851Y002788D01*
X009817Y002778D01*
X009782Y002772D01*
X009747Y002770D01*
X009712Y002772D01*
X009677Y002778D01*
X009643Y002788D01*
X009610Y002801D01*
X009579Y002818D01*
X009551Y002839D01*
X009524Y002862D01*
X009501Y002889D01*
X009480Y002917D01*
X009463Y002948D01*
X009450Y002981D01*
X009440Y003015D01*
X009434Y003050D01*
X009432Y003085D01*
X009530Y011392D02*
X009532Y011421D01*
X009538Y011449D01*
X009547Y011477D01*
X009560Y011503D01*
X009577Y011526D01*
X009596Y011548D01*
X009618Y011567D01*
X009643Y011582D01*
X009669Y011595D01*
X009697Y011603D01*
X009725Y011608D01*
X009754Y011609D01*
X009783Y011606D01*
X009811Y011599D01*
X009838Y011589D01*
X009864Y011575D01*
X009887Y011558D01*
X009908Y011538D01*
X009926Y011515D01*
X009941Y011490D01*
X009952Y011463D01*
X009960Y011435D01*
X009964Y011406D01*
X009964Y011378D01*
X009960Y011349D01*
X009952Y011321D01*
X009941Y011294D01*
X009926Y011269D01*
X009908Y011246D01*
X009887Y011226D01*
X009864Y011209D01*
X009838Y011195D01*
X009811Y011185D01*
X009783Y011178D01*
X009754Y011175D01*
X009725Y011176D01*
X009697Y011181D01*
X009669Y011189D01*
X009643Y011202D01*
X009618Y011217D01*
X009596Y011236D01*
X009577Y011258D01*
X009560Y011281D01*
X009547Y011307D01*
X009538Y011335D01*
X009532Y011363D01*
X009530Y011392D01*
X009676Y016376D02*
X009678Y016410D01*
X009684Y016444D01*
X009694Y016477D01*
X009707Y016508D01*
X009725Y016538D01*
X009745Y016566D01*
X009769Y016591D01*
X009795Y016613D01*
X009823Y016631D01*
X009854Y016647D01*
X009886Y016659D01*
X009920Y016667D01*
X009954Y016671D01*
X009988Y016671D01*
X010022Y016667D01*
X010056Y016659D01*
X010088Y016647D01*
X010118Y016631D01*
X010147Y016613D01*
X010173Y016591D01*
X010197Y016566D01*
X010217Y016538D01*
X010235Y016508D01*
X010248Y016477D01*
X010258Y016444D01*
X010264Y016410D01*
X010266Y016376D01*
X010264Y016342D01*
X010258Y016308D01*
X010248Y016275D01*
X010235Y016244D01*
X010217Y016214D01*
X010197Y016186D01*
X010173Y016161D01*
X010147Y016139D01*
X010119Y016121D01*
X010088Y016105D01*
X010056Y016093D01*
X010022Y016085D01*
X009988Y016081D01*
X009954Y016081D01*
X009920Y016085D01*
X009886Y016093D01*
X009854Y016105D01*
X009823Y016121D01*
X009795Y016139D01*
X009769Y016161D01*
X009745Y016186D01*
X009725Y016214D01*
X009707Y016244D01*
X009694Y016275D01*
X009684Y016308D01*
X009678Y016342D01*
X009676Y016376D01*
X012590Y016376D02*
X012592Y016410D01*
X012598Y016444D01*
X012608Y016477D01*
X012621Y016508D01*
X012639Y016538D01*
X012659Y016566D01*
X012683Y016591D01*
X012709Y016613D01*
X012737Y016631D01*
X012768Y016647D01*
X012800Y016659D01*
X012834Y016667D01*
X012868Y016671D01*
X012902Y016671D01*
X012936Y016667D01*
X012970Y016659D01*
X013002Y016647D01*
X013032Y016631D01*
X013061Y016613D01*
X013087Y016591D01*
X013111Y016566D01*
X013131Y016538D01*
X013149Y016508D01*
X013162Y016477D01*
X013172Y016444D01*
X013178Y016410D01*
X013180Y016376D01*
X013178Y016342D01*
X013172Y016308D01*
X013162Y016275D01*
X013149Y016244D01*
X013131Y016214D01*
X013111Y016186D01*
X013087Y016161D01*
X013061Y016139D01*
X013033Y016121D01*
X013002Y016105D01*
X012970Y016093D01*
X012936Y016085D01*
X012902Y016081D01*
X012868Y016081D01*
X012834Y016085D01*
X012800Y016093D01*
X012768Y016105D01*
X012737Y016121D01*
X012709Y016139D01*
X012683Y016161D01*
X012659Y016186D01*
X012639Y016214D01*
X012621Y016244D01*
X012608Y016275D01*
X012598Y016308D01*
X012592Y016342D01*
X012590Y016376D01*
D11*
X013231Y002433D03*
X012731Y001683D03*
X013731Y001683D03*
D12*
X013306Y004085D02*
X012786Y004085D01*
X012786Y005085D02*
X013306Y005085D01*
X013306Y006085D02*
X012786Y006085D01*
X012786Y007085D02*
X013306Y007085D01*
X013306Y008085D02*
X012786Y008085D01*
X012786Y009085D02*
X013306Y009085D01*
X013306Y010085D02*
X012786Y010085D01*
X015786Y010085D02*
X016306Y010085D01*
X016306Y009085D02*
X015786Y009085D01*
X015786Y008085D02*
X016306Y008085D01*
X016306Y007085D02*
X015786Y007085D01*
X015786Y006085D02*
X016306Y006085D01*
X016306Y005085D02*
X015786Y005085D01*
X015786Y004085D02*
X016306Y004085D01*
X019369Y004916D02*
X019369Y005436D01*
X020369Y005436D02*
X020369Y004916D01*
X021369Y004916D02*
X021369Y005436D01*
X022369Y005436D02*
X022369Y004916D01*
X023369Y004916D02*
X023369Y005436D01*
X024369Y005436D02*
X024369Y004916D01*
X025369Y004916D02*
X025369Y005436D01*
X026369Y005436D02*
X026369Y004916D01*
X027369Y004916D02*
X027369Y005436D01*
X028369Y005436D02*
X028369Y004916D01*
X029369Y004916D02*
X029369Y005436D01*
X030369Y005436D02*
X030369Y004916D01*
X031369Y004916D02*
X031369Y005436D01*
X032369Y005436D02*
X032369Y004916D01*
X032369Y007916D02*
X032369Y008436D01*
X031369Y008436D02*
X031369Y007916D01*
X030369Y007916D02*
X030369Y008436D01*
X029369Y008436D02*
X029369Y007916D01*
X028369Y007916D02*
X028369Y008436D01*
X027369Y008436D02*
X027369Y007916D01*
X026369Y007916D02*
X026369Y008436D01*
X025369Y008436D02*
X025369Y007916D01*
X024369Y007916D02*
X024369Y008436D01*
X023369Y008436D02*
X023369Y007916D01*
X022369Y007916D02*
X022369Y008436D01*
X021369Y008436D02*
X021369Y007916D01*
X020369Y007916D02*
X020369Y008436D01*
X019369Y008436D02*
X019369Y007916D01*
X020341Y014306D02*
X020861Y014306D01*
X020861Y015306D02*
X020341Y015306D01*
X020341Y016306D02*
X020861Y016306D01*
X020861Y017306D02*
X020341Y017306D01*
X017861Y017306D02*
X017341Y017306D01*
X017341Y016306D02*
X017861Y016306D01*
X017861Y015306D02*
X017341Y015306D01*
X017341Y014306D02*
X017861Y014306D01*
X028837Y014306D02*
X029357Y014306D01*
X029357Y015306D02*
X028837Y015306D01*
X028837Y016306D02*
X029357Y016306D01*
X031837Y016306D02*
X032357Y016306D01*
X032357Y017306D02*
X031837Y017306D01*
X031837Y015306D02*
X032357Y015306D01*
X032357Y014306D02*
X031837Y014306D01*
X036928Y016085D02*
X037448Y016085D01*
X037448Y017085D02*
X036928Y017085D01*
X036928Y018085D02*
X037448Y018085D01*
D13*
X037211Y010491D03*
X036211Y010491D03*
X036211Y009491D03*
X037211Y009491D03*
X038231Y009510D03*
X038231Y008510D03*
X037211Y008491D03*
X036211Y008491D03*
X036211Y007491D03*
X037211Y007491D03*
X038231Y007510D03*
X038231Y006510D03*
X037211Y006491D03*
X036211Y006491D03*
X036211Y005491D03*
X037211Y005491D03*
X038231Y005510D03*
X038231Y004510D03*
X037211Y004491D03*
X036211Y004491D03*
X036211Y003491D03*
X037211Y003491D03*
X038231Y003510D03*
X038231Y002510D03*
X037211Y002491D03*
X036211Y002491D03*
X036211Y001491D03*
X037211Y001491D03*
X038231Y001510D03*
X038231Y010510D03*
D14*
X029097Y017306D03*
D15*
X033805Y017286D02*
X034405Y017286D01*
X034405Y016286D02*
X033805Y016286D01*
X033805Y015286D02*
X034405Y015286D01*
X034405Y014286D02*
X033805Y014286D01*
X024341Y010212D02*
X024341Y009612D01*
X023341Y009612D02*
X023341Y010212D01*
X022341Y010212D02*
X022341Y009612D01*
X021341Y009612D02*
X021341Y010212D01*
X020341Y010212D02*
X020341Y009612D01*
X019341Y009612D02*
X019341Y010212D01*
X019309Y003251D02*
X019909Y003251D01*
X021869Y003251D02*
X022469Y003251D01*
X022469Y001471D02*
X021869Y001471D01*
X019909Y001471D02*
X019309Y001471D01*
X001952Y013782D02*
X001352Y013782D01*
X001352Y014782D02*
X001952Y014782D01*
X001952Y015782D02*
X001352Y015782D01*
X001352Y016782D02*
X001952Y016782D01*
X001952Y017782D02*
X001352Y017782D01*
X001352Y018782D02*
X001952Y018782D01*
X005558Y018731D02*
X005558Y018131D01*
X006558Y018131D02*
X006558Y018731D01*
D16*
X029627Y003254D02*
X029627Y002814D01*
X031627Y002814D02*
X031627Y003254D01*
D17*
X031656Y001365D03*
X032656Y001365D03*
X029617Y001400D03*
X028617Y001400D03*
X027109Y001585D03*
X026109Y001585D03*
X024597Y001302D03*
X023597Y001302D03*
X023597Y003262D03*
X024597Y003262D03*
X026117Y003317D03*
X027117Y003317D03*
X018239Y002451D03*
X016857Y002428D03*
X015365Y002447D03*
X015365Y001447D03*
X016857Y001428D03*
X018239Y001451D03*
X018101Y003617D03*
X017101Y003617D03*
X025822Y010057D03*
X026822Y010057D03*
X031428Y010514D03*
X031428Y009514D03*
X036885Y011727D03*
X037885Y011727D03*
X031034Y012845D03*
X030034Y012845D03*
X029086Y012869D03*
X028086Y012869D03*
X027688Y016369D03*
X027688Y017369D03*
X027708Y018715D03*
X028708Y018715D03*
X019554Y018640D03*
X018554Y018640D03*
X016306Y017892D03*
X015306Y017892D03*
X015349Y014924D03*
X016349Y014924D03*
X005554Y016475D03*
X004554Y016475D03*
X004617Y014967D03*
X004617Y013967D03*
X004176Y018778D03*
X003176Y018778D03*
D18*
X021771Y015333D03*
X021771Y014333D03*
D19*
X023395Y013326D02*
X019312Y013326D01*
X019340Y017549D01*
X019856Y017541D01*
X019895Y017446D01*
X019917Y017424D01*
X019912Y017409D01*
X019901Y017340D01*
X019901Y017306D01*
X020601Y017306D01*
X020601Y017306D01*
X019901Y017306D01*
X019901Y017271D01*
X019912Y017202D01*
X019933Y017137D01*
X019950Y017105D01*
X019605Y017105D01*
X019586Y017097D01*
X019565Y017097D01*
X019462Y017055D01*
X019384Y016976D01*
X019341Y016873D01*
X019341Y013644D01*
X019384Y013541D01*
X019462Y013462D01*
X019565Y013419D01*
X026031Y013419D01*
X026134Y013462D01*
X026165Y013493D01*
X026244Y013572D01*
X026287Y013675D01*
X026287Y015944D01*
X026244Y016047D01*
X026165Y016126D01*
X026062Y016168D01*
X022570Y016168D01*
X022570Y016416D01*
X022528Y016519D01*
X022449Y016598D01*
X022346Y016641D01*
X022334Y016641D01*
X022334Y016881D01*
X022291Y016984D01*
X022213Y017063D01*
X022110Y017105D01*
X021253Y017105D01*
X021269Y017137D01*
X021290Y017202D01*
X021301Y017271D01*
X021301Y017306D01*
X021301Y017340D01*
X021290Y017409D01*
X021269Y017474D01*
X021238Y017536D01*
X021203Y017584D01*
X021768Y017579D01*
X021768Y017578D01*
X021774Y017565D01*
X021776Y017551D01*
X021797Y017515D01*
X021815Y017477D01*
X021825Y017467D01*
X021833Y017455D01*
X021861Y017433D01*
X021893Y017401D01*
X021894Y017400D01*
X021895Y017399D01*
X021919Y017389D01*
X021921Y017387D01*
X021927Y017386D01*
X021945Y017378D01*
X021995Y017357D01*
X021997Y017357D01*
X021998Y017356D01*
X022052Y017356D01*
X022510Y017351D01*
X022510Y017340D01*
X022506Y017051D01*
X022505Y016996D01*
X022506Y016995D01*
X022506Y016994D01*
X022526Y016943D01*
X022545Y016892D01*
X022546Y016892D01*
X022547Y016890D01*
X022585Y016851D01*
X022622Y016812D01*
X022624Y016811D01*
X022625Y016810D01*
X022674Y016789D01*
X022724Y016767D01*
X022726Y016767D01*
X022727Y016766D01*
X022781Y016766D01*
X022853Y016764D01*
X022853Y016644D01*
X022895Y016541D01*
X022974Y016462D01*
X023077Y016419D01*
X024892Y016419D01*
X026345Y016413D01*
X026382Y013988D01*
X026386Y013347D01*
X023395Y013326D01*
X026219Y013547D02*
X026385Y013547D01*
X026384Y013705D02*
X026287Y013705D01*
X026287Y013864D02*
X026383Y013864D01*
X026382Y014022D02*
X026287Y014022D01*
X026287Y014181D02*
X026379Y014181D01*
X026377Y014339D02*
X026287Y014339D01*
X026287Y014498D02*
X026374Y014498D01*
X026372Y014656D02*
X026287Y014656D01*
X026287Y014815D02*
X026370Y014815D01*
X026367Y014973D02*
X026287Y014973D01*
X026287Y015132D02*
X026365Y015132D01*
X026362Y015290D02*
X026287Y015290D01*
X026287Y015449D02*
X026360Y015449D01*
X026357Y015607D02*
X026287Y015607D01*
X026287Y015766D02*
X026355Y015766D01*
X026353Y015924D02*
X026287Y015924D01*
X026350Y016083D02*
X026208Y016083D01*
X026348Y016241D02*
X022570Y016241D01*
X022570Y016400D02*
X026345Y016400D01*
X026619Y016979D02*
X024893Y016979D01*
X023413Y016986D01*
X023413Y017035D01*
X023414Y017087D01*
X023413Y017090D01*
X023413Y017093D01*
X023405Y017112D01*
X023405Y017125D01*
X023362Y017228D01*
X023283Y017307D01*
X023181Y017349D01*
X023070Y017349D01*
X023073Y017579D01*
X023074Y017581D01*
X023074Y017634D01*
X023075Y017688D01*
X023074Y017690D01*
X023074Y017692D01*
X023054Y017742D01*
X023034Y017792D01*
X023032Y017793D01*
X023032Y017795D01*
X022993Y017833D01*
X022956Y017871D01*
X022954Y017872D01*
X022953Y017874D01*
X022903Y017894D01*
X022854Y017915D01*
X022852Y017915D01*
X022850Y017916D01*
X022796Y017916D01*
X022742Y017917D01*
X022740Y017916D01*
X022425Y017916D01*
X022316Y017923D01*
X022295Y017968D01*
X022277Y018013D01*
X022272Y018018D01*
X022270Y018024D01*
X022262Y018031D01*
X022252Y018055D01*
X022173Y018133D01*
X022070Y018176D01*
X018990Y018176D01*
X018888Y018133D01*
X018809Y018055D01*
X018766Y017952D01*
X018766Y017902D01*
X018763Y017892D01*
X018766Y017847D01*
X018766Y017801D01*
X018770Y017792D01*
X018771Y017781D01*
X018781Y017760D01*
X018743Y013070D01*
X018742Y013068D01*
X018743Y013014D01*
X018742Y012961D01*
X018743Y012959D01*
X018743Y012956D01*
X018764Y012907D01*
X018784Y012858D01*
X018785Y012856D01*
X018786Y012854D01*
X018824Y012816D01*
X018862Y012778D01*
X018864Y012777D01*
X018866Y012776D01*
X018877Y012771D01*
X018878Y012770D01*
X018879Y012770D01*
X018880Y012769D01*
X018930Y012748D01*
X018980Y012727D01*
X018981Y012727D01*
X018983Y012726D01*
X019037Y012726D01*
X019092Y012726D01*
X019093Y012726D01*
X026700Y012726D01*
X026803Y012769D01*
X026882Y012848D01*
X026893Y012875D01*
X026906Y012887D01*
X026906Y012888D01*
X026907Y012889D01*
X026927Y012939D01*
X026948Y012990D01*
X026948Y012991D01*
X026949Y012992D01*
X026949Y012996D01*
X026956Y013016D01*
X026956Y013017D01*
X026957Y013018D01*
X026956Y013072D01*
X026956Y013127D01*
X026955Y013128D01*
X026942Y013994D01*
X026933Y015403D01*
X027152Y015403D01*
X027152Y012074D01*
X018773Y012074D01*
X018733Y012114D01*
X018594Y012172D01*
X018443Y012172D01*
X018304Y012114D01*
X018198Y012008D01*
X018177Y011956D01*
X018177Y012893D01*
X018217Y012934D01*
X018275Y013073D01*
X018275Y013223D01*
X018259Y013262D01*
X018422Y013262D01*
X018476Y013261D01*
X018478Y013262D01*
X018480Y013262D01*
X018529Y013282D01*
X018579Y013302D01*
X018581Y013304D01*
X018583Y013304D01*
X018621Y013342D01*
X018659Y013380D01*
X018660Y013382D01*
X018661Y013383D01*
X018682Y013433D01*
X018703Y013482D01*
X018703Y013484D01*
X018704Y013486D01*
X018704Y013540D01*
X018758Y017248D01*
X018759Y017250D01*
X018759Y017304D01*
X018760Y017357D01*
X018759Y017359D01*
X018759Y017361D01*
X018739Y017411D01*
X018719Y017461D01*
X018717Y017462D01*
X018717Y017464D01*
X018679Y017502D01*
X018641Y017541D01*
X018639Y017541D01*
X018638Y017543D01*
X018588Y017563D01*
X018539Y017585D01*
X018537Y017585D01*
X018535Y017586D01*
X018481Y017586D01*
X018428Y017586D01*
X018426Y017586D01*
X018232Y017586D01*
X018122Y017695D01*
X017953Y017766D01*
X017881Y017766D01*
X017881Y017948D01*
X017839Y018051D01*
X017760Y018129D01*
X017657Y018172D01*
X016677Y018172D01*
X016497Y018352D01*
X016115Y018352D01*
X015846Y018083D01*
X015846Y017702D01*
X016115Y017432D01*
X016497Y017432D01*
X016677Y017612D01*
X016997Y017612D01*
X016951Y017566D01*
X016881Y017397D01*
X016881Y017214D01*
X016951Y017045D01*
X017081Y016916D01*
X017250Y016846D01*
X017953Y016846D01*
X018122Y016916D01*
X018195Y016988D01*
X018189Y016628D01*
X018122Y016695D01*
X017953Y016766D01*
X017250Y016766D01*
X017081Y016695D01*
X016963Y016578D01*
X016266Y016578D01*
X016163Y016535D01*
X016084Y016456D01*
X016042Y016353D01*
X016042Y015267D01*
X015889Y015114D01*
X015889Y014733D01*
X016159Y014464D01*
X016540Y014464D01*
X016809Y014733D01*
X016809Y015114D01*
X016602Y015322D01*
X016602Y016018D01*
X016979Y016018D01*
X017081Y015916D01*
X017250Y015846D01*
X017953Y015846D01*
X018122Y015916D01*
X018180Y015973D01*
X018175Y015642D01*
X018122Y015695D01*
X017953Y015766D01*
X017250Y015766D01*
X017081Y015695D01*
X016951Y015566D01*
X016881Y015397D01*
X016881Y015214D01*
X016951Y015045D01*
X017081Y014916D01*
X017250Y014846D01*
X017953Y014846D01*
X018122Y014916D01*
X018165Y014959D01*
X018160Y014629D01*
X018148Y014641D01*
X018092Y014682D01*
X018030Y014713D01*
X017964Y014735D01*
X017896Y014746D01*
X017601Y014746D01*
X017307Y014746D01*
X017238Y014735D01*
X017172Y014713D01*
X017111Y014682D01*
X017055Y014641D01*
X017006Y014592D01*
X016965Y014536D01*
X016933Y014474D01*
X016912Y014409D01*
X016901Y014340D01*
X016901Y014306D01*
X017601Y014306D01*
X017601Y014746D01*
X017601Y014306D01*
X017601Y014306D01*
X017601Y014306D01*
X016901Y014306D01*
X016901Y014271D01*
X016912Y014202D01*
X016933Y014137D01*
X016965Y014075D01*
X017006Y014019D01*
X017055Y013970D01*
X017111Y013929D01*
X017172Y013898D01*
X017238Y013876D01*
X017307Y013866D01*
X017601Y013866D01*
X017601Y014305D01*
X017601Y014305D01*
X017601Y013866D01*
X017896Y013866D01*
X017964Y013876D01*
X018030Y013898D01*
X018092Y013929D01*
X018148Y013970D01*
X018150Y013972D01*
X018148Y013822D01*
X017447Y013822D01*
X017344Y013779D01*
X017265Y013700D01*
X017223Y013597D01*
X017223Y008425D01*
X017222Y008371D01*
X017223Y008369D01*
X017223Y008368D01*
X017244Y008318D01*
X017264Y008267D01*
X017265Y008266D01*
X017265Y008265D01*
X017304Y008227D01*
X017342Y008188D01*
X017343Y008187D01*
X017344Y008186D01*
X017394Y008165D01*
X017444Y008144D01*
X017446Y008144D01*
X017447Y008144D01*
X017501Y008144D01*
X017985Y008139D01*
X017979Y006803D01*
X017979Y006802D01*
X017979Y006747D01*
X017978Y006692D01*
X017979Y006691D01*
X018000Y006640D01*
X018021Y006589D01*
X018021Y006588D01*
X018060Y006549D01*
X018099Y006510D01*
X018100Y006510D01*
X018100Y006509D01*
X018151Y006488D01*
X018202Y006467D01*
X018202Y006467D01*
X018203Y006466D01*
X018258Y006466D01*
X018313Y006466D01*
X018314Y006466D01*
X020433Y006466D01*
X020535Y006509D01*
X020569Y006543D01*
X020569Y006296D01*
X020528Y006338D01*
X020425Y006381D01*
X018408Y006381D01*
X018305Y006338D01*
X018226Y006259D01*
X018183Y006156D01*
X018183Y004806D01*
X017952Y004806D01*
X017968Y004844D01*
X017968Y004995D01*
X017910Y005134D01*
X017869Y005174D01*
X017869Y006621D01*
X017827Y006724D01*
X017748Y006803D01*
X017645Y006845D01*
X016705Y006845D01*
X016766Y006994D01*
X016766Y007177D01*
X016696Y007346D01*
X016567Y007475D01*
X016398Y007545D01*
X015695Y007545D01*
X015526Y007475D01*
X015398Y007347D01*
X015381Y007363D01*
X015381Y007860D01*
X015396Y007824D01*
X015526Y007695D01*
X015695Y007625D01*
X016398Y007625D01*
X016567Y007695D01*
X016696Y007824D01*
X016766Y007994D01*
X016766Y008177D01*
X016696Y008346D01*
X016567Y008475D01*
X016398Y008545D01*
X015695Y008545D01*
X015526Y008475D01*
X015396Y008346D01*
X015381Y008310D01*
X015381Y008860D01*
X015396Y008824D01*
X015526Y008695D01*
X015695Y008625D01*
X016398Y008625D01*
X016567Y008695D01*
X016696Y008824D01*
X016766Y008994D01*
X016766Y009177D01*
X016696Y009346D01*
X016567Y009475D01*
X016398Y009545D01*
X015695Y009545D01*
X015526Y009475D01*
X015396Y009346D01*
X015381Y009310D01*
X015381Y009860D01*
X015396Y009824D01*
X015526Y009695D01*
X015695Y009625D01*
X016398Y009625D01*
X016567Y009695D01*
X016696Y009824D01*
X016766Y009994D01*
X016766Y010177D01*
X016696Y010346D01*
X016567Y010475D01*
X016398Y010545D01*
X015695Y010545D01*
X015526Y010475D01*
X015396Y010346D01*
X015381Y010310D01*
X015381Y010633D01*
X015422Y010674D01*
X015479Y010813D01*
X015479Y010963D01*
X015422Y011102D01*
X015315Y011209D01*
X015176Y011266D01*
X015027Y011266D01*
X015027Y011952D01*
X015004Y012008D01*
X015065Y011983D01*
X015216Y011983D01*
X015355Y012040D01*
X015461Y012146D01*
X015519Y012285D01*
X015519Y012436D01*
X015461Y012575D01*
X015355Y012681D01*
X015216Y012739D01*
X015065Y012739D01*
X014926Y012681D01*
X014820Y012575D01*
X014818Y012570D01*
X013928Y012570D01*
X013940Y013390D01*
X013940Y013392D01*
X013940Y013445D01*
X013941Y013499D01*
X013940Y013501D01*
X013940Y013503D01*
X013920Y013553D01*
X013900Y013603D01*
X013898Y013604D01*
X013898Y013606D01*
X013860Y013644D01*
X013822Y013682D01*
X013820Y013683D01*
X013819Y013685D01*
X013769Y013705D01*
X013720Y013726D01*
X013718Y013726D01*
X013716Y013727D01*
X013662Y013727D01*
X013608Y013728D01*
X013607Y013727D01*
X012696Y013727D01*
X012696Y014267D01*
X012654Y014370D01*
X012575Y014448D01*
X012472Y014491D01*
X007849Y014491D01*
X007746Y014448D01*
X007667Y014370D01*
X007624Y014267D01*
X007624Y013822D01*
X006838Y013822D01*
X006838Y017706D01*
X006841Y017708D01*
X006982Y017848D01*
X007058Y018032D01*
X007058Y018831D01*
X006982Y019015D01*
X006841Y019155D01*
X006657Y019231D01*
X006458Y019231D01*
X006275Y019155D01*
X006134Y019015D01*
X006058Y018831D01*
X006058Y018032D01*
X006058Y018831D01*
X005982Y019015D01*
X005841Y019155D01*
X005657Y019231D01*
X005458Y019231D01*
X005275Y019155D01*
X005134Y019015D01*
X005058Y018831D01*
X005058Y018032D01*
X005134Y017848D01*
X005275Y017708D01*
X005458Y017631D01*
X005657Y017631D01*
X005841Y017708D01*
X005982Y017848D01*
X006058Y018032D01*
X006134Y017848D01*
X006275Y017708D01*
X006278Y017706D01*
X006278Y013736D01*
X006242Y013700D01*
X006199Y013597D01*
X006199Y013486D01*
X006240Y013389D01*
X004145Y013389D01*
X004145Y016233D01*
X004337Y016041D01*
X004337Y015337D01*
X004157Y015157D01*
X004157Y014776D01*
X004426Y014507D01*
X004808Y014507D01*
X005077Y014776D01*
X005077Y015157D01*
X004897Y015337D01*
X004897Y016167D01*
X005014Y016284D01*
X005014Y016665D01*
X004745Y016935D01*
X004363Y016935D01*
X004145Y016716D01*
X004145Y017592D01*
X004232Y017592D01*
X004335Y017635D01*
X004413Y017714D01*
X004456Y017817D01*
X004456Y018407D01*
X004636Y018587D01*
X004636Y018968D01*
X004367Y019238D01*
X003986Y019238D01*
X003716Y018968D01*
X003716Y018587D01*
X003896Y018407D01*
X003896Y018152D01*
X003809Y018152D01*
X003706Y018110D01*
X003628Y018031D01*
X003585Y017928D01*
X003585Y013608D01*
X003488Y013649D01*
X003318Y013649D01*
X003318Y017838D01*
X003276Y017940D01*
X003197Y018019D01*
X003094Y018062D01*
X002378Y018062D01*
X002376Y018065D01*
X002236Y018206D01*
X002052Y018282D01*
X001253Y018282D01*
X001069Y018358D01*
X000929Y018499D01*
X000852Y018682D01*
X000852Y018881D01*
X000929Y019065D01*
X001069Y019206D01*
X001253Y019282D01*
X002052Y019282D01*
X002236Y019206D01*
X002376Y019065D01*
X002378Y019062D01*
X002809Y019062D01*
X002986Y019238D01*
X003367Y019238D01*
X003636Y018968D01*
X003636Y018587D01*
X003367Y018318D01*
X002986Y018318D01*
X002802Y018502D01*
X002378Y018502D01*
X002376Y018499D01*
X002236Y018358D01*
X002052Y018282D01*
X001253Y018282D01*
X001069Y018206D01*
X000929Y018065D01*
X000852Y017881D01*
X000852Y017682D01*
X000929Y017499D01*
X001069Y017358D01*
X001253Y017282D01*
X002052Y017282D01*
X001253Y017282D01*
X001069Y017206D01*
X000929Y017065D01*
X000852Y016881D01*
X000852Y016682D01*
X000929Y016499D01*
X001069Y016358D01*
X001253Y016282D01*
X002052Y016282D01*
X002236Y016358D01*
X002341Y016463D01*
X002341Y016064D01*
X002319Y016095D01*
X002265Y016148D01*
X002204Y016192D01*
X002137Y016227D01*
X002065Y016250D01*
X001990Y016262D01*
X001672Y016262D01*
X001672Y015802D01*
X001632Y015802D01*
X001632Y015762D01*
X000872Y015762D01*
X000872Y015744D01*
X000884Y015669D01*
X000908Y015598D01*
X000942Y015530D01*
X000986Y015469D01*
X001040Y015416D01*
X001101Y015371D01*
X001168Y015337D01*
X001240Y015314D01*
X001315Y015302D01*
X001632Y015302D01*
X001632Y015762D01*
X001672Y015762D01*
X001672Y015302D01*
X001990Y015302D01*
X002065Y015314D01*
X002137Y015337D01*
X002204Y015371D01*
X002265Y015416D01*
X002319Y015469D01*
X002341Y015500D01*
X002341Y015100D01*
X002236Y015206D01*
X002052Y015282D01*
X001253Y015282D01*
X001069Y015206D01*
X000929Y015065D01*
X000852Y014881D01*
X000852Y014682D01*
X000929Y014499D01*
X001069Y014358D01*
X001253Y014282D01*
X002052Y014282D01*
X001253Y014282D01*
X001069Y014206D01*
X000929Y014065D01*
X000852Y013881D01*
X000852Y013682D01*
X000929Y013499D01*
X001069Y013358D01*
X001253Y013282D01*
X002052Y013282D01*
X002236Y013358D01*
X002341Y013463D01*
X002341Y012927D01*
X002384Y012824D01*
X002462Y012745D01*
X002565Y012703D01*
X002727Y012703D01*
X002727Y012195D01*
X002769Y012092D01*
X002848Y012013D01*
X002951Y011970D01*
X009204Y011970D01*
X009307Y012013D01*
X009386Y012092D01*
X009429Y012195D01*
X009429Y012750D01*
X010924Y012750D01*
X010924Y012226D01*
X010966Y012123D01*
X011045Y012045D01*
X011148Y012002D01*
X012154Y012002D01*
X012160Y011177D01*
X012160Y011122D01*
X012160Y011122D01*
X012160Y011122D01*
X012182Y011070D01*
X012203Y011019D01*
X012204Y011019D01*
X012243Y010980D01*
X012283Y010941D01*
X012335Y010920D01*
X012386Y010899D01*
X012386Y010899D01*
X012386Y010899D01*
X012443Y010900D01*
X013472Y010906D01*
X013424Y010790D01*
X013424Y010640D01*
X013477Y010512D01*
X013398Y010545D01*
X012695Y010545D01*
X012526Y010475D01*
X012492Y010442D01*
X012519Y010506D01*
X012519Y010656D01*
X012461Y010795D01*
X012355Y010902D01*
X012216Y010959D01*
X012065Y010959D01*
X011926Y010902D01*
X011820Y010795D01*
X011763Y010656D01*
X011763Y010506D01*
X011820Y010367D01*
X011876Y010311D01*
X011876Y008998D01*
X011919Y008895D01*
X011998Y008816D01*
X012101Y008774D01*
X012447Y008774D01*
X012526Y008695D01*
X012695Y008625D01*
X013398Y008625D01*
X013567Y008695D01*
X013696Y008824D01*
X013766Y008994D01*
X013766Y009164D01*
X013862Y009164D01*
X013866Y009166D01*
X013861Y004582D01*
X013861Y004582D01*
X013861Y004526D01*
X013861Y004471D01*
X013861Y004470D01*
X013882Y004419D01*
X013903Y004368D01*
X013903Y004368D01*
X013903Y004367D01*
X013943Y004328D01*
X013982Y004289D01*
X013982Y004289D01*
X013982Y004289D01*
X014034Y004267D01*
X014085Y004246D01*
X014141Y004246D01*
X014196Y004246D01*
X014196Y004246D01*
X015355Y004246D01*
X015326Y004177D01*
X015326Y003994D01*
X015396Y003824D01*
X015526Y003695D01*
X015695Y003625D01*
X016398Y003625D01*
X016567Y003695D01*
X016661Y003790D01*
X016661Y003617D01*
X017101Y003617D01*
X017101Y004057D01*
X016919Y004057D01*
X016703Y003840D01*
X016766Y003994D01*
X016766Y004177D01*
X016737Y004246D01*
X017822Y004246D01*
X017821Y004243D01*
X017821Y003987D01*
X017641Y003807D01*
X017641Y003426D01*
X017911Y003157D01*
X018292Y003157D01*
X018561Y003426D01*
X018561Y003807D01*
X018461Y003907D01*
X018881Y003907D01*
X018984Y003950D01*
X019063Y004029D01*
X019106Y004132D01*
X019106Y004528D01*
X019108Y004526D01*
X019277Y004456D01*
X019460Y004456D01*
X019630Y004526D01*
X019759Y004655D01*
X019829Y004824D01*
X019829Y005527D01*
X019759Y005696D01*
X019634Y005821D01*
X020089Y005821D01*
X020089Y005806D01*
X019979Y005696D01*
X019909Y005527D01*
X019909Y004824D01*
X019979Y004655D01*
X020108Y004526D01*
X020277Y004456D01*
X020460Y004456D01*
X020562Y004497D01*
X020538Y004440D01*
X020538Y001751D01*
X020334Y001751D01*
X020333Y001754D01*
X020192Y001895D01*
X020008Y001971D01*
X019209Y001971D01*
X019025Y001895D01*
X018885Y001754D01*
X018883Y001751D01*
X018590Y001751D01*
X018430Y001911D01*
X018049Y001911D01*
X017779Y001642D01*
X017779Y001261D01*
X018049Y000991D01*
X018430Y000991D01*
X018629Y001191D01*
X018883Y001191D01*
X018885Y001187D01*
X019025Y001047D01*
X019209Y000971D01*
X020008Y000971D01*
X020192Y001047D01*
X020333Y001187D01*
X020334Y001191D01*
X021443Y001191D01*
X021445Y001187D01*
X021585Y001047D01*
X021769Y000971D01*
X022568Y000971D01*
X022752Y001047D01*
X022893Y001187D01*
X022969Y001371D01*
X022969Y001570D01*
X022893Y001754D01*
X022752Y001895D01*
X022568Y001971D01*
X021769Y001971D01*
X021585Y001895D01*
X021445Y001754D01*
X021443Y001751D01*
X021098Y001751D01*
X021098Y004253D01*
X021129Y004329D01*
X021129Y004517D01*
X021277Y004456D01*
X021460Y004456D01*
X021630Y004526D01*
X021759Y004655D01*
X021829Y004824D01*
X021829Y005527D01*
X021759Y005696D01*
X021718Y005737D01*
X022022Y005739D01*
X021979Y005696D01*
X021909Y005527D01*
X021909Y004824D01*
X021979Y004655D01*
X022108Y004526D01*
X022277Y004456D01*
X022460Y004456D01*
X022630Y004526D01*
X022759Y004655D01*
X022829Y004824D01*
X022829Y005527D01*
X022759Y005696D01*
X022711Y005744D01*
X023029Y005746D01*
X022979Y005696D01*
X022909Y005527D01*
X022909Y004824D01*
X022979Y004655D01*
X023081Y004553D01*
X023081Y004105D01*
X022967Y004105D01*
X022864Y004063D01*
X022785Y003984D01*
X022743Y003881D01*
X022743Y003645D01*
X022720Y003661D01*
X022653Y003695D01*
X022581Y003719D01*
X022506Y003731D01*
X022189Y003731D01*
X022189Y003271D01*
X022149Y003271D01*
X022149Y003731D01*
X021831Y003731D01*
X021756Y003719D01*
X021684Y003695D01*
X021617Y003661D01*
X021556Y003617D01*
X021503Y003563D01*
X021458Y003502D01*
X021424Y003435D01*
X021400Y003363D01*
X021389Y003288D01*
X021389Y003271D01*
X022149Y003271D01*
X022149Y003231D01*
X021389Y003231D01*
X021389Y003213D01*
X021400Y003138D01*
X021424Y003066D01*
X021458Y002999D01*
X021503Y002938D01*
X021556Y002885D01*
X021617Y002840D01*
X021684Y002806D01*
X021756Y002782D01*
X021831Y002771D01*
X022149Y002771D01*
X022149Y003231D01*
X022189Y003231D01*
X022189Y002771D01*
X022506Y002771D01*
X022581Y002782D01*
X022653Y002806D01*
X022720Y002840D01*
X022743Y002856D01*
X022743Y002305D01*
X022785Y002202D01*
X022864Y002123D01*
X022967Y002081D01*
X023312Y002081D01*
X023315Y001669D01*
X023137Y001492D01*
X023137Y001111D01*
X023407Y000842D01*
X023788Y000842D01*
X024057Y001111D01*
X024057Y001492D01*
X023875Y001675D01*
X023869Y002362D01*
X023869Y002416D01*
X023869Y002417D01*
X023869Y002418D01*
X023848Y002469D01*
X023827Y002519D01*
X023826Y002520D01*
X023826Y002521D01*
X023787Y002559D01*
X023748Y002598D01*
X023747Y002598D01*
X023746Y002599D01*
X023696Y002620D01*
X023645Y002641D01*
X023644Y002641D01*
X023643Y002641D01*
X023588Y002641D01*
X023303Y002641D01*
X023303Y002906D01*
X023407Y002802D01*
X023788Y002802D01*
X024057Y003072D01*
X024057Y003453D01*
X023988Y003522D01*
X024206Y003522D01*
X024137Y003453D01*
X024137Y003072D01*
X024407Y002802D01*
X024788Y002802D01*
X024968Y002982D01*
X025802Y002982D01*
X025926Y002857D01*
X026308Y002857D01*
X026577Y003127D01*
X026577Y003508D01*
X026308Y003777D01*
X025926Y003777D01*
X025691Y003542D01*
X024968Y003542D01*
X024788Y003722D01*
X024631Y003722D01*
X024641Y003746D01*
X024641Y004537D01*
X024759Y004655D01*
X024829Y004824D01*
X024829Y005527D01*
X024759Y005696D01*
X024697Y005759D01*
X025072Y005761D01*
X025033Y005722D01*
X024993Y005666D01*
X024961Y005604D01*
X024940Y005539D01*
X024929Y005470D01*
X024929Y005176D01*
X025369Y005176D01*
X025809Y005176D01*
X025809Y005470D01*
X025798Y005539D01*
X025777Y005604D01*
X025745Y005666D01*
X025705Y005722D01*
X025661Y005765D01*
X026051Y005768D01*
X025979Y005696D01*
X025909Y005527D01*
X025909Y004824D01*
X025979Y004655D01*
X026108Y004526D01*
X026277Y004456D01*
X026460Y004456D01*
X026630Y004526D01*
X026759Y004655D01*
X026829Y004824D01*
X026829Y005527D01*
X026759Y005696D01*
X026682Y005773D01*
X027058Y005776D01*
X026979Y005696D01*
X026909Y005527D01*
X026909Y004824D01*
X026979Y004655D01*
X027081Y004553D01*
X027081Y003958D01*
X027124Y003856D01*
X027202Y003777D01*
X026926Y003777D01*
X026657Y003508D01*
X026657Y003127D01*
X026926Y002857D01*
X027308Y002857D01*
X027577Y003127D01*
X027577Y003508D01*
X027351Y003734D01*
X027695Y003734D01*
X027695Y002958D01*
X027738Y002856D01*
X027817Y002777D01*
X027920Y002734D01*
X029207Y002734D01*
X029207Y002730D01*
X029271Y002576D01*
X029337Y002510D01*
X029337Y001771D01*
X029157Y001591D01*
X029157Y001209D01*
X029426Y000940D01*
X029808Y000940D01*
X030077Y001209D01*
X030077Y001591D01*
X029897Y001771D01*
X029897Y002490D01*
X029983Y002576D01*
X030047Y002730D01*
X030047Y002733D01*
X030101Y002711D01*
X031215Y002711D01*
X031271Y002576D01*
X031376Y002470D01*
X031376Y001735D01*
X031196Y001555D01*
X031196Y001174D01*
X031466Y000905D01*
X031847Y000905D01*
X032116Y001174D01*
X032116Y001555D01*
X031936Y001735D01*
X031936Y002529D01*
X031983Y002576D01*
X032047Y002730D01*
X032047Y003337D01*
X031983Y003492D01*
X031865Y003610D01*
X031710Y003674D01*
X031543Y003674D01*
X031389Y003610D01*
X031271Y003492D01*
X031207Y003337D01*
X031207Y003271D01*
X030436Y003271D01*
X030436Y003818D01*
X030394Y003921D01*
X030315Y004000D01*
X030212Y004042D01*
X028822Y004042D01*
X028822Y004353D01*
X028780Y004456D01*
X028701Y004535D01*
X028657Y004553D01*
X028759Y004655D01*
X028829Y004824D01*
X028829Y005527D01*
X028759Y005696D01*
X028668Y005787D01*
X029073Y005790D01*
X028979Y005696D01*
X028909Y005527D01*
X028909Y004824D01*
X028979Y004655D01*
X029108Y004526D01*
X029277Y004456D01*
X029460Y004456D01*
X029630Y004526D01*
X029759Y004655D01*
X029829Y004824D01*
X029829Y005527D01*
X029759Y005696D01*
X029661Y005794D01*
X029801Y005795D01*
X029840Y005757D01*
X029979Y005699D01*
X029982Y005699D01*
X029979Y005696D01*
X029909Y005527D01*
X029909Y004824D01*
X029979Y004655D01*
X030108Y004526D01*
X030277Y004456D01*
X030460Y004456D01*
X030630Y004526D01*
X030759Y004655D01*
X030829Y004824D01*
X030829Y005527D01*
X030759Y005696D01*
X030680Y005775D01*
X030680Y007164D01*
X030638Y007267D01*
X030559Y007346D01*
X030456Y007389D01*
X020794Y007389D01*
X020691Y007346D01*
X020657Y007312D01*
X020657Y007553D01*
X020759Y007655D01*
X020829Y007824D01*
X020829Y008527D01*
X020759Y008696D01*
X020630Y008826D01*
X020460Y008896D01*
X020277Y008896D01*
X020108Y008826D01*
X019979Y008696D01*
X019909Y008527D01*
X019909Y007824D01*
X019979Y007655D01*
X020097Y007537D01*
X020097Y007026D01*
X019533Y007026D01*
X019606Y007100D01*
X019649Y007203D01*
X019649Y007545D01*
X019759Y007655D01*
X019829Y007824D01*
X019829Y008527D01*
X019759Y008696D01*
X019630Y008826D01*
X019460Y008896D01*
X019277Y008896D01*
X019108Y008826D01*
X018979Y008696D01*
X018909Y008527D01*
X018909Y007824D01*
X018979Y007655D01*
X019089Y007545D01*
X019089Y007538D01*
X018858Y007538D01*
X018838Y009103D01*
X018838Y009156D01*
X018837Y009158D01*
X018837Y009160D01*
X018816Y009210D01*
X018795Y009259D01*
X018794Y009261D01*
X018793Y009262D01*
X018755Y009300D01*
X018717Y009338D01*
X018715Y009339D01*
X018714Y009340D01*
X018663Y009360D01*
X018614Y009381D01*
X018612Y009381D01*
X018610Y009381D01*
X018556Y009381D01*
X018177Y009381D01*
X018177Y011631D01*
X018198Y011580D01*
X018304Y011473D01*
X018443Y011416D01*
X018594Y011416D01*
X018733Y011473D01*
X018773Y011514D01*
X019033Y011514D01*
X019024Y011492D01*
X019003Y011441D01*
X019003Y011440D01*
X019002Y011440D01*
X019002Y011385D01*
X019002Y011329D01*
X019002Y010580D01*
X018918Y010495D01*
X018841Y010311D01*
X018841Y009512D01*
X018918Y009329D01*
X019058Y009188D01*
X019242Y009112D01*
X019441Y009112D01*
X019625Y009188D01*
X019765Y009329D01*
X019841Y009512D01*
X019841Y010311D01*
X019765Y010495D01*
X019625Y010636D01*
X019562Y010661D01*
X019562Y011103D01*
X020050Y011102D01*
X020050Y010627D01*
X019918Y010495D01*
X019841Y010311D01*
X019841Y009512D01*
X019918Y009329D01*
X020058Y009188D01*
X020242Y009112D01*
X020441Y009112D01*
X020625Y009188D01*
X020765Y009329D01*
X020841Y009512D01*
X020841Y010311D01*
X020765Y010495D01*
X020625Y010636D01*
X020610Y010642D01*
X020610Y010805D01*
X030873Y010805D01*
X030976Y010848D01*
X031055Y010926D01*
X031098Y011029D01*
X031098Y011104D01*
X032404Y011104D01*
X032404Y009302D01*
X031866Y009302D01*
X031888Y009324D01*
X031888Y009705D01*
X031619Y009974D01*
X031237Y009974D01*
X030968Y009705D01*
X030968Y009324D01*
X031089Y009203D01*
X031089Y008806D01*
X030979Y008696D01*
X030909Y008527D01*
X030909Y007824D01*
X030979Y007655D01*
X031108Y007526D01*
X031277Y007456D01*
X031460Y007456D01*
X031577Y007504D01*
X031577Y005982D01*
X031620Y005879D01*
X031699Y005800D01*
X031801Y005758D01*
X032041Y005758D01*
X031979Y005696D01*
X031909Y005527D01*
X031909Y004824D01*
X031979Y004655D01*
X032108Y004526D01*
X032277Y004456D01*
X032460Y004456D01*
X032630Y004526D01*
X032759Y004655D01*
X032829Y004824D01*
X032829Y005527D01*
X032759Y005696D01*
X032649Y005806D01*
X032649Y006093D01*
X032606Y006196D01*
X032528Y006275D01*
X032425Y006318D01*
X032137Y006318D01*
X032137Y007514D01*
X032277Y007456D01*
X032460Y007456D01*
X032630Y007526D01*
X032759Y007655D01*
X032829Y007824D01*
X032829Y007947D01*
X033283Y007947D01*
X033386Y007989D01*
X033465Y008068D01*
X033507Y008171D01*
X033507Y011873D01*
X033465Y011976D01*
X033386Y012055D01*
X033283Y012097D01*
X030376Y012097D01*
X030273Y012055D01*
X030195Y011976D01*
X030152Y011873D01*
X030152Y011634D01*
X027672Y011641D01*
X027712Y011738D01*
X027712Y012592D01*
X027895Y012409D01*
X028276Y012409D01*
X028546Y012678D01*
X028546Y013059D01*
X028276Y013329D01*
X027895Y013329D01*
X027712Y013145D01*
X027712Y015739D01*
X027669Y015842D01*
X027603Y015909D01*
X027878Y015909D01*
X028148Y016178D01*
X028148Y016559D01*
X027878Y016829D01*
X027497Y016829D01*
X027228Y016559D01*
X027228Y016178D01*
X027442Y015963D01*
X027208Y015963D01*
X027208Y017089D01*
X027317Y017089D01*
X027497Y016909D01*
X027878Y016909D01*
X028058Y017089D01*
X028260Y017089D01*
X028265Y017076D01*
X028344Y016997D01*
X028447Y016955D01*
X028645Y016955D01*
X028754Y016846D01*
X029440Y016846D01*
X029557Y016963D01*
X029557Y017002D01*
X030861Y017002D01*
X030861Y014722D01*
X030903Y014619D01*
X030982Y014541D01*
X031085Y014498D01*
X031419Y014498D01*
X031377Y014397D01*
X031377Y014214D01*
X031447Y014045D01*
X031577Y013916D01*
X031746Y013846D01*
X032449Y013846D01*
X032618Y013916D01*
X032708Y014006D01*
X033380Y014006D01*
X033381Y014003D01*
X033522Y013862D01*
X033706Y013786D01*
X034505Y013786D01*
X034688Y013862D01*
X034829Y014003D01*
X034905Y014186D01*
X034905Y014385D01*
X034829Y014569D01*
X034688Y014710D01*
X034505Y014786D01*
X034688Y014862D01*
X034829Y015003D01*
X034905Y015186D01*
X034905Y015385D01*
X034829Y015569D01*
X034688Y015710D01*
X034505Y015786D01*
X034688Y015862D01*
X034829Y016003D01*
X034905Y016186D01*
X034905Y016385D01*
X034829Y016569D01*
X034688Y016710D01*
X034505Y016786D01*
X033706Y016786D01*
X033522Y016710D01*
X033381Y016569D01*
X033305Y016385D01*
X033305Y016186D01*
X033381Y016003D01*
X033522Y015862D01*
X033706Y015786D01*
X034505Y015786D01*
X033706Y015786D01*
X033522Y015710D01*
X033381Y015569D01*
X033380Y015566D01*
X033022Y015566D01*
X032919Y015523D01*
X032840Y015444D01*
X032817Y015389D01*
X032817Y015397D01*
X032747Y015566D01*
X032618Y015695D01*
X032449Y015766D01*
X031746Y015766D01*
X031577Y015695D01*
X031447Y015566D01*
X031421Y015502D01*
X031421Y016109D01*
X031447Y016045D01*
X031577Y015916D01*
X031746Y015846D01*
X032449Y015846D01*
X032618Y015916D01*
X032747Y016045D01*
X032817Y016214D01*
X032817Y016397D01*
X032747Y016566D01*
X032618Y016695D01*
X032449Y016766D01*
X031746Y016766D01*
X031577Y016695D01*
X031447Y016566D01*
X031421Y016502D01*
X031421Y017109D01*
X031447Y017045D01*
X031577Y016916D01*
X031746Y016846D01*
X032449Y016846D01*
X032618Y016916D01*
X032747Y017045D01*
X032817Y017214D01*
X032817Y017397D01*
X032747Y017566D01*
X032618Y017695D01*
X032449Y017766D01*
X031746Y017766D01*
X031577Y017695D01*
X031447Y017566D01*
X031387Y017420D01*
X031378Y017440D01*
X031299Y017519D01*
X031196Y017562D01*
X029557Y017562D01*
X029557Y017648D01*
X029440Y017766D01*
X028754Y017766D01*
X028637Y017648D01*
X028637Y017616D01*
X028559Y017649D01*
X028058Y017649D01*
X027968Y017739D01*
X027968Y018325D01*
X028168Y018524D01*
X028168Y018905D01*
X027898Y019175D01*
X027517Y019175D01*
X027248Y018905D01*
X027248Y018524D01*
X027408Y018364D01*
X027408Y017739D01*
X027317Y017649D01*
X026872Y017649D01*
X026769Y017606D01*
X026691Y017527D01*
X026648Y017424D01*
X026648Y016980D01*
X026619Y016979D01*
X026648Y017034D02*
X023413Y017034D01*
X023377Y017192D02*
X026648Y017192D01*
X026648Y017351D02*
X023070Y017351D01*
X023073Y017509D02*
X026683Y017509D01*
X026928Y017369D02*
X027688Y017369D01*
X028503Y017369D01*
X028503Y017235D01*
X029097Y017235D01*
X029097Y017306D01*
X029097Y017282D01*
X031141Y017282D01*
X031141Y014778D01*
X033078Y014778D01*
X033078Y015286D01*
X034105Y015286D01*
X033706Y014786D02*
X033522Y014862D01*
X033381Y015003D01*
X033380Y015006D01*
X033358Y015006D01*
X033358Y014722D01*
X033315Y014619D01*
X033261Y014566D01*
X033380Y014566D01*
X033381Y014569D01*
X033522Y014710D01*
X033706Y014786D01*
X034505Y014786D01*
X033706Y014786D01*
X033636Y014815D02*
X033358Y014815D01*
X033358Y014973D02*
X033411Y014973D01*
X033468Y014656D02*
X033330Y014656D01*
X034105Y014286D02*
X032097Y014286D01*
X032097Y014306D01*
X031702Y013864D02*
X029493Y013864D01*
X029449Y013846D02*
X029618Y013916D01*
X029747Y014045D01*
X029817Y014214D01*
X029817Y014397D01*
X029747Y014566D01*
X029618Y014695D01*
X029449Y014766D01*
X028746Y014766D01*
X028577Y014695D01*
X028447Y014566D01*
X028377Y014397D01*
X028377Y014214D01*
X028447Y014045D01*
X028577Y013916D01*
X028746Y013846D01*
X028806Y013846D01*
X028806Y013239D01*
X028626Y013059D01*
X028626Y012678D01*
X028895Y012409D01*
X029276Y012409D01*
X029456Y012589D01*
X029640Y012589D01*
X029844Y012385D01*
X030225Y012385D01*
X030494Y012654D01*
X030494Y013035D01*
X030225Y013305D01*
X029844Y013305D01*
X029687Y013149D01*
X029456Y013149D01*
X029366Y013239D01*
X029366Y013846D01*
X029449Y013846D01*
X029366Y013705D02*
X038073Y013705D01*
X038073Y013547D02*
X029366Y013547D01*
X029366Y013388D02*
X038073Y013388D01*
X038073Y013230D02*
X031300Y013230D01*
X031225Y013305D02*
X030844Y013305D01*
X030574Y013035D01*
X030574Y012654D01*
X030844Y012385D01*
X031225Y012385D01*
X031494Y012654D01*
X031494Y013035D01*
X031225Y013305D01*
X031459Y013071D02*
X038073Y013071D01*
X038073Y012913D02*
X031494Y012913D01*
X031494Y012754D02*
X038073Y012754D01*
X038073Y012743D02*
X036829Y012743D01*
X036726Y012700D01*
X036647Y012622D01*
X036605Y012519D01*
X036605Y012097D01*
X036514Y012007D01*
X036156Y012007D01*
X036053Y011964D01*
X035974Y011885D01*
X035931Y011782D01*
X035931Y010918D01*
X035711Y010698D01*
X035711Y010283D01*
X035931Y010063D01*
X035931Y009918D01*
X035711Y009698D01*
X035711Y009283D01*
X035931Y009063D01*
X035931Y008918D01*
X035711Y008698D01*
X035711Y008283D01*
X035931Y008063D01*
X035931Y007918D01*
X035711Y007698D01*
X035711Y007283D01*
X035931Y007063D01*
X035931Y006918D01*
X035711Y006698D01*
X035711Y006283D01*
X035931Y006063D01*
X035931Y005918D01*
X035711Y005698D01*
X035711Y005283D01*
X035931Y005063D01*
X035931Y004918D01*
X035711Y004698D01*
X035711Y004283D01*
X035931Y004063D01*
X035931Y003918D01*
X035711Y003698D01*
X035711Y003283D01*
X035931Y003063D01*
X035931Y002918D01*
X035711Y002698D01*
X035711Y002283D01*
X035931Y002063D01*
X035931Y001918D01*
X035711Y001698D01*
X035711Y001283D01*
X036004Y000991D01*
X036419Y000991D01*
X036711Y001283D01*
X036711Y001698D01*
X036491Y001918D01*
X036491Y002063D01*
X036711Y002283D01*
X036711Y002698D01*
X036491Y002918D01*
X036491Y003063D01*
X036711Y003283D01*
X036711Y003698D01*
X036491Y003918D01*
X036491Y004063D01*
X036711Y004283D01*
X036711Y004698D01*
X036491Y004918D01*
X036491Y005063D01*
X036711Y005283D01*
X036711Y005698D01*
X036491Y005918D01*
X036491Y006063D01*
X036711Y006283D01*
X036711Y006698D01*
X036491Y006918D01*
X036491Y007063D01*
X036711Y007283D01*
X036711Y007698D01*
X036491Y007918D01*
X036491Y008063D01*
X036711Y008283D01*
X036711Y008698D01*
X036491Y008918D01*
X036491Y009063D01*
X036711Y009283D01*
X036711Y009698D01*
X036491Y009918D01*
X036491Y010063D01*
X036711Y010283D01*
X036711Y010698D01*
X036491Y010918D01*
X036491Y011447D01*
X036514Y011447D01*
X036694Y011267D01*
X037075Y011267D01*
X037345Y011536D01*
X037345Y011917D01*
X037165Y012097D01*
X037165Y012183D01*
X038409Y012183D01*
X038512Y012226D01*
X038591Y012304D01*
X038633Y012407D01*
X038633Y017141D01*
X038591Y017244D01*
X038512Y017322D01*
X038409Y017365D01*
X037818Y017365D01*
X037708Y017475D01*
X037539Y017545D01*
X036836Y017545D01*
X036667Y017475D01*
X036538Y017346D01*
X036468Y017177D01*
X036468Y016994D01*
X036538Y016824D01*
X036667Y016695D01*
X036836Y016625D01*
X037539Y016625D01*
X037708Y016695D01*
X037818Y016805D01*
X038073Y016805D01*
X038073Y012743D01*
X038353Y012463D02*
X036885Y012463D01*
X036885Y011727D01*
X036211Y011727D01*
X036211Y010491D01*
X036211Y009491D01*
X036211Y008491D01*
X036211Y007491D01*
X036211Y006491D01*
X036211Y005491D01*
X036211Y004491D01*
X036211Y003491D01*
X036211Y002491D01*
X036211Y001491D01*
X036711Y001501D02*
X036711Y001501D01*
X036711Y001659D02*
X036711Y001659D01*
X036711Y001698D02*
X036711Y001283D01*
X037004Y000991D01*
X037419Y000991D01*
X037711Y001283D01*
X037711Y001698D01*
X037419Y001991D01*
X037711Y002283D01*
X037711Y002698D01*
X037419Y002991D01*
X037711Y003283D01*
X037711Y003698D01*
X037419Y003991D01*
X037711Y004283D01*
X037711Y004698D01*
X037419Y004991D01*
X037711Y005283D01*
X037711Y005698D01*
X037419Y005991D01*
X037711Y006283D01*
X037711Y006698D01*
X037419Y006991D01*
X037711Y007283D01*
X037711Y007698D01*
X037419Y007991D01*
X037711Y008283D01*
X037711Y008698D01*
X037419Y008991D01*
X037711Y009283D01*
X037711Y009698D01*
X037419Y009991D01*
X037711Y010283D01*
X037711Y010698D01*
X037419Y010991D01*
X037004Y010991D01*
X036711Y010698D01*
X036711Y010283D01*
X037004Y009991D01*
X037419Y009991D01*
X037004Y009991D01*
X036711Y009698D01*
X036711Y009283D01*
X037004Y008991D01*
X037419Y008991D01*
X037004Y008991D01*
X036711Y008698D01*
X036711Y008283D01*
X037004Y007991D01*
X037419Y007991D01*
X037004Y007991D01*
X036711Y007698D01*
X036711Y007283D01*
X037004Y006991D01*
X037419Y006991D01*
X037004Y006991D01*
X036711Y006698D01*
X036711Y006283D01*
X037004Y005991D01*
X037419Y005991D01*
X037004Y005991D01*
X036711Y005698D01*
X036711Y005283D01*
X037004Y004991D01*
X037419Y004991D01*
X037004Y004991D01*
X036711Y004698D01*
X036711Y004283D01*
X037004Y003991D01*
X037419Y003991D01*
X037004Y003991D01*
X036711Y003698D01*
X036711Y003283D01*
X037004Y002991D01*
X037419Y002991D01*
X037004Y002991D01*
X036711Y002698D01*
X036711Y002283D01*
X037004Y001991D01*
X037419Y001991D01*
X037004Y001991D01*
X036711Y001698D01*
X036592Y001818D02*
X036831Y001818D01*
X036990Y001976D02*
X036491Y001976D01*
X036563Y002135D02*
X036860Y002135D01*
X036711Y002293D02*
X036711Y002293D01*
X036711Y002452D02*
X036711Y002452D01*
X036711Y002610D02*
X036711Y002610D01*
X036641Y002769D02*
X036782Y002769D01*
X036941Y002927D02*
X036491Y002927D01*
X036514Y003086D02*
X036909Y003086D01*
X036751Y003244D02*
X036672Y003244D01*
X036711Y003403D02*
X036711Y003403D01*
X036711Y003561D02*
X036711Y003561D01*
X036690Y003720D02*
X036733Y003720D01*
X036892Y003878D02*
X036531Y003878D01*
X036491Y004037D02*
X036958Y004037D01*
X036800Y004195D02*
X036623Y004195D01*
X036711Y004354D02*
X036711Y004354D01*
X036711Y004512D02*
X036711Y004512D01*
X036711Y004671D02*
X036711Y004671D01*
X036580Y004829D02*
X036843Y004829D01*
X037001Y004988D02*
X036491Y004988D01*
X036574Y005146D02*
X036849Y005146D01*
X036711Y005305D02*
X036711Y005305D01*
X036711Y005463D02*
X036711Y005463D01*
X036711Y005622D02*
X036711Y005622D01*
X036629Y005780D02*
X036794Y005780D01*
X036952Y005939D02*
X036491Y005939D01*
X036525Y006097D02*
X036898Y006097D01*
X036739Y006256D02*
X036684Y006256D01*
X036711Y006414D02*
X036711Y006414D01*
X036711Y006573D02*
X036711Y006573D01*
X036678Y006731D02*
X036745Y006731D01*
X036903Y006890D02*
X036520Y006890D01*
X036491Y007048D02*
X036947Y007048D01*
X036788Y007207D02*
X036635Y007207D01*
X036711Y007365D02*
X036711Y007365D01*
X036711Y007524D02*
X036711Y007524D01*
X036711Y007682D02*
X036711Y007682D01*
X036569Y007841D02*
X036854Y007841D01*
X036996Y007999D02*
X036491Y007999D01*
X036586Y008158D02*
X036837Y008158D01*
X036711Y008316D02*
X036711Y008316D01*
X036711Y008475D02*
X036711Y008475D01*
X036711Y008633D02*
X036711Y008633D01*
X036618Y008792D02*
X036805Y008792D01*
X036964Y008950D02*
X036491Y008950D01*
X036537Y009109D02*
X036886Y009109D01*
X036728Y009267D02*
X036695Y009267D01*
X036711Y009426D02*
X036711Y009426D01*
X036711Y009584D02*
X036711Y009584D01*
X036667Y009743D02*
X036756Y009743D01*
X036915Y009901D02*
X036508Y009901D01*
X036491Y010060D02*
X036935Y010060D01*
X036777Y010218D02*
X036646Y010218D01*
X036711Y010377D02*
X036711Y010377D01*
X036711Y010535D02*
X036711Y010535D01*
X036711Y010694D02*
X036711Y010694D01*
X036557Y010852D02*
X036866Y010852D01*
X036491Y011011D02*
X038956Y011011D01*
X038956Y011169D02*
X036491Y011169D01*
X036491Y011328D02*
X036633Y011328D01*
X037136Y011328D02*
X037662Y011328D01*
X037702Y011287D02*
X037885Y011287D01*
X038067Y011287D01*
X038325Y011545D01*
X038325Y011727D01*
X038325Y011909D01*
X038067Y012167D01*
X037885Y012167D01*
X037885Y011727D01*
X038325Y011727D01*
X037885Y011727D01*
X037885Y011727D01*
X037885Y011727D01*
X037885Y012167D01*
X037702Y012167D01*
X037445Y011909D01*
X037445Y011727D01*
X037885Y011727D01*
X037885Y011287D01*
X037885Y011727D01*
X037885Y011727D01*
X037885Y011727D01*
X037445Y011727D01*
X037445Y011545D01*
X037702Y011287D01*
X037885Y011328D02*
X037885Y011328D01*
X037885Y011486D02*
X037885Y011486D01*
X037885Y011645D02*
X037885Y011645D01*
X037885Y011803D02*
X037885Y011803D01*
X037885Y011962D02*
X037885Y011962D01*
X037885Y012120D02*
X037885Y012120D01*
X038114Y012120D02*
X038956Y012120D01*
X038956Y011962D02*
X038272Y011962D01*
X038325Y011803D02*
X038956Y011803D01*
X038956Y011645D02*
X038325Y011645D01*
X038266Y011486D02*
X038956Y011486D01*
X038956Y011328D02*
X038108Y011328D01*
X037503Y011486D02*
X037295Y011486D01*
X037345Y011645D02*
X037445Y011645D01*
X037445Y011803D02*
X037345Y011803D01*
X037300Y011962D02*
X037497Y011962D01*
X037656Y012120D02*
X037165Y012120D01*
X036605Y012120D02*
X027712Y012120D01*
X027712Y011962D02*
X030189Y011962D01*
X030152Y011803D02*
X027712Y011803D01*
X027673Y011645D02*
X030152Y011645D01*
X030432Y011817D02*
X033227Y011817D01*
X033227Y008227D01*
X032369Y008227D01*
X032369Y008176D01*
X032829Y007841D02*
X035854Y007841D01*
X035931Y007999D02*
X033396Y007999D01*
X033502Y008158D02*
X035837Y008158D01*
X035711Y008316D02*
X033507Y008316D01*
X033507Y008475D02*
X035711Y008475D01*
X035711Y008633D02*
X033507Y008633D01*
X033507Y008792D02*
X035805Y008792D01*
X035931Y008950D02*
X033507Y008950D01*
X033507Y009109D02*
X035886Y009109D01*
X035728Y009267D02*
X033507Y009267D01*
X033507Y009426D02*
X035711Y009426D01*
X035711Y009584D02*
X033507Y009584D01*
X033507Y009743D02*
X035756Y009743D01*
X035915Y009901D02*
X033507Y009901D01*
X033507Y010060D02*
X035931Y010060D01*
X035777Y010218D02*
X033507Y010218D01*
X033507Y010377D02*
X035711Y010377D01*
X035711Y010535D02*
X033507Y010535D01*
X033507Y010694D02*
X035711Y010694D01*
X035866Y010852D02*
X033507Y010852D01*
X033507Y011011D02*
X035931Y011011D01*
X035931Y011169D02*
X033507Y011169D01*
X033507Y011328D02*
X035931Y011328D01*
X035931Y011486D02*
X033507Y011486D01*
X033507Y011645D02*
X035931Y011645D01*
X035940Y011803D02*
X033507Y011803D01*
X033471Y011962D02*
X036050Y011962D01*
X036605Y012279D02*
X027712Y012279D01*
X027712Y012437D02*
X027866Y012437D01*
X028305Y012437D02*
X028866Y012437D01*
X028708Y012596D02*
X028463Y012596D01*
X028546Y012754D02*
X028626Y012754D01*
X028626Y012913D02*
X028546Y012913D01*
X028533Y013071D02*
X028638Y013071D01*
X028796Y013230D02*
X028375Y013230D01*
X028806Y013388D02*
X027712Y013388D01*
X027712Y013230D02*
X027796Y013230D01*
X027712Y013547D02*
X028806Y013547D01*
X028806Y013705D02*
X027712Y013705D01*
X027712Y013864D02*
X028702Y013864D01*
X028470Y014022D02*
X027712Y014022D01*
X027712Y014181D02*
X028391Y014181D01*
X028377Y014339D02*
X027712Y014339D01*
X027712Y014498D02*
X028419Y014498D01*
X028537Y014656D02*
X027712Y014656D01*
X027712Y014815D02*
X030861Y014815D01*
X030861Y014973D02*
X029675Y014973D01*
X029618Y014916D02*
X029747Y015045D01*
X029817Y015214D01*
X029817Y015397D01*
X029747Y015566D01*
X029618Y015695D01*
X029449Y015766D01*
X028746Y015766D01*
X028577Y015695D01*
X028447Y015566D01*
X028377Y015397D01*
X028377Y015214D01*
X028447Y015045D01*
X028577Y014916D01*
X028746Y014846D01*
X029449Y014846D01*
X029618Y014916D01*
X029657Y014656D02*
X030888Y014656D01*
X031419Y014498D02*
X029776Y014498D01*
X029817Y014339D02*
X031377Y014339D01*
X031391Y014181D02*
X029803Y014181D01*
X029724Y014022D02*
X031470Y014022D01*
X032493Y013864D02*
X033520Y013864D01*
X034690Y013864D02*
X038073Y013864D01*
X038073Y014022D02*
X034837Y014022D01*
X034903Y014181D02*
X038073Y014181D01*
X038073Y014339D02*
X034905Y014339D01*
X034859Y014498D02*
X038073Y014498D01*
X038073Y014656D02*
X034742Y014656D01*
X034574Y014815D02*
X038073Y014815D01*
X038073Y014973D02*
X034800Y014973D01*
X034883Y015132D02*
X038073Y015132D01*
X038073Y015290D02*
X034905Y015290D01*
X034879Y015449D02*
X038073Y015449D01*
X038073Y015607D02*
X034791Y015607D01*
X034553Y015766D02*
X036597Y015766D01*
X036538Y015824D02*
X036667Y015695D01*
X036836Y015625D01*
X037539Y015625D01*
X037708Y015695D01*
X037838Y015824D01*
X037908Y015994D01*
X037908Y016177D01*
X037838Y016346D01*
X037708Y016475D01*
X037539Y016545D01*
X036836Y016545D01*
X036667Y016475D01*
X036538Y016346D01*
X036468Y016177D01*
X036468Y015994D01*
X036538Y015824D01*
X036497Y015924D02*
X034751Y015924D01*
X034862Y016083D02*
X036468Y016083D01*
X036495Y016241D02*
X034905Y016241D01*
X034899Y016400D02*
X036592Y016400D01*
X036646Y016717D02*
X034672Y016717D01*
X034589Y016841D02*
X034657Y016875D01*
X034718Y016920D01*
X034771Y016973D01*
X034816Y017034D01*
X034850Y017102D01*
X034873Y017173D01*
X034885Y017248D01*
X034885Y017266D01*
X034125Y017266D01*
X034125Y016806D01*
X034443Y016806D01*
X034518Y016818D01*
X034589Y016841D01*
X034656Y016875D02*
X036517Y016875D01*
X036468Y017034D02*
X034815Y017034D01*
X034876Y017192D02*
X036474Y017192D01*
X036543Y017351D02*
X034881Y017351D01*
X034885Y017324D02*
X034873Y017398D01*
X034850Y017470D01*
X034816Y017537D01*
X034771Y017599D01*
X034718Y017652D01*
X034657Y017696D01*
X034589Y017731D01*
X034518Y017754D01*
X034443Y017766D01*
X034125Y017766D01*
X034125Y017306D01*
X034085Y017306D01*
X034085Y017766D01*
X033767Y017766D01*
X033693Y017754D01*
X033621Y017731D01*
X033554Y017696D01*
X033492Y017652D01*
X033439Y017599D01*
X033395Y017537D01*
X033360Y017470D01*
X033337Y017398D01*
X033325Y017324D01*
X033325Y017306D01*
X034085Y017306D01*
X034085Y017266D01*
X033325Y017266D01*
X033325Y017248D01*
X033337Y017173D01*
X033360Y017102D01*
X033395Y017034D01*
X032736Y017034D01*
X032808Y017192D02*
X033334Y017192D01*
X033329Y017351D02*
X032817Y017351D01*
X032771Y017509D02*
X033380Y017509D01*
X033514Y017668D02*
X032646Y017668D01*
X031549Y017668D02*
X029538Y017668D01*
X028945Y018302D02*
X036544Y018302D01*
X036552Y018316D02*
X036520Y018254D01*
X036499Y018188D01*
X036488Y018120D01*
X036488Y018085D01*
X036488Y018050D01*
X036499Y017982D01*
X036520Y017916D01*
X036552Y017854D01*
X036592Y017798D01*
X036641Y017749D01*
X036697Y017709D01*
X036759Y017677D01*
X036825Y017656D01*
X036893Y017645D01*
X037188Y017645D01*
X037483Y017645D01*
X037551Y017656D01*
X037617Y017677D01*
X037678Y017709D01*
X037735Y017749D01*
X037783Y017798D01*
X037824Y017854D01*
X037856Y017916D01*
X037877Y017982D01*
X037888Y018050D01*
X037888Y018085D01*
X037188Y018085D01*
X037188Y018085D01*
X037888Y018085D01*
X037888Y018120D01*
X037877Y018188D01*
X037856Y018254D01*
X037824Y018316D01*
X037783Y018372D01*
X037735Y018421D01*
X037678Y018461D01*
X037617Y018493D01*
X037551Y018514D01*
X037483Y018525D01*
X037188Y018525D01*
X037188Y018085D01*
X037188Y017645D01*
X037188Y018085D01*
X037188Y018085D01*
X037188Y018085D01*
X037188Y018525D01*
X036893Y018525D01*
X036825Y018514D01*
X036759Y018493D01*
X036697Y018461D01*
X036641Y018421D01*
X036592Y018372D01*
X036552Y018316D01*
X036492Y018143D02*
X027968Y018143D01*
X027968Y017985D02*
X036498Y017985D01*
X036488Y018085D02*
X037188Y018085D01*
X037188Y018085D01*
X036488Y018085D01*
X036572Y017826D02*
X027968Y017826D01*
X028039Y017668D02*
X028657Y017668D01*
X027688Y017369D02*
X027688Y018715D01*
X027708Y018715D01*
X028168Y018777D02*
X028248Y018777D01*
X028248Y018905D02*
X028248Y018524D01*
X028517Y018255D01*
X028898Y018255D01*
X029168Y018524D01*
X029168Y018905D01*
X028898Y019175D01*
X028517Y019175D01*
X028248Y018905D01*
X028278Y018936D02*
X028137Y018936D01*
X027979Y019094D02*
X028436Y019094D01*
X028979Y019094D02*
X038956Y019094D01*
X038956Y018936D02*
X029137Y018936D01*
X029168Y018777D02*
X038956Y018777D01*
X038956Y018619D02*
X029168Y018619D01*
X029103Y018460D02*
X036696Y018460D01*
X037188Y018460D02*
X037188Y018460D01*
X037188Y018302D02*
X037188Y018302D01*
X037188Y018143D02*
X037188Y018143D01*
X037188Y017985D02*
X037188Y017985D01*
X037188Y017826D02*
X037188Y017826D01*
X037188Y017668D02*
X037188Y017668D01*
X037587Y017668D02*
X038956Y017668D01*
X038956Y017826D02*
X037804Y017826D01*
X037877Y017985D02*
X038956Y017985D01*
X038956Y018143D02*
X037884Y018143D01*
X037831Y018302D02*
X038956Y018302D01*
X038956Y018460D02*
X037680Y018460D01*
X036789Y017668D02*
X034696Y017668D01*
X034830Y017509D02*
X036750Y017509D01*
X037188Y017085D02*
X038353Y017085D01*
X038353Y012463D01*
X038565Y012279D02*
X038956Y012279D01*
X038956Y012437D02*
X038633Y012437D01*
X038633Y012596D02*
X038956Y012596D01*
X038956Y012754D02*
X038633Y012754D01*
X038633Y012913D02*
X038956Y012913D01*
X038956Y013071D02*
X038633Y013071D01*
X038633Y013230D02*
X038956Y013230D01*
X038956Y013388D02*
X038633Y013388D01*
X038633Y013547D02*
X038956Y013547D01*
X038956Y013705D02*
X038633Y013705D01*
X038633Y013864D02*
X038956Y013864D01*
X038956Y014022D02*
X038633Y014022D01*
X038633Y014181D02*
X038956Y014181D01*
X038956Y014339D02*
X038633Y014339D01*
X038633Y014498D02*
X038956Y014498D01*
X038956Y014656D02*
X038633Y014656D01*
X038633Y014815D02*
X038956Y014815D01*
X038956Y014973D02*
X038633Y014973D01*
X038633Y015132D02*
X038956Y015132D01*
X038956Y015290D02*
X038633Y015290D01*
X038633Y015449D02*
X038956Y015449D01*
X038956Y015607D02*
X038633Y015607D01*
X038633Y015766D02*
X038956Y015766D01*
X038956Y015924D02*
X038633Y015924D01*
X038633Y016083D02*
X038956Y016083D01*
X038956Y016241D02*
X038633Y016241D01*
X038633Y016400D02*
X038956Y016400D01*
X038956Y016558D02*
X038633Y016558D01*
X038633Y016717D02*
X038956Y016717D01*
X038956Y016875D02*
X038633Y016875D01*
X038633Y017034D02*
X038956Y017034D01*
X038956Y017192D02*
X038612Y017192D01*
X038444Y017351D02*
X038956Y017351D01*
X038956Y017509D02*
X037626Y017509D01*
X037730Y016717D02*
X038073Y016717D01*
X038073Y016558D02*
X034834Y016558D01*
X034125Y016875D02*
X034085Y016875D01*
X034085Y016806D02*
X033767Y016806D01*
X033693Y016818D01*
X033621Y016841D01*
X033554Y016875D01*
X032520Y016875D01*
X032567Y016717D02*
X033539Y016717D01*
X033554Y016875D02*
X033492Y016920D01*
X033439Y016973D01*
X033395Y017034D01*
X033377Y016558D02*
X032751Y016558D01*
X032816Y016400D02*
X033311Y016400D01*
X033305Y016241D02*
X032817Y016241D01*
X032763Y016083D02*
X033348Y016083D01*
X033460Y015924D02*
X032626Y015924D01*
X032706Y015607D02*
X033419Y015607D01*
X033657Y015766D02*
X031421Y015766D01*
X031421Y015924D02*
X031568Y015924D01*
X031432Y016083D02*
X031421Y016083D01*
X030861Y016083D02*
X029763Y016083D01*
X029747Y016045D02*
X029817Y016214D01*
X029817Y016397D01*
X029747Y016566D01*
X029618Y016695D01*
X029449Y016766D01*
X028746Y016766D01*
X028577Y016695D01*
X028447Y016566D01*
X028377Y016397D01*
X028377Y016214D01*
X028447Y016045D01*
X028577Y015916D01*
X028746Y015846D01*
X029449Y015846D01*
X029618Y015916D01*
X029747Y016045D01*
X029626Y015924D02*
X030861Y015924D01*
X030861Y015766D02*
X027701Y015766D01*
X027712Y015607D02*
X028488Y015607D01*
X028399Y015449D02*
X027712Y015449D01*
X027712Y015290D02*
X028377Y015290D01*
X028411Y015132D02*
X027712Y015132D01*
X027712Y014973D02*
X028519Y014973D01*
X029086Y014306D02*
X029086Y012869D01*
X030034Y012869D01*
X030034Y012845D01*
X030494Y012913D02*
X030574Y012913D01*
X030574Y012754D02*
X030494Y012754D01*
X030436Y012596D02*
X030633Y012596D01*
X030792Y012437D02*
X030277Y012437D01*
X029792Y012437D02*
X029305Y012437D01*
X030459Y013071D02*
X030610Y013071D01*
X030769Y013230D02*
X030300Y013230D01*
X029769Y013230D02*
X029375Y013230D01*
X029097Y014306D02*
X029086Y014306D01*
X029783Y015132D02*
X030861Y015132D01*
X030861Y015290D02*
X029817Y015290D01*
X029796Y015449D02*
X030861Y015449D01*
X030861Y015607D02*
X029706Y015607D01*
X028568Y015924D02*
X027894Y015924D01*
X028053Y016083D02*
X028432Y016083D01*
X028377Y016241D02*
X028148Y016241D01*
X028148Y016400D02*
X028378Y016400D01*
X028444Y016558D02*
X028148Y016558D01*
X027990Y016717D02*
X028628Y016717D01*
X028725Y016875D02*
X027208Y016875D01*
X027208Y016717D02*
X027385Y016717D01*
X027228Y016558D02*
X027208Y016558D01*
X027208Y016400D02*
X027228Y016400D01*
X027228Y016241D02*
X027208Y016241D01*
X027208Y016083D02*
X027323Y016083D01*
X027432Y015683D02*
X026928Y015683D01*
X026928Y017369D01*
X027208Y017034D02*
X027372Y017034D01*
X028004Y017034D02*
X028308Y017034D01*
X029470Y016875D02*
X030861Y016875D01*
X030861Y016717D02*
X029567Y016717D01*
X029751Y016558D02*
X030861Y016558D01*
X030861Y016400D02*
X029816Y016400D01*
X029817Y016241D02*
X030861Y016241D01*
X031421Y016558D02*
X031444Y016558D01*
X031421Y016717D02*
X031628Y016717D01*
X031674Y016875D02*
X031421Y016875D01*
X031421Y017034D02*
X031459Y017034D01*
X031424Y017509D02*
X031309Y017509D01*
X034085Y017509D02*
X034125Y017509D01*
X034125Y017351D02*
X034085Y017351D01*
X034125Y017306D02*
X034885Y017306D01*
X034885Y017324D01*
X034125Y017306D02*
X034125Y017266D01*
X034085Y017266D01*
X034085Y016806D01*
X034085Y017034D02*
X034125Y017034D01*
X034125Y017192D02*
X034085Y017192D01*
X034085Y017668D02*
X034125Y017668D01*
X037784Y016400D02*
X038073Y016400D01*
X038073Y016241D02*
X037881Y016241D01*
X037908Y016083D02*
X038073Y016083D01*
X038073Y015924D02*
X037879Y015924D01*
X037779Y015766D02*
X038073Y015766D01*
X032844Y015449D02*
X032796Y015449D01*
X031488Y015607D02*
X031421Y015607D01*
X027432Y015683D02*
X027432Y011794D01*
X018519Y011794D01*
X018179Y011962D02*
X018177Y011962D01*
X018177Y012120D02*
X018319Y012120D01*
X018177Y012279D02*
X027152Y012279D01*
X027152Y012437D02*
X018177Y012437D01*
X018177Y012596D02*
X027152Y012596D01*
X027152Y012754D02*
X026767Y012754D01*
X026916Y012913D02*
X027152Y012913D01*
X027152Y013071D02*
X026956Y013071D01*
X026954Y013230D02*
X027152Y013230D01*
X027152Y013388D02*
X026951Y013388D01*
X026949Y013547D02*
X027152Y013547D01*
X027152Y013705D02*
X026946Y013705D01*
X026944Y013864D02*
X027152Y013864D01*
X027152Y014022D02*
X026942Y014022D01*
X026941Y014181D02*
X027152Y014181D01*
X027152Y014339D02*
X026940Y014339D01*
X026939Y014498D02*
X027152Y014498D01*
X027152Y014656D02*
X026938Y014656D01*
X026937Y014815D02*
X027152Y014815D01*
X027152Y014973D02*
X026936Y014973D01*
X026935Y015132D02*
X027152Y015132D01*
X027152Y015290D02*
X026934Y015290D01*
X026386Y013388D02*
X019313Y013388D01*
X019314Y013547D02*
X019381Y013547D01*
X019341Y013705D02*
X019315Y013705D01*
X019316Y013864D02*
X019341Y013864D01*
X019341Y014022D02*
X019317Y014022D01*
X019318Y014181D02*
X019341Y014181D01*
X019341Y014339D02*
X019319Y014339D01*
X019320Y014498D02*
X019341Y014498D01*
X019341Y014656D02*
X019321Y014656D01*
X019322Y014815D02*
X019341Y014815D01*
X019341Y014973D02*
X019323Y014973D01*
X019324Y015132D02*
X019341Y015132D01*
X019325Y015290D02*
X019341Y015290D01*
X019326Y015449D02*
X019341Y015449D01*
X019327Y015607D02*
X019341Y015607D01*
X019328Y015766D02*
X019341Y015766D01*
X019329Y015924D02*
X019341Y015924D01*
X019330Y016083D02*
X019341Y016083D01*
X019331Y016241D02*
X019341Y016241D01*
X019332Y016400D02*
X019341Y016400D01*
X019334Y016558D02*
X019341Y016558D01*
X019335Y016717D02*
X019341Y016717D01*
X019336Y016875D02*
X019342Y016875D01*
X019337Y017034D02*
X019441Y017034D01*
X019338Y017192D02*
X019915Y017192D01*
X019903Y017351D02*
X019339Y017351D01*
X019340Y017509D02*
X019869Y017509D01*
X020601Y017306D02*
X021301Y017306D01*
X020601Y017306D01*
X020601Y017306D01*
X021251Y017509D02*
X021800Y017509D01*
X021300Y017351D02*
X022510Y017351D01*
X022508Y017192D02*
X021287Y017192D01*
X022242Y017034D02*
X022506Y017034D01*
X022562Y016875D02*
X022334Y016875D01*
X022334Y016717D02*
X022853Y016717D01*
X022888Y016558D02*
X022489Y016558D01*
X023075Y017668D02*
X027336Y017668D01*
X027408Y017826D02*
X023000Y017826D01*
X023298Y018002D02*
X023298Y018219D01*
X018936Y018219D01*
X018911Y018143D02*
X017727Y018143D01*
X017866Y017985D02*
X018780Y017985D01*
X018766Y017826D02*
X017881Y017826D01*
X017601Y017892D02*
X017601Y017306D01*
X018479Y017306D01*
X018424Y013542D01*
X017503Y013542D01*
X017503Y008424D01*
X018267Y008416D01*
X018259Y006746D01*
X020377Y006746D01*
X020377Y008176D01*
X020369Y008176D01*
X020829Y008158D02*
X020909Y008158D01*
X020909Y008316D02*
X020829Y008316D01*
X020829Y008475D02*
X020909Y008475D01*
X020909Y008527D02*
X020909Y007824D01*
X020979Y007655D01*
X021108Y007526D01*
X021277Y007456D01*
X021460Y007456D01*
X021630Y007526D01*
X021759Y007655D01*
X021829Y007824D01*
X021829Y008527D01*
X021759Y008696D01*
X021639Y008816D01*
X021633Y009196D01*
X021765Y009329D01*
X021841Y009512D01*
X021841Y010311D01*
X021765Y010495D01*
X021625Y010636D01*
X021441Y010712D01*
X021242Y010712D01*
X021058Y010636D01*
X020918Y010495D01*
X020841Y010311D01*
X020841Y009512D01*
X020918Y009329D01*
X021058Y009188D01*
X021073Y009182D01*
X021079Y008796D01*
X020979Y008696D01*
X020909Y008527D01*
X020953Y008633D02*
X020785Y008633D01*
X020663Y008792D02*
X021074Y008792D01*
X021077Y008950D02*
X018840Y008950D01*
X018842Y008792D02*
X019074Y008792D01*
X018953Y008633D02*
X018844Y008633D01*
X018846Y008475D02*
X018909Y008475D01*
X018909Y008316D02*
X018848Y008316D01*
X018850Y008158D02*
X018909Y008158D01*
X018909Y007999D02*
X018852Y007999D01*
X018854Y007841D02*
X018909Y007841D01*
X018856Y007682D02*
X018968Y007682D01*
X019649Y007524D02*
X020097Y007524D01*
X020097Y007365D02*
X019649Y007365D01*
X019649Y007207D02*
X020097Y007207D01*
X020097Y007048D02*
X019555Y007048D01*
X019369Y007258D02*
X018582Y007258D01*
X018558Y009101D01*
X017897Y009101D01*
X017897Y013148D01*
X018196Y012913D02*
X018761Y012913D01*
X018743Y013071D02*
X018274Y013071D01*
X018272Y013230D02*
X018744Y013230D01*
X018746Y013388D02*
X018664Y013388D01*
X018704Y013547D02*
X018747Y013547D01*
X018748Y013705D02*
X018707Y013705D01*
X018709Y013864D02*
X018749Y013864D01*
X018751Y014022D02*
X018711Y014022D01*
X018713Y014181D02*
X018752Y014181D01*
X018753Y014339D02*
X018716Y014339D01*
X018718Y014498D02*
X018755Y014498D01*
X018756Y014656D02*
X018720Y014656D01*
X018723Y014815D02*
X018757Y014815D01*
X018759Y014973D02*
X018725Y014973D01*
X018727Y015132D02*
X018760Y015132D01*
X018761Y015290D02*
X018730Y015290D01*
X018732Y015449D02*
X018762Y015449D01*
X018764Y015607D02*
X018734Y015607D01*
X018737Y015766D02*
X018765Y015766D01*
X018766Y015924D02*
X018739Y015924D01*
X018741Y016083D02*
X018768Y016083D01*
X018769Y016241D02*
X018744Y016241D01*
X018746Y016400D02*
X018770Y016400D01*
X018771Y016558D02*
X018748Y016558D01*
X018751Y016717D02*
X018773Y016717D01*
X018774Y016875D02*
X018753Y016875D01*
X018755Y017034D02*
X018775Y017034D01*
X018758Y017192D02*
X018777Y017192D01*
X018760Y017351D02*
X018778Y017351D01*
X018779Y017509D02*
X018672Y017509D01*
X018781Y017668D02*
X018150Y017668D01*
X018372Y018200D02*
X018554Y018200D01*
X018554Y018640D01*
X018554Y018640D01*
X018554Y018200D01*
X018736Y018200D01*
X018994Y018458D01*
X018994Y018640D01*
X018554Y018640D01*
X018114Y018640D01*
X018114Y018458D01*
X018372Y018200D01*
X018270Y018302D02*
X016547Y018302D01*
X016306Y017892D02*
X017601Y017892D01*
X016928Y017509D02*
X016574Y017509D01*
X016881Y017351D02*
X006838Y017351D01*
X006838Y017509D02*
X015067Y017509D01*
X015124Y017452D02*
X015306Y017452D01*
X015488Y017452D01*
X015746Y017710D01*
X015746Y017892D01*
X015306Y017892D01*
X015306Y017452D01*
X015306Y017892D01*
X015306Y017892D01*
X015306Y017892D01*
X014866Y017892D01*
X014866Y017710D01*
X015124Y017452D01*
X015306Y017509D02*
X015306Y017509D01*
X015306Y017668D02*
X015306Y017668D01*
X015306Y017826D02*
X015306Y017826D01*
X015306Y017892D02*
X015306Y017892D01*
X015746Y017892D01*
X015746Y018074D01*
X015488Y018332D01*
X015306Y018332D01*
X015306Y017892D01*
X014866Y017892D01*
X014866Y018074D01*
X015124Y018332D01*
X015306Y018332D01*
X015306Y017892D01*
X015306Y017892D01*
X015306Y017985D02*
X015306Y017985D01*
X015306Y018143D02*
X015306Y018143D01*
X015306Y018302D02*
X015306Y018302D01*
X015519Y018302D02*
X016065Y018302D01*
X015906Y018143D02*
X015677Y018143D01*
X015746Y017985D02*
X015846Y017985D01*
X015846Y017826D02*
X015746Y017826D01*
X015704Y017668D02*
X015880Y017668D01*
X016038Y017509D02*
X015545Y017509D01*
X014908Y017668D02*
X006838Y017668D01*
X006960Y017826D02*
X014866Y017826D01*
X014866Y017985D02*
X007038Y017985D01*
X007058Y018143D02*
X014935Y018143D01*
X015093Y018302D02*
X007058Y018302D01*
X007058Y018460D02*
X018114Y018460D01*
X018114Y018619D02*
X007058Y018619D01*
X007058Y018777D02*
X018114Y018777D01*
X018114Y018822D02*
X018114Y018640D01*
X018554Y018640D01*
X018554Y018640D01*
X018554Y018640D01*
X018994Y018640D01*
X018994Y018822D01*
X018736Y019080D01*
X018554Y019080D01*
X018372Y019080D01*
X018114Y018822D01*
X018227Y018936D02*
X007015Y018936D01*
X006902Y019094D02*
X019357Y019094D01*
X019363Y019100D02*
X019094Y018831D01*
X019094Y018450D01*
X019363Y018180D01*
X019745Y018180D01*
X020014Y018450D01*
X020014Y018831D01*
X019745Y019100D01*
X019363Y019100D01*
X019199Y018936D02*
X018881Y018936D01*
X018994Y018777D02*
X019094Y018777D01*
X019094Y018619D02*
X018994Y018619D01*
X018994Y018460D02*
X019094Y018460D01*
X019242Y018302D02*
X018838Y018302D01*
X018554Y018302D02*
X018554Y018302D01*
X018554Y018460D02*
X018554Y018460D01*
X018554Y018619D02*
X018554Y018619D01*
X018554Y018640D02*
X018554Y019080D01*
X018554Y018640D01*
X018554Y018640D01*
X018554Y018777D02*
X018554Y018777D01*
X018554Y018936D02*
X018554Y018936D01*
X019751Y019094D02*
X027436Y019094D01*
X027278Y018936D02*
X019909Y018936D01*
X020014Y018777D02*
X027248Y018777D01*
X027248Y018619D02*
X020014Y018619D01*
X020014Y018460D02*
X027312Y018460D01*
X027408Y018302D02*
X019866Y018302D01*
X022150Y018143D02*
X027408Y018143D01*
X027408Y017985D02*
X022289Y017985D01*
X018193Y016875D02*
X018024Y016875D01*
X018071Y016717D02*
X018191Y016717D01*
X017601Y016306D02*
X017601Y016298D01*
X016322Y016298D01*
X016322Y014924D01*
X016349Y014924D01*
X015889Y014973D02*
X015789Y014973D01*
X015789Y014924D02*
X015789Y015106D01*
X015532Y015364D01*
X015349Y015364D01*
X015167Y015364D01*
X014909Y015106D01*
X014909Y014924D01*
X015349Y014924D01*
X015349Y015364D01*
X015349Y014924D01*
X015349Y014924D01*
X015349Y014924D01*
X014909Y014924D01*
X014909Y014741D01*
X015167Y014484D01*
X015349Y014484D01*
X015349Y014924D01*
X015789Y014924D01*
X015349Y014924D01*
X015349Y014924D01*
X015349Y014924D01*
X015349Y014484D01*
X015532Y014484D01*
X015789Y014741D01*
X015789Y014924D01*
X015789Y014815D02*
X015889Y014815D01*
X015966Y014656D02*
X015704Y014656D01*
X015546Y014498D02*
X016125Y014498D01*
X015349Y014498D02*
X015349Y014498D01*
X015349Y014656D02*
X015349Y014656D01*
X015349Y014815D02*
X015349Y014815D01*
X015349Y014973D02*
X015349Y014973D01*
X015349Y015132D02*
X015349Y015132D01*
X015349Y015290D02*
X015349Y015290D01*
X015094Y015290D02*
X006838Y015290D01*
X006838Y015132D02*
X014935Y015132D01*
X014909Y014973D02*
X006838Y014973D01*
X006838Y014815D02*
X014909Y014815D01*
X014995Y014656D02*
X006838Y014656D01*
X006838Y014498D02*
X015153Y014498D01*
X015764Y015132D02*
X015907Y015132D01*
X016042Y015290D02*
X015605Y015290D01*
X016042Y015449D02*
X006838Y015449D01*
X006838Y015607D02*
X016042Y015607D01*
X016042Y015766D02*
X006838Y015766D01*
X006838Y015924D02*
X009769Y015924D01*
X009691Y015957D02*
X009873Y015881D01*
X010070Y015881D01*
X010252Y015957D01*
X010391Y016096D01*
X010467Y016278D01*
X010467Y016475D01*
X010391Y016657D01*
X010252Y016796D01*
X010070Y016872D01*
X009873Y016872D01*
X009691Y016796D01*
X009551Y016657D01*
X009476Y016475D01*
X009476Y016278D01*
X009551Y016096D01*
X009691Y015957D01*
X009565Y016083D02*
X006838Y016083D01*
X006838Y016241D02*
X009491Y016241D01*
X009476Y016400D02*
X006838Y016400D01*
X006838Y016558D02*
X009511Y016558D01*
X009611Y016717D02*
X006838Y016717D01*
X006838Y016875D02*
X017178Y016875D01*
X017132Y016717D02*
X013245Y016717D01*
X013305Y016657D02*
X013165Y016796D01*
X012983Y016872D01*
X012786Y016872D01*
X012604Y016796D01*
X012465Y016657D01*
X012389Y016475D01*
X012389Y016278D01*
X012465Y016096D01*
X012604Y015957D01*
X012786Y015881D01*
X012983Y015881D01*
X013165Y015957D01*
X013305Y016096D01*
X013380Y016278D01*
X013380Y016475D01*
X013305Y016657D01*
X013346Y016558D02*
X016219Y016558D01*
X016061Y016400D02*
X013380Y016400D01*
X013365Y016241D02*
X016042Y016241D01*
X016042Y016083D02*
X013291Y016083D01*
X013087Y015924D02*
X016042Y015924D01*
X016602Y015924D02*
X017072Y015924D01*
X016602Y015766D02*
X018177Y015766D01*
X018179Y015924D02*
X018130Y015924D01*
X016992Y015607D02*
X016602Y015607D01*
X016602Y015449D02*
X016903Y015449D01*
X016881Y015290D02*
X016633Y015290D01*
X016792Y015132D02*
X016915Y015132D01*
X016809Y014973D02*
X017023Y014973D01*
X016809Y014815D02*
X018163Y014815D01*
X018160Y014656D02*
X018127Y014656D01*
X017601Y014656D02*
X017601Y014656D01*
X017601Y014498D02*
X017601Y014498D01*
X017601Y014339D02*
X017601Y014339D01*
X017601Y014181D02*
X017601Y014181D01*
X017601Y014022D02*
X017601Y014022D01*
X017270Y013705D02*
X013769Y013705D01*
X013922Y013547D02*
X017223Y013547D01*
X017223Y013388D02*
X013940Y013388D01*
X013937Y013230D02*
X017223Y013230D01*
X017223Y013071D02*
X013935Y013071D01*
X013933Y012913D02*
X017223Y012913D01*
X017223Y012754D02*
X013931Y012754D01*
X013929Y012596D02*
X014841Y012596D01*
X015141Y012361D02*
X015141Y012290D01*
X013645Y012290D01*
X013660Y013447D01*
X012416Y013447D01*
X012416Y014211D01*
X007904Y014211D01*
X007904Y013542D01*
X006558Y013542D01*
X006558Y018431D01*
X006058Y018460D02*
X006058Y018460D01*
X006058Y018302D02*
X006058Y018302D01*
X006058Y018143D02*
X006058Y018143D01*
X006038Y017985D02*
X006078Y017985D01*
X006156Y017826D02*
X005960Y017826D01*
X005745Y017668D02*
X006278Y017668D01*
X006278Y017509D02*
X004145Y017509D01*
X004145Y017351D02*
X006278Y017351D01*
X006278Y017192D02*
X004145Y017192D01*
X004145Y017034D02*
X006278Y017034D01*
X006278Y016875D02*
X005804Y016875D01*
X005745Y016935D02*
X005363Y016935D01*
X005094Y016665D01*
X005094Y016284D01*
X005363Y016015D01*
X005745Y016015D01*
X006014Y016284D01*
X006014Y016665D01*
X005745Y016935D01*
X005963Y016717D02*
X006278Y016717D01*
X006278Y016558D02*
X006014Y016558D01*
X006014Y016400D02*
X006278Y016400D01*
X006278Y016241D02*
X005971Y016241D01*
X005812Y016083D02*
X006278Y016083D01*
X006278Y015924D02*
X004897Y015924D01*
X004897Y015766D02*
X006278Y015766D01*
X006278Y015607D02*
X004897Y015607D01*
X004897Y015449D02*
X006278Y015449D01*
X006278Y015290D02*
X004944Y015290D01*
X005077Y015132D02*
X006278Y015132D01*
X006278Y014973D02*
X005077Y014973D01*
X005077Y014815D02*
X006278Y014815D01*
X006278Y014656D02*
X004957Y014656D01*
X004617Y014967D02*
X004617Y016475D01*
X004554Y016475D01*
X005014Y016400D02*
X005094Y016400D01*
X005094Y016558D02*
X005014Y016558D01*
X004963Y016717D02*
X005145Y016717D01*
X005304Y016875D02*
X004804Y016875D01*
X004304Y016875D02*
X004145Y016875D01*
X004145Y016717D02*
X004145Y016717D01*
X003585Y016717D02*
X003318Y016717D01*
X003318Y016875D02*
X003585Y016875D01*
X003585Y017034D02*
X003318Y017034D01*
X003318Y017192D02*
X003585Y017192D01*
X003585Y017351D02*
X003318Y017351D01*
X003318Y017509D02*
X003585Y017509D01*
X003585Y017668D02*
X003318Y017668D01*
X003318Y017826D02*
X003585Y017826D01*
X003608Y017985D02*
X003232Y017985D01*
X003038Y017782D02*
X003038Y013369D01*
X003432Y013369D01*
X003432Y012668D01*
X008731Y012668D01*
X008731Y013384D01*
X011589Y013384D01*
X011589Y012652D01*
X012818Y012652D01*
X012841Y011502D01*
X013715Y011518D01*
X014416Y011518D01*
X014448Y005518D01*
X016983Y005510D01*
X016983Y004959D01*
X017589Y004920D02*
X017589Y006565D01*
X014747Y006565D01*
X014747Y011896D01*
X013763Y011896D01*
X013235Y011888D01*
X013235Y013061D01*
X012007Y013061D01*
X012007Y013849D01*
X008369Y013849D01*
X008369Y013109D01*
X003865Y013109D01*
X003865Y017872D01*
X004176Y017872D01*
X004176Y018778D01*
X003716Y018777D02*
X003636Y018777D01*
X003636Y018619D02*
X003716Y018619D01*
X003843Y018460D02*
X003509Y018460D01*
X003896Y018302D02*
X002100Y018302D01*
X002298Y018143D02*
X003787Y018143D01*
X004456Y018143D02*
X005058Y018143D01*
X005058Y018302D02*
X004456Y018302D01*
X004509Y018460D02*
X005058Y018460D01*
X005058Y018619D02*
X004636Y018619D01*
X004636Y018777D02*
X005058Y018777D01*
X005101Y018936D02*
X004636Y018936D01*
X004510Y019094D02*
X005213Y019094D01*
X005902Y019094D02*
X006213Y019094D01*
X006101Y018936D02*
X006015Y018936D01*
X006058Y018777D02*
X006058Y018777D01*
X006058Y018619D02*
X006058Y018619D01*
X005078Y017985D02*
X004456Y017985D01*
X004456Y017826D02*
X005156Y017826D01*
X005371Y017668D02*
X004367Y017668D01*
X003038Y017782D02*
X001652Y017782D01*
X002052Y017282D02*
X002236Y017358D01*
X002376Y017499D01*
X002378Y017502D01*
X002758Y017502D01*
X002758Y017028D01*
X002677Y017062D01*
X002378Y017062D01*
X002376Y017065D01*
X002236Y017206D01*
X002052Y017282D01*
X002218Y017351D02*
X002758Y017351D01*
X002758Y017192D02*
X002249Y017192D01*
X002745Y017034D02*
X002758Y017034D01*
X002621Y016782D02*
X002621Y012983D01*
X003007Y012983D01*
X003007Y012250D01*
X009149Y012250D01*
X009149Y013030D01*
X011204Y013030D01*
X011204Y012282D01*
X012432Y012282D01*
X012440Y011180D01*
X013660Y011187D01*
X014149Y011187D01*
X014141Y004526D01*
X018463Y004526D01*
X018463Y006101D01*
X020369Y006101D01*
X020369Y005176D01*
X019909Y005146D02*
X019829Y005146D01*
X019829Y004988D02*
X019909Y004988D01*
X019909Y004829D02*
X019829Y004829D01*
X019765Y004671D02*
X019973Y004671D01*
X020141Y004512D02*
X019597Y004512D01*
X019141Y004512D02*
X019106Y004512D01*
X019106Y004354D02*
X020538Y004354D01*
X020538Y004195D02*
X019106Y004195D01*
X019066Y004037D02*
X020538Y004037D01*
X020538Y003878D02*
X018490Y003878D01*
X018561Y003720D02*
X019201Y003720D01*
X019196Y003719D02*
X019124Y003695D01*
X019057Y003661D01*
X018996Y003617D01*
X018943Y003563D01*
X018898Y003502D01*
X018864Y003435D01*
X018840Y003363D01*
X018829Y003288D01*
X018829Y003271D01*
X019589Y003271D01*
X019589Y003731D01*
X019271Y003731D01*
X019196Y003719D01*
X018941Y003561D02*
X018561Y003561D01*
X018538Y003403D02*
X018853Y003403D01*
X018829Y003231D02*
X018829Y003213D01*
X018840Y003138D01*
X018864Y003066D01*
X018898Y002999D01*
X018943Y002938D01*
X018996Y002885D01*
X019057Y002840D01*
X019124Y002806D01*
X019196Y002782D01*
X019271Y002771D01*
X019589Y002771D01*
X019589Y003231D01*
X018829Y003231D01*
X018858Y003086D02*
X010262Y003086D01*
X010262Y003187D02*
X010183Y003377D01*
X010039Y003522D01*
X009849Y003600D01*
X009644Y003600D01*
X009455Y003522D01*
X009310Y003377D01*
X009232Y003187D01*
X009232Y002983D01*
X009310Y002793D01*
X009455Y002648D01*
X009644Y002570D01*
X009849Y002570D01*
X010039Y002648D01*
X010183Y002793D01*
X010262Y002983D01*
X010262Y003187D01*
X010238Y003244D02*
X016851Y003244D01*
X016919Y003177D02*
X016661Y003434D01*
X016661Y003617D01*
X017101Y003617D01*
X017101Y003617D01*
X017101Y003617D01*
X017101Y004057D01*
X017284Y004057D01*
X017541Y003799D01*
X017541Y003617D01*
X017101Y003617D01*
X017101Y003617D01*
X017101Y003617D01*
X017101Y003177D01*
X016919Y003177D01*
X017101Y003177D02*
X017284Y003177D01*
X017541Y003434D01*
X017541Y003617D01*
X017101Y003617D01*
X017101Y003177D01*
X017101Y003244D02*
X017101Y003244D01*
X017101Y003403D02*
X017101Y003403D01*
X017101Y003561D02*
X017101Y003561D01*
X017101Y003720D02*
X017101Y003720D01*
X017101Y003878D02*
X017101Y003878D01*
X017101Y004037D02*
X017101Y004037D01*
X016899Y004037D02*
X016766Y004037D01*
X016758Y004195D02*
X017821Y004195D01*
X017821Y004037D02*
X017303Y004037D01*
X017462Y003878D02*
X017712Y003878D01*
X017641Y003720D02*
X017541Y003720D01*
X017541Y003561D02*
X017641Y003561D01*
X017665Y003403D02*
X017510Y003403D01*
X017351Y003244D02*
X017823Y003244D01*
X018379Y003244D02*
X019589Y003244D01*
X019589Y003231D02*
X019589Y003271D01*
X019629Y003271D01*
X019629Y003731D01*
X019946Y003731D01*
X020021Y003719D01*
X020093Y003695D01*
X020160Y003661D01*
X020221Y003617D01*
X020275Y003563D01*
X020319Y003502D01*
X020353Y003435D01*
X020377Y003363D01*
X020389Y003288D01*
X020389Y003271D01*
X019629Y003271D01*
X019629Y003231D01*
X020389Y003231D01*
X020389Y003213D01*
X020377Y003138D01*
X020353Y003066D01*
X020319Y002999D01*
X020275Y002938D01*
X020221Y002885D01*
X020160Y002840D01*
X020093Y002806D01*
X020021Y002782D01*
X019946Y002771D01*
X019629Y002771D01*
X019629Y003231D01*
X019589Y003231D01*
X019629Y003244D02*
X020538Y003244D01*
X020538Y003086D02*
X020360Y003086D01*
X020264Y002927D02*
X020538Y002927D01*
X020538Y002769D02*
X018572Y002769D01*
X018699Y002642D02*
X018430Y002911D01*
X018049Y002911D01*
X017779Y002642D01*
X017779Y002261D01*
X018049Y001991D01*
X018430Y001991D01*
X018699Y002261D01*
X018699Y002642D01*
X018699Y002610D02*
X020538Y002610D01*
X020538Y002452D02*
X018699Y002452D01*
X018699Y002293D02*
X020538Y002293D01*
X020538Y002135D02*
X018573Y002135D01*
X018523Y001818D02*
X018949Y001818D01*
X019609Y001471D02*
X018239Y001471D01*
X018239Y001451D01*
X017779Y001501D02*
X017317Y001501D01*
X017317Y001618D02*
X017317Y001237D01*
X017048Y000968D01*
X016667Y000968D01*
X016487Y001148D01*
X015716Y001148D01*
X015556Y000987D01*
X015175Y000987D01*
X014995Y001167D01*
X013964Y001167D01*
X013951Y001153D01*
X013512Y001153D01*
X013231Y001434D01*
X012951Y001153D01*
X012512Y001153D01*
X012201Y001464D01*
X012201Y001903D01*
X012512Y002213D01*
X012730Y002213D01*
X012721Y002222D01*
X012721Y002433D01*
X013231Y002433D01*
X013231Y002433D01*
X013231Y002433D01*
X013741Y002433D01*
X013741Y002222D01*
X013732Y002213D01*
X013951Y002213D01*
X014261Y001903D01*
X014261Y001727D01*
X014995Y001727D01*
X015175Y001907D01*
X015556Y001907D01*
X015755Y001708D01*
X016487Y001708D01*
X016667Y001888D01*
X017048Y001888D01*
X017317Y001618D01*
X017276Y001659D02*
X017796Y001659D01*
X017955Y001818D02*
X017118Y001818D01*
X017048Y001968D02*
X017317Y002237D01*
X017317Y002618D01*
X017048Y002888D01*
X016667Y002888D01*
X016397Y002618D01*
X016397Y002237D01*
X016667Y001968D01*
X017048Y001968D01*
X017056Y001976D02*
X020538Y001976D01*
X020538Y001818D02*
X020269Y001818D01*
X020818Y001471D02*
X019609Y001471D01*
X020140Y001025D02*
X021638Y001025D01*
X021449Y001184D02*
X020329Y001184D01*
X020818Y001471D02*
X020818Y004384D01*
X020849Y004384D01*
X020849Y007109D01*
X030400Y007109D01*
X030400Y005176D01*
X030369Y005176D01*
X030829Y005146D02*
X030909Y005146D01*
X030909Y004988D02*
X030829Y004988D01*
X030829Y004829D02*
X030909Y004829D01*
X030909Y004824D02*
X030979Y004655D01*
X031108Y004526D01*
X031277Y004456D01*
X031460Y004456D01*
X031630Y004526D01*
X031759Y004655D01*
X031829Y004824D01*
X031829Y005527D01*
X031759Y005696D01*
X031630Y005826D01*
X031460Y005896D01*
X031277Y005896D01*
X031108Y005826D01*
X030979Y005696D01*
X030909Y005527D01*
X030909Y004824D01*
X030973Y004671D02*
X030765Y004671D01*
X030597Y004512D02*
X031141Y004512D01*
X031597Y004512D02*
X032141Y004512D01*
X031973Y004671D02*
X031765Y004671D01*
X031829Y004829D02*
X031909Y004829D01*
X031909Y004988D02*
X031829Y004988D01*
X031829Y005146D02*
X031909Y005146D01*
X031909Y005305D02*
X031829Y005305D01*
X031829Y005463D02*
X031909Y005463D01*
X031948Y005622D02*
X031790Y005622D01*
X031748Y005780D02*
X031675Y005780D01*
X031595Y005939D02*
X030680Y005939D01*
X030680Y006097D02*
X031577Y006097D01*
X031577Y006256D02*
X030680Y006256D01*
X030680Y006414D02*
X031577Y006414D01*
X031577Y006573D02*
X030680Y006573D01*
X030680Y006731D02*
X031577Y006731D01*
X031577Y006890D02*
X030680Y006890D01*
X030680Y007048D02*
X031577Y007048D01*
X031577Y007207D02*
X030663Y007207D01*
X030513Y007365D02*
X031577Y007365D01*
X031113Y007524D02*
X030625Y007524D01*
X030630Y007526D02*
X030759Y007655D01*
X030829Y007824D01*
X030829Y008527D01*
X030759Y008696D01*
X030630Y008826D01*
X030460Y008896D01*
X030277Y008896D01*
X030108Y008826D01*
X029979Y008696D01*
X029909Y008527D01*
X029909Y007824D01*
X029979Y007655D01*
X030108Y007526D01*
X030277Y007456D01*
X030460Y007456D01*
X030630Y007526D01*
X030770Y007682D02*
X030968Y007682D01*
X030909Y007841D02*
X030829Y007841D01*
X030829Y007999D02*
X030909Y007999D01*
X030909Y008158D02*
X030829Y008158D01*
X030829Y008316D02*
X030909Y008316D01*
X030909Y008475D02*
X030829Y008475D01*
X030785Y008633D02*
X030953Y008633D01*
X031074Y008792D02*
X030663Y008792D01*
X030074Y008792D02*
X029663Y008792D01*
X029630Y008826D02*
X029759Y008696D01*
X029829Y008527D01*
X029829Y007824D01*
X029759Y007655D01*
X029630Y007526D01*
X029460Y007456D01*
X029277Y007456D01*
X029108Y007526D01*
X028979Y007655D01*
X028909Y007824D01*
X028909Y008527D01*
X028979Y008696D01*
X029108Y008826D01*
X029277Y008896D01*
X029460Y008896D01*
X029630Y008826D01*
X029785Y008633D02*
X029953Y008633D01*
X029909Y008475D02*
X029829Y008475D01*
X029829Y008316D02*
X029909Y008316D01*
X029909Y008158D02*
X029829Y008158D01*
X029829Y007999D02*
X029909Y007999D01*
X029909Y007841D02*
X029829Y007841D01*
X029770Y007682D02*
X029968Y007682D01*
X030113Y007524D02*
X029625Y007524D01*
X029113Y007524D02*
X028625Y007524D01*
X028630Y007526D02*
X028759Y007655D01*
X028829Y007824D01*
X028829Y008527D01*
X028759Y008696D01*
X028630Y008826D01*
X028460Y008896D01*
X028277Y008896D01*
X028108Y008826D01*
X027979Y008696D01*
X027909Y008527D01*
X027909Y007824D01*
X027979Y007655D01*
X028108Y007526D01*
X028277Y007456D01*
X028460Y007456D01*
X028630Y007526D01*
X028770Y007682D02*
X028968Y007682D01*
X028909Y007841D02*
X028829Y007841D01*
X028829Y007999D02*
X028909Y007999D01*
X028909Y008158D02*
X028829Y008158D01*
X028829Y008316D02*
X028909Y008316D01*
X028909Y008475D02*
X028829Y008475D01*
X028785Y008633D02*
X028953Y008633D01*
X029074Y008792D02*
X028663Y008792D01*
X028074Y008792D02*
X027628Y008792D01*
X027600Y008812D02*
X027656Y008771D01*
X027705Y008722D01*
X027745Y008666D01*
X027777Y008604D01*
X027798Y008539D01*
X027809Y008470D01*
X027809Y008176D01*
X027369Y008176D01*
X027369Y008876D01*
X027334Y008876D01*
X027266Y008865D01*
X027200Y008843D01*
X027138Y008812D01*
X027082Y008771D01*
X027033Y008722D01*
X026993Y008666D01*
X026961Y008604D01*
X026940Y008539D01*
X026929Y008470D01*
X026929Y008176D01*
X027369Y008176D01*
X027369Y008176D01*
X027369Y008876D01*
X027404Y008876D01*
X027472Y008865D01*
X027538Y008843D01*
X027600Y008812D01*
X027369Y008792D02*
X027369Y008792D01*
X027369Y008633D02*
X027369Y008633D01*
X027369Y008475D02*
X027369Y008475D01*
X027369Y008316D02*
X027369Y008316D01*
X027369Y008176D02*
X027369Y008176D01*
X027369Y008176D01*
X027809Y008176D01*
X027809Y007881D01*
X027798Y007813D01*
X027777Y007747D01*
X027745Y007685D01*
X027705Y007629D01*
X027656Y007580D01*
X027600Y007539D01*
X027538Y007508D01*
X027472Y007486D01*
X027404Y007476D01*
X027369Y007476D01*
X027369Y008176D01*
X026929Y008176D01*
X026929Y007881D01*
X026940Y007813D01*
X026961Y007747D01*
X026993Y007685D01*
X027033Y007629D01*
X027082Y007580D01*
X027138Y007539D01*
X027200Y007508D01*
X027266Y007486D01*
X027334Y007476D01*
X027369Y007476D01*
X027369Y008176D01*
X027369Y008176D01*
X027369Y008158D02*
X027369Y008158D01*
X027369Y007999D02*
X027369Y007999D01*
X027369Y007841D02*
X027369Y007841D01*
X027369Y007682D02*
X027369Y007682D01*
X027369Y007524D02*
X027369Y007524D01*
X027569Y007524D02*
X028113Y007524D01*
X027968Y007682D02*
X027743Y007682D01*
X027803Y007841D02*
X027909Y007841D01*
X027909Y007999D02*
X027809Y007999D01*
X027809Y008158D02*
X027909Y008158D01*
X027909Y008316D02*
X027809Y008316D01*
X027808Y008475D02*
X027909Y008475D01*
X027953Y008633D02*
X027762Y008633D01*
X027110Y008792D02*
X026663Y008792D01*
X026630Y008826D02*
X026460Y008896D01*
X026277Y008896D01*
X026108Y008826D01*
X025979Y008696D01*
X025909Y008527D01*
X025909Y007824D01*
X025979Y007655D01*
X026108Y007526D01*
X026277Y007456D01*
X026460Y007456D01*
X026630Y007526D01*
X026759Y007655D01*
X026829Y007824D01*
X026829Y008527D01*
X026759Y008696D01*
X026630Y008826D01*
X026785Y008633D02*
X026976Y008633D01*
X026930Y008475D02*
X026829Y008475D01*
X026829Y008316D02*
X026929Y008316D01*
X026929Y008158D02*
X026829Y008158D01*
X026829Y007999D02*
X026929Y007999D01*
X026935Y007841D02*
X026829Y007841D01*
X026770Y007682D02*
X026995Y007682D01*
X027169Y007524D02*
X026625Y007524D01*
X026113Y007524D02*
X025625Y007524D01*
X025630Y007526D02*
X025759Y007655D01*
X025829Y007824D01*
X025829Y008527D01*
X025759Y008696D01*
X025630Y008826D01*
X025460Y008896D01*
X025277Y008896D01*
X025108Y008826D01*
X024979Y008696D01*
X024909Y008527D01*
X024909Y007824D01*
X024979Y007655D01*
X025108Y007526D01*
X025277Y007456D01*
X025460Y007456D01*
X025630Y007526D01*
X025770Y007682D02*
X025968Y007682D01*
X025909Y007841D02*
X025829Y007841D01*
X025829Y007999D02*
X025909Y007999D01*
X025909Y008158D02*
X025829Y008158D01*
X025829Y008316D02*
X025909Y008316D01*
X025909Y008475D02*
X025829Y008475D01*
X025785Y008633D02*
X025953Y008633D01*
X026074Y008792D02*
X025663Y008792D01*
X025074Y008792D02*
X024663Y008792D01*
X024639Y008816D02*
X024633Y009196D01*
X024765Y009329D01*
X024841Y009512D01*
X024841Y010311D01*
X024765Y010495D01*
X024625Y010636D01*
X024441Y010712D01*
X024242Y010712D01*
X024058Y010636D01*
X023918Y010495D01*
X023841Y010311D01*
X023765Y010495D01*
X023625Y010636D01*
X023441Y010712D01*
X023242Y010712D01*
X023058Y010636D01*
X022918Y010495D01*
X022841Y010311D01*
X022765Y010495D01*
X022625Y010636D01*
X022441Y010712D01*
X022242Y010712D01*
X022058Y010636D01*
X021918Y010495D01*
X021841Y010311D01*
X021841Y009512D01*
X021918Y009329D01*
X022058Y009188D01*
X022073Y009182D01*
X022079Y008796D01*
X021979Y008696D01*
X021909Y008527D01*
X021909Y007824D01*
X021979Y007655D01*
X022108Y007526D01*
X022277Y007456D01*
X022460Y007456D01*
X022630Y007526D01*
X022759Y007655D01*
X022829Y007824D01*
X022829Y008527D01*
X022759Y008696D01*
X022639Y008816D01*
X022633Y009196D01*
X022765Y009329D01*
X022841Y009512D01*
X022841Y010311D01*
X022841Y009512D01*
X022918Y009329D01*
X023058Y009188D01*
X023073Y009182D01*
X023079Y008796D01*
X022979Y008696D01*
X022909Y008527D01*
X022909Y007824D01*
X022979Y007655D01*
X023108Y007526D01*
X023277Y007456D01*
X023460Y007456D01*
X023630Y007526D01*
X023759Y007655D01*
X023829Y007824D01*
X023829Y008527D01*
X023759Y008696D01*
X023639Y008816D01*
X023633Y009196D01*
X023765Y009329D01*
X023841Y009512D01*
X023841Y010311D01*
X023841Y009512D01*
X023918Y009329D01*
X024058Y009188D01*
X024073Y009182D01*
X024079Y008796D01*
X023979Y008696D01*
X023909Y008527D01*
X023909Y007824D01*
X023979Y007655D01*
X024108Y007526D01*
X024277Y007456D01*
X024460Y007456D01*
X024630Y007526D01*
X024759Y007655D01*
X024829Y007824D01*
X024829Y008527D01*
X024759Y008696D01*
X024639Y008816D01*
X024637Y008950D02*
X031089Y008950D01*
X031089Y009109D02*
X024634Y009109D01*
X024704Y009267D02*
X031025Y009267D01*
X030968Y009426D02*
X024805Y009426D01*
X024841Y009584D02*
X030968Y009584D01*
X031006Y009743D02*
X027157Y009743D01*
X027282Y009867D02*
X027012Y009597D01*
X026631Y009597D01*
X026362Y009867D01*
X026362Y010248D01*
X026631Y010517D01*
X027012Y010517D01*
X027282Y010248D01*
X027282Y009867D01*
X027282Y009901D02*
X031164Y009901D01*
X031246Y010074D02*
X030988Y010332D01*
X030988Y010514D01*
X031428Y010514D01*
X031428Y010514D01*
X031428Y010074D01*
X031246Y010074D01*
X031428Y010074D02*
X031610Y010074D01*
X031868Y010332D01*
X031868Y010514D01*
X031428Y010514D01*
X031428Y010074D01*
X031428Y010218D02*
X031428Y010218D01*
X031428Y010377D02*
X031428Y010377D01*
X031428Y010514D02*
X031428Y010514D01*
X031428Y010514D01*
X030988Y010514D01*
X030988Y010696D01*
X031246Y010954D01*
X031428Y010954D01*
X031428Y010514D01*
X031868Y010514D01*
X031868Y010696D01*
X031610Y010954D01*
X031428Y010954D01*
X031428Y010514D01*
X031428Y010514D01*
X031428Y010535D02*
X031428Y010535D01*
X031428Y010694D02*
X031428Y010694D01*
X031428Y010852D02*
X031428Y010852D01*
X031144Y010852D02*
X030981Y010852D01*
X030988Y010694D02*
X024485Y010694D01*
X024198Y010694D02*
X023485Y010694D01*
X023198Y010694D02*
X022485Y010694D01*
X022198Y010694D02*
X021485Y010694D01*
X021198Y010694D02*
X020610Y010694D01*
X020725Y010535D02*
X020958Y010535D01*
X020868Y010377D02*
X020814Y010377D01*
X020841Y010218D02*
X020841Y010218D01*
X020841Y010060D02*
X020841Y010060D01*
X020841Y009901D02*
X020841Y009901D01*
X020841Y009743D02*
X020841Y009743D01*
X020841Y009584D02*
X020841Y009584D01*
X020805Y009426D02*
X020877Y009426D01*
X020979Y009267D02*
X020704Y009267D01*
X021074Y009109D02*
X018838Y009109D01*
X018788Y009267D02*
X018979Y009267D01*
X018877Y009426D02*
X018177Y009426D01*
X018177Y009584D02*
X018841Y009584D01*
X018841Y009743D02*
X018177Y009743D01*
X018177Y009901D02*
X018841Y009901D01*
X018841Y010060D02*
X018177Y010060D01*
X018177Y010218D02*
X018841Y010218D01*
X018868Y010377D02*
X018177Y010377D01*
X018177Y010535D02*
X018958Y010535D01*
X019002Y010694D02*
X018177Y010694D01*
X018177Y010852D02*
X019002Y010852D01*
X019002Y011011D02*
X018177Y011011D01*
X018177Y011169D02*
X019002Y011169D01*
X019002Y011328D02*
X018177Y011328D01*
X018177Y011486D02*
X018291Y011486D01*
X018746Y011486D02*
X019021Y011486D01*
X019002Y011329D02*
X019002Y011329D01*
X019282Y011384D02*
X030432Y011353D01*
X030432Y011817D01*
X030818Y011384D02*
X032684Y011384D01*
X032684Y009022D01*
X031857Y009022D01*
X031857Y006038D01*
X032369Y006038D01*
X032369Y005176D01*
X032829Y005146D02*
X035849Y005146D01*
X035931Y004988D02*
X032829Y004988D01*
X032829Y004829D02*
X035843Y004829D01*
X035711Y004671D02*
X032765Y004671D01*
X032597Y004512D02*
X035711Y004512D01*
X035711Y004354D02*
X028822Y004354D01*
X028822Y004195D02*
X035800Y004195D01*
X035931Y004037D02*
X030226Y004037D01*
X030411Y003878D02*
X035892Y003878D01*
X035733Y003720D02*
X030436Y003720D01*
X030436Y003561D02*
X031340Y003561D01*
X031234Y003403D02*
X030436Y003403D01*
X030156Y003762D02*
X030156Y002991D01*
X031627Y002991D01*
X031656Y002991D01*
X031656Y001365D01*
X031196Y001342D02*
X030077Y001342D01*
X030077Y001501D02*
X031196Y001501D01*
X031300Y001659D02*
X030008Y001659D01*
X029897Y001818D02*
X031376Y001818D01*
X031376Y001976D02*
X029897Y001976D01*
X029897Y002135D02*
X031376Y002135D01*
X031376Y002293D02*
X029897Y002293D01*
X029897Y002452D02*
X031376Y002452D01*
X031257Y002610D02*
X029997Y002610D01*
X029627Y003014D02*
X029617Y003014D01*
X029617Y001400D01*
X029157Y001342D02*
X029077Y001342D01*
X029077Y001209D02*
X028808Y000940D01*
X028426Y000940D01*
X028157Y001209D01*
X028157Y001591D01*
X028426Y001860D01*
X028808Y001860D01*
X029077Y001591D01*
X029077Y001209D01*
X029051Y001184D02*
X029183Y001184D01*
X029341Y001025D02*
X028893Y001025D01*
X028341Y001025D02*
X024971Y001025D01*
X025040Y001094D02*
X025817Y001227D01*
X025919Y001125D01*
X026300Y001125D01*
X026569Y001395D01*
X026569Y001776D01*
X026300Y002045D01*
X025919Y002045D01*
X025649Y001776D01*
X025649Y001766D01*
X024910Y001639D01*
X024788Y001762D01*
X024407Y001762D01*
X024137Y001492D01*
X024137Y001111D01*
X024407Y000842D01*
X024788Y000842D01*
X025040Y001094D01*
X024813Y000867D02*
X038956Y000867D01*
X038956Y000750D02*
X000380Y000750D01*
X000380Y019641D01*
X038956Y019641D01*
X038956Y000750D01*
X038956Y001025D02*
X037453Y001025D01*
X037612Y001184D02*
X037879Y001184D01*
X037751Y001311D02*
X038032Y001030D01*
X038211Y001030D01*
X038211Y001490D01*
X038251Y001490D01*
X038251Y001030D01*
X038430Y001030D01*
X038711Y001311D01*
X038711Y001490D01*
X038251Y001490D01*
X038251Y001530D01*
X038711Y001530D01*
X038711Y001709D01*
X038430Y001990D01*
X038251Y001990D01*
X038251Y001530D01*
X038211Y001530D01*
X038211Y001490D01*
X037751Y001490D01*
X037751Y001311D01*
X037751Y001342D02*
X037711Y001342D01*
X037711Y001501D02*
X038211Y001501D01*
X038211Y001530D02*
X037751Y001530D01*
X037751Y001709D01*
X038032Y001990D01*
X038211Y001990D01*
X038211Y001530D01*
X038251Y001501D02*
X038956Y001501D01*
X038956Y001659D02*
X038711Y001659D01*
X038603Y001818D02*
X038956Y001818D01*
X038956Y001976D02*
X038444Y001976D01*
X038430Y002030D02*
X038711Y002311D01*
X038711Y002490D01*
X038251Y002490D01*
X038251Y002030D01*
X038430Y002030D01*
X038534Y002135D02*
X038956Y002135D01*
X038956Y002293D02*
X038693Y002293D01*
X038711Y002452D02*
X038956Y002452D01*
X038956Y002610D02*
X038711Y002610D01*
X038711Y002530D02*
X038711Y002709D01*
X038430Y002990D01*
X038251Y002990D01*
X038251Y002530D01*
X038711Y002530D01*
X038652Y002769D02*
X038956Y002769D01*
X038956Y002927D02*
X038493Y002927D01*
X038430Y003030D02*
X038711Y003311D01*
X038711Y003490D01*
X038251Y003490D01*
X038251Y003030D01*
X038430Y003030D01*
X038485Y003086D02*
X038956Y003086D01*
X038956Y003244D02*
X038644Y003244D01*
X038711Y003403D02*
X038956Y003403D01*
X038956Y003561D02*
X038711Y003561D01*
X038711Y003530D02*
X038711Y003709D01*
X038430Y003990D01*
X038251Y003990D01*
X038251Y003530D01*
X038711Y003530D01*
X038701Y003720D02*
X038956Y003720D01*
X038956Y003878D02*
X038542Y003878D01*
X038430Y004030D02*
X038711Y004311D01*
X038711Y004490D01*
X038251Y004490D01*
X038251Y004030D01*
X038430Y004030D01*
X038436Y004037D02*
X038956Y004037D01*
X038956Y004195D02*
X038595Y004195D01*
X038711Y004354D02*
X038956Y004354D01*
X038956Y004512D02*
X038251Y004512D01*
X038251Y004530D02*
X038711Y004530D01*
X038711Y004709D01*
X038430Y004990D01*
X038251Y004990D01*
X038251Y004530D01*
X038251Y004490D01*
X038211Y004490D01*
X038211Y004030D01*
X038032Y004030D01*
X037751Y004311D01*
X037751Y004490D01*
X038211Y004490D01*
X038211Y004530D01*
X037751Y004530D01*
X037751Y004709D01*
X038032Y004990D01*
X038211Y004990D01*
X038211Y004530D01*
X038251Y004530D01*
X038211Y004512D02*
X037711Y004512D01*
X037711Y004354D02*
X037751Y004354D01*
X037867Y004195D02*
X037623Y004195D01*
X037465Y004037D02*
X038026Y004037D01*
X038032Y003990D02*
X037751Y003709D01*
X037751Y003530D01*
X038211Y003530D01*
X038211Y003490D01*
X038251Y003490D01*
X038251Y003530D01*
X038211Y003530D01*
X038211Y003990D01*
X038032Y003990D01*
X037920Y003878D02*
X037531Y003878D01*
X037690Y003720D02*
X037762Y003720D01*
X037751Y003561D02*
X037711Y003561D01*
X037751Y003490D02*
X037751Y003311D01*
X038032Y003030D01*
X038211Y003030D01*
X038211Y003490D01*
X037751Y003490D01*
X037751Y003403D02*
X037711Y003403D01*
X037672Y003244D02*
X037818Y003244D01*
X037977Y003086D02*
X037514Y003086D01*
X037482Y002927D02*
X037969Y002927D01*
X038032Y002990D02*
X037751Y002709D01*
X037751Y002530D01*
X038211Y002530D01*
X038211Y002490D01*
X038251Y002490D01*
X038251Y002530D01*
X038211Y002530D01*
X038211Y002990D01*
X038032Y002990D01*
X038211Y002927D02*
X038251Y002927D01*
X038251Y002769D02*
X038211Y002769D01*
X038211Y002610D02*
X038251Y002610D01*
X038211Y002490D02*
X037751Y002490D01*
X037751Y002311D01*
X038032Y002030D01*
X038211Y002030D01*
X038211Y002490D01*
X038211Y002452D02*
X038251Y002452D01*
X038251Y002293D02*
X038211Y002293D01*
X038211Y002135D02*
X038251Y002135D01*
X038251Y001976D02*
X038211Y001976D01*
X038211Y001818D02*
X038251Y001818D01*
X038251Y001659D02*
X038211Y001659D01*
X038018Y001976D02*
X037433Y001976D01*
X037563Y002135D02*
X037928Y002135D01*
X037769Y002293D02*
X037711Y002293D01*
X037711Y002452D02*
X037751Y002452D01*
X037751Y002610D02*
X037711Y002610D01*
X037641Y002769D02*
X037811Y002769D01*
X038211Y003086D02*
X038251Y003086D01*
X038251Y003244D02*
X038211Y003244D01*
X038211Y003403D02*
X038251Y003403D01*
X038251Y003561D02*
X038211Y003561D01*
X038211Y003720D02*
X038251Y003720D01*
X038251Y003878D02*
X038211Y003878D01*
X038211Y004037D02*
X038251Y004037D01*
X038251Y004195D02*
X038211Y004195D01*
X038211Y004354D02*
X038251Y004354D01*
X038251Y004671D02*
X038211Y004671D01*
X038211Y004829D02*
X038251Y004829D01*
X038251Y004988D02*
X038211Y004988D01*
X038211Y005030D02*
X038032Y005030D01*
X037751Y005311D01*
X037751Y005490D01*
X038211Y005490D01*
X038251Y005490D01*
X038251Y005030D01*
X038430Y005030D01*
X038711Y005311D01*
X038711Y005490D01*
X038251Y005490D01*
X038251Y005530D01*
X038711Y005530D01*
X038711Y005709D01*
X038430Y005990D01*
X038251Y005990D01*
X038251Y005530D01*
X038211Y005530D01*
X038211Y005490D01*
X038211Y005030D01*
X038211Y005146D02*
X038251Y005146D01*
X038251Y005305D02*
X038211Y005305D01*
X038211Y005463D02*
X038251Y005463D01*
X038211Y005530D02*
X037751Y005530D01*
X037751Y005709D01*
X038032Y005990D01*
X038211Y005990D01*
X038211Y005530D01*
X038211Y005622D02*
X038251Y005622D01*
X038251Y005780D02*
X038211Y005780D01*
X038211Y005939D02*
X038251Y005939D01*
X038251Y006030D02*
X038430Y006030D01*
X038711Y006311D01*
X038711Y006490D01*
X038251Y006490D01*
X038251Y006030D01*
X038211Y006030D02*
X038211Y006490D01*
X038251Y006490D01*
X038251Y006530D01*
X038711Y006530D01*
X038711Y006709D01*
X038430Y006990D01*
X038251Y006990D01*
X038251Y006530D01*
X038211Y006530D01*
X038211Y006490D01*
X037751Y006490D01*
X037751Y006311D01*
X038032Y006030D01*
X038211Y006030D01*
X038211Y006097D02*
X038251Y006097D01*
X038251Y006256D02*
X038211Y006256D01*
X038211Y006414D02*
X038251Y006414D01*
X038211Y006530D02*
X037751Y006530D01*
X037751Y006709D01*
X038032Y006990D01*
X038211Y006990D01*
X038211Y006530D01*
X038211Y006573D02*
X038251Y006573D01*
X038251Y006731D02*
X038211Y006731D01*
X038211Y006890D02*
X038251Y006890D01*
X038251Y007030D02*
X038430Y007030D01*
X038711Y007311D01*
X038711Y007490D01*
X038251Y007490D01*
X038251Y007030D01*
X038251Y007048D02*
X038211Y007048D01*
X038211Y007030D02*
X038211Y007490D01*
X038251Y007490D01*
X038251Y007530D01*
X038711Y007530D01*
X038711Y007709D01*
X038430Y007990D01*
X038251Y007990D01*
X038251Y007530D01*
X038211Y007530D01*
X038211Y007490D01*
X037751Y007490D01*
X037751Y007311D01*
X038032Y007030D01*
X038211Y007030D01*
X038211Y007207D02*
X038251Y007207D01*
X038251Y007365D02*
X038211Y007365D01*
X038211Y007524D02*
X037711Y007524D01*
X037751Y007530D02*
X038211Y007530D01*
X038211Y007990D01*
X038032Y007990D01*
X037751Y007709D01*
X037751Y007530D01*
X037751Y007682D02*
X037711Y007682D01*
X037569Y007841D02*
X037883Y007841D01*
X038032Y008030D02*
X038211Y008030D01*
X038211Y008490D01*
X038251Y008490D01*
X038251Y008030D01*
X038430Y008030D01*
X038711Y008311D01*
X038711Y008490D01*
X038251Y008490D01*
X038251Y008530D01*
X038711Y008530D01*
X038711Y008709D01*
X038430Y008990D01*
X038251Y008990D01*
X038251Y008530D01*
X038211Y008530D01*
X038211Y008490D01*
X037751Y008490D01*
X037751Y008311D01*
X038032Y008030D01*
X037905Y008158D02*
X037586Y008158D01*
X037711Y008316D02*
X037751Y008316D01*
X037751Y008475D02*
X037711Y008475D01*
X037751Y008530D02*
X038211Y008530D01*
X038211Y008990D01*
X038032Y008990D01*
X037751Y008709D01*
X037751Y008530D01*
X037751Y008633D02*
X037711Y008633D01*
X037618Y008792D02*
X037834Y008792D01*
X037992Y008950D02*
X037459Y008950D01*
X037537Y009109D02*
X037954Y009109D01*
X038032Y009030D02*
X038211Y009030D01*
X038211Y009490D01*
X038251Y009490D01*
X038251Y009030D01*
X038430Y009030D01*
X038711Y009311D01*
X038711Y009490D01*
X038251Y009490D01*
X038251Y009530D01*
X038711Y009530D01*
X038711Y009709D01*
X038430Y009990D01*
X038251Y009990D01*
X038251Y009530D01*
X038211Y009530D01*
X038211Y009490D01*
X037751Y009490D01*
X037751Y009311D01*
X038032Y009030D01*
X038211Y009109D02*
X038251Y009109D01*
X038251Y009267D02*
X038211Y009267D01*
X038211Y009426D02*
X038251Y009426D01*
X038211Y009530D02*
X037751Y009530D01*
X037751Y009709D01*
X038032Y009990D01*
X038211Y009990D01*
X038211Y009530D01*
X038211Y009584D02*
X038251Y009584D01*
X038251Y009743D02*
X038211Y009743D01*
X038211Y009901D02*
X038251Y009901D01*
X038251Y010030D02*
X038430Y010030D01*
X038711Y010311D01*
X038711Y010490D01*
X038251Y010490D01*
X038251Y010030D01*
X038251Y010060D02*
X038211Y010060D01*
X038211Y010030D02*
X038211Y010490D01*
X038251Y010490D01*
X038251Y010530D01*
X038711Y010530D01*
X038711Y010709D01*
X038430Y010990D01*
X038251Y010990D01*
X038251Y010530D01*
X038211Y010530D01*
X038211Y010490D01*
X037751Y010490D01*
X037751Y010311D01*
X038032Y010030D01*
X038211Y010030D01*
X038211Y010218D02*
X038251Y010218D01*
X038251Y010377D02*
X038211Y010377D01*
X038211Y010530D02*
X037751Y010530D01*
X037751Y010709D01*
X038032Y010990D01*
X038211Y010990D01*
X038211Y010530D01*
X038211Y010535D02*
X038251Y010535D01*
X038251Y010694D02*
X038211Y010694D01*
X038211Y010852D02*
X038251Y010852D01*
X038568Y010852D02*
X038956Y010852D01*
X038956Y010694D02*
X038711Y010694D01*
X038711Y010535D02*
X038956Y010535D01*
X038956Y010377D02*
X038711Y010377D01*
X038618Y010218D02*
X038956Y010218D01*
X038956Y010060D02*
X038459Y010060D01*
X038519Y009901D02*
X038956Y009901D01*
X038956Y009743D02*
X038678Y009743D01*
X038711Y009584D02*
X038956Y009584D01*
X038956Y009426D02*
X038711Y009426D01*
X038667Y009267D02*
X038956Y009267D01*
X038956Y009109D02*
X038508Y009109D01*
X038470Y008950D02*
X038956Y008950D01*
X038956Y008792D02*
X038629Y008792D01*
X038711Y008633D02*
X038956Y008633D01*
X038956Y008475D02*
X038711Y008475D01*
X038711Y008316D02*
X038956Y008316D01*
X038956Y008158D02*
X038557Y008158D01*
X038251Y008158D02*
X038211Y008158D01*
X038211Y008316D02*
X038251Y008316D01*
X038251Y008475D02*
X038211Y008475D01*
X038211Y008633D02*
X038251Y008633D01*
X038251Y008792D02*
X038211Y008792D01*
X038211Y008950D02*
X038251Y008950D01*
X037795Y009267D02*
X037695Y009267D01*
X037711Y009426D02*
X037751Y009426D01*
X037751Y009584D02*
X037711Y009584D01*
X037667Y009743D02*
X037785Y009743D01*
X037943Y009901D02*
X037508Y009901D01*
X037488Y010060D02*
X038003Y010060D01*
X037844Y010218D02*
X037646Y010218D01*
X037711Y010377D02*
X037751Y010377D01*
X037751Y010535D02*
X037711Y010535D01*
X037711Y010694D02*
X037751Y010694D01*
X037894Y010852D02*
X037557Y010852D01*
X036605Y012437D02*
X031277Y012437D01*
X031436Y012596D02*
X036637Y012596D01*
X032404Y011011D02*
X031090Y011011D01*
X030818Y011085D02*
X030818Y011384D01*
X030818Y011085D02*
X020330Y011085D01*
X020330Y009912D01*
X020341Y009912D01*
X019841Y009901D02*
X019841Y009901D01*
X019841Y009743D02*
X019841Y009743D01*
X019841Y009584D02*
X019841Y009584D01*
X019805Y009426D02*
X019877Y009426D01*
X019979Y009267D02*
X019704Y009267D01*
X019663Y008792D02*
X020074Y008792D01*
X019953Y008633D02*
X019785Y008633D01*
X019829Y008475D02*
X019909Y008475D01*
X019909Y008316D02*
X019829Y008316D01*
X019829Y008158D02*
X019909Y008158D01*
X019909Y007999D02*
X019829Y007999D01*
X019829Y007841D02*
X019909Y007841D01*
X019968Y007682D02*
X019770Y007682D01*
X019369Y007258D02*
X019369Y008176D01*
X020657Y007524D02*
X021113Y007524D01*
X020968Y007682D02*
X020770Y007682D01*
X020829Y007841D02*
X020909Y007841D01*
X020909Y007999D02*
X020829Y007999D01*
X021369Y008176D02*
X021341Y009912D01*
X021841Y009901D02*
X021841Y009901D01*
X021841Y009743D02*
X021841Y009743D01*
X021841Y009584D02*
X021841Y009584D01*
X021805Y009426D02*
X021877Y009426D01*
X021979Y009267D02*
X021704Y009267D01*
X021634Y009109D02*
X022074Y009109D01*
X022077Y008950D02*
X021637Y008950D01*
X021663Y008792D02*
X022074Y008792D01*
X021953Y008633D02*
X021785Y008633D01*
X021829Y008475D02*
X021909Y008475D01*
X021909Y008316D02*
X021829Y008316D01*
X021829Y008158D02*
X021909Y008158D01*
X021909Y007999D02*
X021829Y007999D01*
X021829Y007841D02*
X021909Y007841D01*
X021968Y007682D02*
X021770Y007682D01*
X021625Y007524D02*
X022113Y007524D01*
X022625Y007524D02*
X023113Y007524D01*
X022968Y007682D02*
X022770Y007682D01*
X022829Y007841D02*
X022909Y007841D01*
X022909Y007999D02*
X022829Y007999D01*
X022829Y008158D02*
X022909Y008158D01*
X022909Y008316D02*
X022829Y008316D01*
X022829Y008475D02*
X022909Y008475D01*
X022953Y008633D02*
X022785Y008633D01*
X022663Y008792D02*
X023074Y008792D01*
X023077Y008950D02*
X022637Y008950D01*
X022634Y009109D02*
X023074Y009109D01*
X022979Y009267D02*
X022704Y009267D01*
X022805Y009426D02*
X022877Y009426D01*
X022841Y009584D02*
X022841Y009584D01*
X022841Y009743D02*
X022841Y009743D01*
X022841Y009901D02*
X022841Y009901D01*
X022841Y010060D02*
X022841Y010060D01*
X022841Y010218D02*
X022841Y010218D01*
X022814Y010377D02*
X022868Y010377D01*
X022958Y010535D02*
X022725Y010535D01*
X021958Y010535D02*
X021725Y010535D01*
X021814Y010377D02*
X021868Y010377D01*
X021841Y010218D02*
X021841Y010218D01*
X021841Y010060D02*
X021841Y010060D01*
X022341Y009912D02*
X022369Y008176D01*
X023369Y008176D02*
X023341Y009912D01*
X023841Y009901D02*
X023841Y009901D01*
X023841Y009743D02*
X023841Y009743D01*
X023841Y009584D02*
X023841Y009584D01*
X023805Y009426D02*
X023877Y009426D01*
X023979Y009267D02*
X023704Y009267D01*
X023634Y009109D02*
X024074Y009109D01*
X024077Y008950D02*
X023637Y008950D01*
X023663Y008792D02*
X024074Y008792D01*
X023953Y008633D02*
X023785Y008633D01*
X023829Y008475D02*
X023909Y008475D01*
X023909Y008316D02*
X023829Y008316D01*
X023829Y008158D02*
X023909Y008158D01*
X023909Y007999D02*
X023829Y007999D01*
X023829Y007841D02*
X023909Y007841D01*
X023968Y007682D02*
X023770Y007682D01*
X023625Y007524D02*
X024113Y007524D01*
X024625Y007524D02*
X025113Y007524D01*
X024968Y007682D02*
X024770Y007682D01*
X024829Y007841D02*
X024909Y007841D01*
X024909Y007999D02*
X024829Y007999D01*
X024829Y008158D02*
X024909Y008158D01*
X024909Y008316D02*
X024829Y008316D01*
X024829Y008475D02*
X024909Y008475D01*
X024953Y008633D02*
X024785Y008633D01*
X024369Y008176D02*
X024341Y009912D01*
X023841Y010060D02*
X023841Y010060D01*
X023841Y010218D02*
X023841Y010218D01*
X023814Y010377D02*
X023868Y010377D01*
X023958Y010535D02*
X023725Y010535D01*
X024725Y010535D02*
X030988Y010535D01*
X030988Y010377D02*
X027153Y010377D01*
X027282Y010218D02*
X031102Y010218D01*
X031754Y010218D02*
X032404Y010218D01*
X032404Y010060D02*
X027282Y010060D01*
X026490Y010377D02*
X026125Y010377D01*
X026004Y010497D02*
X026262Y010240D01*
X026262Y010057D01*
X025822Y010057D01*
X025822Y009617D01*
X026004Y009617D01*
X026262Y009875D01*
X026262Y010057D01*
X025822Y010057D01*
X025822Y010057D01*
X025822Y010057D01*
X025822Y009617D01*
X025639Y009617D01*
X025382Y009875D01*
X025382Y010057D01*
X025822Y010057D01*
X025822Y010057D01*
X025822Y010057D01*
X025822Y010497D01*
X026004Y010497D01*
X025822Y010497D02*
X025639Y010497D01*
X025382Y010240D01*
X025382Y010057D01*
X025822Y010057D01*
X025822Y010497D01*
X025822Y010377D02*
X025822Y010377D01*
X025822Y010218D02*
X025822Y010218D01*
X025822Y010060D02*
X025822Y010060D01*
X025822Y009901D02*
X025822Y009901D01*
X025822Y009743D02*
X025822Y009743D01*
X026129Y009743D02*
X026486Y009743D01*
X026362Y009901D02*
X026262Y009901D01*
X026262Y010060D02*
X026362Y010060D01*
X026362Y010218D02*
X026262Y010218D01*
X025519Y010377D02*
X024814Y010377D01*
X024841Y010218D02*
X025382Y010218D01*
X025382Y010060D02*
X024841Y010060D01*
X024841Y009901D02*
X025382Y009901D01*
X025514Y009743D02*
X024841Y009743D01*
X027152Y012120D02*
X018719Y012120D01*
X018915Y012754D02*
X018177Y012754D01*
X017223Y012596D02*
X015440Y012596D01*
X015518Y012437D02*
X017223Y012437D01*
X017223Y012279D02*
X015516Y012279D01*
X015435Y012120D02*
X017223Y012120D01*
X017223Y011962D02*
X015023Y011962D01*
X015027Y011803D02*
X017223Y011803D01*
X017223Y011645D02*
X015027Y011645D01*
X015027Y011486D02*
X017223Y011486D01*
X017223Y011328D02*
X015027Y011328D01*
X015355Y011169D02*
X017223Y011169D01*
X017223Y011011D02*
X015460Y011011D01*
X015479Y010852D02*
X017223Y010852D01*
X017223Y010694D02*
X015430Y010694D01*
X015381Y010535D02*
X015671Y010535D01*
X015427Y010377D02*
X015381Y010377D01*
X016422Y010535D02*
X017223Y010535D01*
X017223Y010377D02*
X016665Y010377D01*
X016749Y010218D02*
X017223Y010218D01*
X017223Y010060D02*
X016766Y010060D01*
X016728Y009901D02*
X017223Y009901D01*
X017223Y009743D02*
X016614Y009743D01*
X016616Y009426D02*
X017223Y009426D01*
X017223Y009584D02*
X015381Y009584D01*
X015381Y009426D02*
X015476Y009426D01*
X015478Y009743D02*
X015381Y009743D01*
X016729Y009267D02*
X017223Y009267D01*
X017223Y009109D02*
X016766Y009109D01*
X016748Y008950D02*
X017223Y008950D01*
X017223Y008792D02*
X016663Y008792D01*
X016417Y008633D02*
X017223Y008633D01*
X017223Y008475D02*
X016567Y008475D01*
X016708Y008316D02*
X017244Y008316D01*
X017413Y008158D02*
X016766Y008158D01*
X016766Y007999D02*
X017985Y007999D01*
X017984Y007841D02*
X016703Y007841D01*
X016535Y007682D02*
X017983Y007682D01*
X017982Y007524D02*
X016449Y007524D01*
X016677Y007365D02*
X017982Y007365D01*
X017981Y007207D02*
X016754Y007207D01*
X016766Y007048D02*
X017980Y007048D01*
X017979Y006890D02*
X016723Y006890D01*
X017820Y006731D02*
X017979Y006731D01*
X017979Y006691D02*
X017979Y006691D01*
X018021Y006588D02*
X018021Y006588D01*
X018037Y006573D02*
X017869Y006573D01*
X017869Y006414D02*
X020569Y006414D01*
X021314Y006526D02*
X021322Y006455D01*
X030046Y006581D01*
X030054Y006077D02*
X021322Y006014D01*
X021790Y005622D02*
X021948Y005622D01*
X021909Y005463D02*
X021829Y005463D01*
X021829Y005305D02*
X021909Y005305D01*
X021909Y005146D02*
X021829Y005146D01*
X021829Y004988D02*
X021909Y004988D01*
X021909Y004829D02*
X021829Y004829D01*
X021765Y004671D02*
X021973Y004671D01*
X022141Y004512D02*
X021597Y004512D01*
X021141Y004512D02*
X021129Y004512D01*
X021129Y004354D02*
X023081Y004354D01*
X023081Y004512D02*
X022597Y004512D01*
X022765Y004671D02*
X022973Y004671D01*
X022909Y004829D02*
X022829Y004829D01*
X022829Y004988D02*
X022909Y004988D01*
X022909Y005146D02*
X022829Y005146D01*
X022829Y005305D02*
X022909Y005305D01*
X022909Y005463D02*
X022829Y005463D01*
X022790Y005622D02*
X022948Y005622D01*
X023361Y005176D02*
X023361Y003825D01*
X023023Y003825D01*
X023023Y002361D01*
X023589Y002361D01*
X023597Y001302D01*
X023137Y001342D02*
X022957Y001342D01*
X022969Y001501D02*
X023146Y001501D01*
X023304Y001659D02*
X022932Y001659D01*
X022829Y001818D02*
X023313Y001818D01*
X023312Y001976D02*
X021098Y001976D01*
X021098Y001818D02*
X021509Y001818D01*
X021098Y002135D02*
X022853Y002135D01*
X022747Y002293D02*
X021098Y002293D01*
X021098Y002452D02*
X022743Y002452D01*
X022743Y002610D02*
X021098Y002610D01*
X021098Y002769D02*
X022743Y002769D01*
X022189Y002927D02*
X022149Y002927D01*
X022149Y003086D02*
X022189Y003086D01*
X022149Y003244D02*
X021098Y003244D01*
X021098Y003086D02*
X021418Y003086D01*
X021513Y002927D02*
X021098Y002927D01*
X021098Y003403D02*
X021413Y003403D01*
X021501Y003561D02*
X021098Y003561D01*
X021098Y003720D02*
X021761Y003720D01*
X022149Y003720D02*
X022189Y003720D01*
X022189Y003561D02*
X022149Y003561D01*
X022149Y003403D02*
X022189Y003403D01*
X022576Y003720D02*
X022743Y003720D01*
X022743Y003878D02*
X021098Y003878D01*
X021098Y004037D02*
X022838Y004037D01*
X023081Y004195D02*
X021098Y004195D01*
X020538Y003720D02*
X020016Y003720D01*
X020276Y003561D02*
X020538Y003561D01*
X020538Y003403D02*
X020364Y003403D01*
X019629Y003403D02*
X019589Y003403D01*
X019589Y003561D02*
X019629Y003561D01*
X019629Y003720D02*
X019589Y003720D01*
X018826Y004187D02*
X018101Y004187D01*
X018101Y003617D01*
X018826Y004187D02*
X018826Y005176D01*
X019369Y005176D01*
X019829Y005305D02*
X019909Y005305D01*
X019909Y005463D02*
X019829Y005463D01*
X019790Y005622D02*
X019948Y005622D01*
X020063Y005780D02*
X019675Y005780D01*
X018183Y005780D02*
X017869Y005780D01*
X017869Y005622D02*
X018183Y005622D01*
X018183Y005463D02*
X017869Y005463D01*
X017869Y005305D02*
X018183Y005305D01*
X018183Y005146D02*
X017898Y005146D01*
X017968Y004988D02*
X018183Y004988D01*
X018183Y004829D02*
X017961Y004829D01*
X017869Y005939D02*
X018183Y005939D01*
X018183Y006097D02*
X017869Y006097D01*
X017869Y006256D02*
X018225Y006256D01*
X020657Y007365D02*
X020737Y007365D01*
X017897Y009101D02*
X017889Y009101D01*
X019282Y009912D02*
X019282Y011384D01*
X019562Y011011D02*
X020050Y011011D01*
X020050Y010852D02*
X019562Y010852D01*
X019562Y010694D02*
X020050Y010694D01*
X019958Y010535D02*
X019725Y010535D01*
X019814Y010377D02*
X019868Y010377D01*
X019841Y010218D02*
X019841Y010218D01*
X019841Y010060D02*
X019841Y010060D01*
X019341Y009912D02*
X019282Y009912D01*
X015675Y008633D02*
X015381Y008633D01*
X015381Y008475D02*
X015525Y008475D01*
X015384Y008316D02*
X015381Y008316D01*
X015381Y007841D02*
X015389Y007841D01*
X015381Y007682D02*
X015557Y007682D01*
X015643Y007524D02*
X015381Y007524D01*
X015381Y007365D02*
X015416Y007365D01*
X015109Y007101D02*
X015101Y007101D01*
X015101Y010888D01*
X013826Y010715D02*
X013786Y009542D01*
X013766Y009109D02*
X013866Y009109D01*
X013866Y008950D02*
X013748Y008950D01*
X013663Y008792D02*
X013866Y008792D01*
X013865Y008633D02*
X013417Y008633D01*
X013398Y008545D02*
X013567Y008475D01*
X013696Y008346D01*
X013766Y008177D01*
X013766Y007994D01*
X013696Y007824D01*
X013567Y007695D01*
X013398Y007625D01*
X012695Y007625D01*
X012526Y007695D01*
X012396Y007824D01*
X012326Y007994D01*
X012326Y008177D01*
X012396Y008346D01*
X012526Y008475D01*
X012695Y008545D01*
X013398Y008545D01*
X013567Y008475D02*
X013865Y008475D01*
X013865Y008316D02*
X013708Y008316D01*
X013766Y008158D02*
X013865Y008158D01*
X013865Y007999D02*
X013766Y007999D01*
X013703Y007841D02*
X013865Y007841D01*
X013864Y007682D02*
X013535Y007682D01*
X013449Y007524D02*
X013864Y007524D01*
X013864Y007365D02*
X013677Y007365D01*
X013696Y007346D02*
X013567Y007475D01*
X013398Y007545D01*
X012695Y007545D01*
X012526Y007475D01*
X012396Y007346D01*
X012326Y007177D01*
X012326Y006994D01*
X012396Y006824D01*
X012526Y006695D01*
X012695Y006625D01*
X013398Y006625D01*
X013567Y006695D01*
X013696Y006824D01*
X013766Y006994D01*
X013766Y007177D01*
X013696Y007346D01*
X013754Y007207D02*
X013864Y007207D01*
X013864Y007048D02*
X013766Y007048D01*
X013723Y006890D02*
X013863Y006890D01*
X013863Y006731D02*
X013603Y006731D01*
X013567Y006475D02*
X013398Y006545D01*
X012695Y006545D01*
X012526Y006475D01*
X012396Y006346D01*
X012326Y006177D01*
X012326Y005994D01*
X012396Y005824D01*
X012526Y005695D01*
X012695Y005625D01*
X013398Y005625D01*
X013567Y005695D01*
X013696Y005824D01*
X013766Y005994D01*
X013766Y006177D01*
X013696Y006346D01*
X013567Y006475D01*
X013628Y006414D02*
X013863Y006414D01*
X013863Y006256D02*
X013733Y006256D01*
X013766Y006097D02*
X013862Y006097D01*
X013862Y005939D02*
X013743Y005939D01*
X013652Y005780D02*
X013862Y005780D01*
X013862Y005622D02*
X008980Y005622D01*
X008980Y005780D02*
X012441Y005780D01*
X012349Y005939D02*
X008980Y005939D01*
X008980Y006097D02*
X012326Y006097D01*
X012359Y006256D02*
X008980Y006256D01*
X008980Y006414D02*
X012465Y006414D01*
X012490Y006731D02*
X008980Y006731D01*
X008980Y006822D02*
X009020Y006863D01*
X009078Y007002D01*
X009078Y007152D01*
X009020Y007291D01*
X008914Y007398D01*
X008775Y007455D01*
X008624Y007455D01*
X008486Y007398D01*
X008379Y007291D01*
X008322Y007152D01*
X008322Y007002D01*
X008379Y006863D01*
X008420Y006822D01*
X008420Y001521D01*
X008379Y001480D01*
X008322Y001341D01*
X008322Y001191D01*
X008379Y001052D01*
X008486Y000946D01*
X008624Y000888D01*
X008775Y000888D01*
X008914Y000946D01*
X009020Y001052D01*
X009078Y001191D01*
X009078Y001341D01*
X009020Y001480D01*
X008980Y001521D01*
X008980Y006822D01*
X009031Y006890D02*
X012369Y006890D01*
X012326Y007048D02*
X009078Y007048D01*
X009055Y007207D02*
X012339Y007207D01*
X012416Y007365D02*
X008946Y007365D01*
X008700Y007077D02*
X008700Y001266D01*
X008993Y001025D02*
X015137Y001025D01*
X015593Y001025D02*
X016609Y001025D01*
X017105Y001025D02*
X018015Y001025D01*
X017856Y001184D02*
X017264Y001184D01*
X017317Y001342D02*
X017779Y001342D01*
X018464Y001025D02*
X019078Y001025D01*
X018889Y001184D02*
X018622Y001184D01*
X017905Y002135D02*
X017215Y002135D01*
X017317Y002293D02*
X017779Y002293D01*
X017779Y002452D02*
X017317Y002452D01*
X017317Y002610D02*
X017779Y002610D01*
X017906Y002769D02*
X017167Y002769D01*
X016548Y002769D02*
X015694Y002769D01*
X015825Y002638D02*
X015556Y002907D01*
X015175Y002907D01*
X014905Y002638D01*
X014905Y002257D01*
X015175Y001987D01*
X015556Y001987D01*
X015825Y002257D01*
X015825Y002638D01*
X015825Y002610D02*
X016397Y002610D01*
X016397Y002452D02*
X015825Y002452D01*
X015825Y002293D02*
X016397Y002293D01*
X016500Y002135D02*
X015703Y002135D01*
X015645Y001818D02*
X016597Y001818D01*
X016658Y001976D02*
X014188Y001976D01*
X014261Y001818D02*
X015085Y001818D01*
X015027Y002135D02*
X014030Y002135D01*
X013741Y002293D02*
X014905Y002293D01*
X014905Y002452D02*
X013741Y002452D01*
X013741Y002433D02*
X013741Y002645D01*
X013442Y002943D01*
X013231Y002943D01*
X013020Y002943D01*
X012721Y002645D01*
X012721Y002433D01*
X013231Y002433D01*
X013231Y002943D01*
X013231Y002433D01*
X013231Y002433D01*
X013741Y002433D01*
X013741Y002610D02*
X014905Y002610D01*
X015036Y002769D02*
X013617Y002769D01*
X013459Y002927D02*
X018953Y002927D01*
X019589Y002927D02*
X019629Y002927D01*
X019629Y003086D02*
X019589Y003086D01*
X016693Y003403D02*
X010158Y003403D01*
X009943Y003561D02*
X016661Y003561D01*
X016661Y003720D02*
X016591Y003720D01*
X016718Y003878D02*
X016741Y003878D01*
X015501Y003720D02*
X013591Y003720D01*
X013567Y003695D02*
X013696Y003824D01*
X013766Y003994D01*
X013766Y004177D01*
X013696Y004346D01*
X013567Y004475D01*
X013398Y004545D01*
X012695Y004545D01*
X012526Y004475D01*
X012396Y004346D01*
X012326Y004177D01*
X012326Y003994D01*
X012396Y003824D01*
X012526Y003695D01*
X012695Y003625D01*
X013398Y003625D01*
X013567Y003695D01*
X013718Y003878D02*
X015374Y003878D01*
X015326Y004037D02*
X013766Y004037D01*
X013758Y004195D02*
X015334Y004195D01*
X014085Y004246D02*
X014085Y004246D01*
X014085Y004246D01*
X013917Y004354D02*
X013688Y004354D01*
X013861Y004470D02*
X013861Y004470D01*
X013861Y004512D02*
X013477Y004512D01*
X013398Y004625D02*
X013567Y004695D01*
X013696Y004824D01*
X013766Y004994D01*
X013766Y005177D01*
X013696Y005346D01*
X013567Y005475D01*
X013398Y005545D01*
X012695Y005545D01*
X012526Y005475D01*
X012396Y005346D01*
X012326Y005177D01*
X012326Y004994D01*
X012396Y004824D01*
X012526Y004695D01*
X012695Y004625D01*
X013398Y004625D01*
X013508Y004671D02*
X013861Y004671D01*
X013861Y004829D02*
X013698Y004829D01*
X013764Y004988D02*
X013861Y004988D01*
X013861Y005146D02*
X013766Y005146D01*
X013713Y005305D02*
X013862Y005305D01*
X013862Y005463D02*
X013579Y005463D01*
X012514Y005463D02*
X008980Y005463D01*
X008980Y005305D02*
X012379Y005305D01*
X012326Y005146D02*
X008980Y005146D01*
X008980Y004988D02*
X012329Y004988D01*
X012394Y004829D02*
X008980Y004829D01*
X008980Y004671D02*
X012585Y004671D01*
X012615Y004512D02*
X008980Y004512D01*
X008980Y004354D02*
X012404Y004354D01*
X012334Y004195D02*
X008980Y004195D01*
X008980Y004037D02*
X012326Y004037D01*
X012374Y003878D02*
X008980Y003878D01*
X008980Y003720D02*
X012501Y003720D01*
X013004Y002927D02*
X010239Y002927D01*
X010159Y002769D02*
X012845Y002769D01*
X012721Y002610D02*
X009946Y002610D01*
X009548Y002610D02*
X008980Y002610D01*
X008980Y002452D02*
X012721Y002452D01*
X012721Y002293D02*
X008980Y002293D01*
X008980Y002135D02*
X012433Y002135D01*
X012274Y001976D02*
X008980Y001976D01*
X008980Y001818D02*
X012201Y001818D01*
X012201Y001659D02*
X008980Y001659D01*
X009000Y001501D02*
X012201Y001501D01*
X012323Y001342D02*
X009077Y001342D01*
X009075Y001184D02*
X012482Y001184D01*
X012981Y001184D02*
X013482Y001184D01*
X013323Y001342D02*
X013139Y001342D01*
X013731Y001447D02*
X015365Y001447D01*
X015365Y001428D01*
X016857Y001428D01*
X013731Y001447D02*
X013731Y001683D01*
X013231Y002452D02*
X013231Y002452D01*
X013231Y002610D02*
X013231Y002610D01*
X013231Y002769D02*
X013231Y002769D01*
X013231Y002927D02*
X013231Y002927D01*
X009551Y003561D02*
X008980Y003561D01*
X008980Y003403D02*
X009336Y003403D01*
X009255Y003244D02*
X008980Y003244D01*
X008980Y003086D02*
X009232Y003086D01*
X009255Y002927D02*
X008980Y002927D01*
X008980Y002769D02*
X009335Y002769D01*
X008420Y002769D02*
X000380Y002769D01*
X000380Y002927D02*
X008420Y002927D01*
X008420Y003086D02*
X000380Y003086D01*
X000380Y003244D02*
X008420Y003244D01*
X008420Y003403D02*
X000380Y003403D01*
X000380Y003561D02*
X008420Y003561D01*
X008420Y003720D02*
X000380Y003720D01*
X000380Y003878D02*
X008420Y003878D01*
X008420Y004037D02*
X000380Y004037D01*
X000380Y004195D02*
X008420Y004195D01*
X008420Y004354D02*
X000380Y004354D01*
X000380Y004512D02*
X008420Y004512D01*
X008420Y004671D02*
X000380Y004671D01*
X000380Y004829D02*
X008420Y004829D01*
X008420Y004988D02*
X000380Y004988D01*
X000380Y005146D02*
X008420Y005146D01*
X008420Y005305D02*
X000380Y005305D01*
X000380Y005463D02*
X008420Y005463D01*
X008420Y005622D02*
X000380Y005622D01*
X000380Y005780D02*
X008420Y005780D01*
X008420Y005939D02*
X000380Y005939D01*
X000380Y006097D02*
X008420Y006097D01*
X008420Y006256D02*
X000380Y006256D01*
X000380Y006414D02*
X008420Y006414D01*
X008420Y006573D02*
X000380Y006573D01*
X000380Y006731D02*
X008420Y006731D01*
X008368Y006890D02*
X000380Y006890D01*
X000380Y007048D02*
X008322Y007048D01*
X008344Y007207D02*
X000380Y007207D01*
X000380Y007365D02*
X008453Y007365D01*
X008980Y006573D02*
X013863Y006573D01*
X015093Y007101D02*
X015109Y007101D01*
X012643Y007524D02*
X000380Y007524D01*
X000380Y007682D02*
X012557Y007682D01*
X012389Y007841D02*
X000380Y007841D01*
X000380Y007999D02*
X012326Y007999D01*
X012326Y008158D02*
X000380Y008158D01*
X000380Y008316D02*
X012384Y008316D01*
X012525Y008475D02*
X000380Y008475D01*
X000380Y008633D02*
X012675Y008633D01*
X013046Y009054D02*
X012156Y009054D01*
X012156Y010581D01*
X012141Y010581D01*
X012503Y010694D02*
X013424Y010694D01*
X013422Y010535D02*
X013467Y010535D01*
X013802Y010715D02*
X013826Y010715D01*
X013450Y010852D02*
X012404Y010852D01*
X012283Y010941D02*
X012283Y010941D01*
X012283Y010941D01*
X012212Y011011D02*
X009914Y011011D01*
X009983Y011039D02*
X010100Y011156D01*
X010163Y011309D01*
X010163Y011475D01*
X010100Y011628D01*
X009983Y011745D01*
X009830Y011809D01*
X009664Y011809D01*
X009511Y011745D01*
X009394Y011628D01*
X009330Y011475D01*
X009330Y011309D01*
X009394Y011156D01*
X009511Y011039D01*
X009664Y010976D01*
X009830Y010976D01*
X009983Y011039D01*
X010105Y011169D02*
X012160Y011169D01*
X012204Y011019D02*
X012204Y011019D01*
X011877Y010852D02*
X000380Y010852D01*
X000380Y010694D02*
X011778Y010694D01*
X011763Y010535D02*
X000380Y010535D01*
X000380Y010377D02*
X011816Y010377D01*
X011876Y010218D02*
X000380Y010218D01*
X000380Y010060D02*
X011876Y010060D01*
X011876Y009901D02*
X000380Y009901D01*
X000380Y009743D02*
X011876Y009743D01*
X011876Y009584D02*
X000380Y009584D01*
X000380Y009426D02*
X011876Y009426D01*
X011876Y009267D02*
X000380Y009267D01*
X000380Y009109D02*
X011876Y009109D01*
X011896Y008950D02*
X000380Y008950D01*
X000380Y008792D02*
X012057Y008792D01*
X013046Y009054D02*
X013046Y009085D01*
X015381Y008792D02*
X015429Y008792D01*
X012671Y010535D02*
X012519Y010535D01*
X012159Y011328D02*
X010163Y011328D01*
X010159Y011486D02*
X012158Y011486D01*
X012157Y011645D02*
X010083Y011645D01*
X009843Y011803D02*
X012155Y011803D01*
X012154Y011962D02*
X000380Y011962D01*
X000380Y012120D02*
X002758Y012120D01*
X002727Y012279D02*
X000380Y012279D01*
X000380Y012437D02*
X002727Y012437D01*
X002727Y012596D02*
X000380Y012596D01*
X000380Y012754D02*
X002454Y012754D01*
X002347Y012913D02*
X000380Y012913D01*
X000380Y013071D02*
X002341Y013071D01*
X002341Y013230D02*
X000380Y013230D01*
X000380Y013388D02*
X001039Y013388D01*
X000909Y013547D02*
X000380Y013547D01*
X000380Y013705D02*
X000852Y013705D01*
X000852Y013864D02*
X000380Y013864D01*
X000380Y014022D02*
X000911Y014022D01*
X001044Y014181D02*
X000380Y014181D01*
X000380Y014339D02*
X001115Y014339D01*
X000930Y014498D02*
X000380Y014498D01*
X000380Y014656D02*
X000863Y014656D01*
X000852Y014815D02*
X000380Y014815D01*
X000380Y014973D02*
X000890Y014973D01*
X000995Y015132D02*
X000380Y015132D01*
X000380Y015290D02*
X002341Y015290D01*
X002341Y015132D02*
X002310Y015132D01*
X002298Y015449D02*
X002341Y015449D01*
X001672Y015449D02*
X001632Y015449D01*
X001632Y015607D02*
X001672Y015607D01*
X001632Y015766D02*
X000380Y015766D01*
X000380Y015924D02*
X000894Y015924D01*
X000884Y015894D02*
X000872Y015820D01*
X000872Y015802D01*
X001632Y015802D01*
X001632Y016262D01*
X001315Y016262D01*
X001240Y016250D01*
X001168Y016227D01*
X001101Y016192D01*
X001040Y016148D01*
X000986Y016095D01*
X000942Y016033D01*
X000908Y015966D01*
X000884Y015894D01*
X000978Y016083D02*
X000380Y016083D01*
X000380Y016241D02*
X001213Y016241D01*
X001028Y016400D02*
X000380Y016400D01*
X000380Y016558D02*
X000904Y016558D01*
X000852Y016717D02*
X000380Y016717D01*
X000380Y016875D02*
X000852Y016875D01*
X000916Y017034D02*
X000380Y017034D01*
X000380Y017192D02*
X001056Y017192D01*
X001087Y017351D02*
X000380Y017351D01*
X000380Y017509D02*
X000924Y017509D01*
X000859Y017668D02*
X000380Y017668D01*
X000380Y017826D02*
X000852Y017826D01*
X000895Y017985D02*
X000380Y017985D01*
X000380Y018143D02*
X001007Y018143D01*
X001205Y018302D02*
X000380Y018302D01*
X000380Y018460D02*
X000967Y018460D01*
X000879Y018619D02*
X000380Y018619D01*
X000380Y018777D02*
X000852Y018777D01*
X000875Y018936D02*
X000380Y018936D01*
X000380Y019094D02*
X000958Y019094D01*
X001182Y019253D02*
X000380Y019253D01*
X000380Y019411D02*
X038956Y019411D01*
X038956Y019253D02*
X002123Y019253D01*
X002347Y019094D02*
X002842Y019094D01*
X003510Y019094D02*
X003842Y019094D01*
X003716Y018936D02*
X003636Y018936D01*
X003176Y018782D02*
X003176Y018778D01*
X003176Y018782D02*
X001652Y018782D01*
X002338Y018460D02*
X002843Y018460D01*
X000380Y019570D02*
X038956Y019570D01*
X028470Y018302D02*
X027968Y018302D01*
X028103Y018460D02*
X028312Y018460D01*
X028248Y018619D02*
X028168Y018619D01*
X018149Y013864D02*
X012696Y013864D01*
X012696Y014022D02*
X017003Y014022D01*
X016919Y014181D02*
X012696Y014181D01*
X012666Y014339D02*
X016901Y014339D01*
X016945Y014498D02*
X016574Y014498D01*
X016732Y014656D02*
X017075Y014656D01*
X016963Y017034D02*
X006838Y017034D01*
X006838Y017192D02*
X016890Y017192D01*
X012682Y015924D02*
X010174Y015924D01*
X010378Y016083D02*
X012478Y016083D01*
X012405Y016241D02*
X010451Y016241D01*
X010467Y016400D02*
X012389Y016400D01*
X012424Y016558D02*
X010432Y016558D01*
X010332Y016717D02*
X012525Y016717D01*
X007654Y014339D02*
X006838Y014339D01*
X006838Y014181D02*
X007624Y014181D01*
X007624Y014022D02*
X006838Y014022D01*
X006838Y013864D02*
X007624Y013864D01*
X006558Y013542D02*
X006479Y013542D01*
X006199Y013547D02*
X004847Y013547D01*
X004808Y013507D02*
X005077Y013776D01*
X005077Y014157D01*
X004808Y014427D01*
X004426Y014427D01*
X004157Y014157D01*
X004157Y013776D01*
X004426Y013507D01*
X004808Y013507D01*
X005006Y013705D02*
X006247Y013705D01*
X006278Y013864D02*
X005077Y013864D01*
X005077Y014022D02*
X006278Y014022D01*
X006278Y014181D02*
X005054Y014181D01*
X004895Y014339D02*
X006278Y014339D01*
X006278Y014498D02*
X004145Y014498D01*
X004145Y014656D02*
X004277Y014656D01*
X004157Y014815D02*
X004145Y014815D01*
X004145Y014973D02*
X004157Y014973D01*
X004145Y015132D02*
X004157Y015132D01*
X004145Y015290D02*
X004290Y015290D01*
X004337Y015449D02*
X004145Y015449D01*
X004145Y015607D02*
X004337Y015607D01*
X004337Y015766D02*
X004145Y015766D01*
X004145Y015924D02*
X004337Y015924D01*
X004296Y016083D02*
X004145Y016083D01*
X003585Y016083D02*
X003318Y016083D01*
X003318Y016241D02*
X003585Y016241D01*
X003585Y016400D02*
X003318Y016400D01*
X003318Y016558D02*
X003585Y016558D01*
X003585Y015924D02*
X003318Y015924D01*
X003318Y015766D02*
X003585Y015766D01*
X003585Y015607D02*
X003318Y015607D01*
X003318Y015449D02*
X003585Y015449D01*
X003585Y015290D02*
X003318Y015290D01*
X003318Y015132D02*
X003585Y015132D01*
X003585Y014973D02*
X003318Y014973D01*
X003318Y014815D02*
X003585Y014815D01*
X003585Y014656D02*
X003318Y014656D01*
X003318Y014498D02*
X003585Y014498D01*
X003585Y014339D02*
X003318Y014339D01*
X003318Y014181D02*
X003585Y014181D01*
X003585Y014022D02*
X003318Y014022D01*
X003318Y013864D02*
X003585Y013864D01*
X003585Y013705D02*
X003318Y013705D01*
X004145Y013705D02*
X004228Y013705D01*
X004157Y013864D02*
X004145Y013864D01*
X004145Y014022D02*
X004157Y014022D01*
X004145Y014181D02*
X004180Y014181D01*
X004145Y014339D02*
X004339Y014339D01*
X004387Y013547D02*
X004145Y013547D01*
X002341Y013388D02*
X002266Y013388D01*
X002341Y014100D02*
X002236Y014206D01*
X002052Y014282D01*
X002236Y014358D01*
X002341Y014463D01*
X002341Y014100D01*
X002341Y014181D02*
X002261Y014181D01*
X002190Y014339D02*
X002341Y014339D01*
X001007Y015449D02*
X000380Y015449D01*
X000380Y015607D02*
X000905Y015607D01*
X001632Y015924D02*
X001672Y015924D01*
X001672Y016083D02*
X001632Y016083D01*
X001632Y016241D02*
X001672Y016241D01*
X002092Y016241D02*
X002341Y016241D01*
X002327Y016083D02*
X002341Y016083D01*
X002341Y016400D02*
X002277Y016400D01*
X002621Y016782D02*
X001652Y016782D01*
X004897Y016083D02*
X005296Y016083D01*
X005137Y016241D02*
X004971Y016241D01*
X009429Y012596D02*
X010924Y012596D01*
X010924Y012437D02*
X009429Y012437D01*
X009429Y012279D02*
X010924Y012279D01*
X010969Y012120D02*
X009398Y012120D01*
X009651Y011803D02*
X000380Y011803D01*
X000380Y011645D02*
X009410Y011645D01*
X009335Y011486D02*
X000380Y011486D01*
X000380Y011328D02*
X009330Y011328D01*
X009388Y011169D02*
X000380Y011169D01*
X000380Y011011D02*
X009579Y011011D01*
X023361Y005176D02*
X023369Y005176D01*
X024361Y005176D02*
X024361Y003802D01*
X023597Y003802D01*
X023597Y003262D01*
X023913Y002927D02*
X024282Y002927D01*
X024137Y003086D02*
X024057Y003086D01*
X024057Y003244D02*
X024137Y003244D01*
X024137Y003403D02*
X024057Y003403D01*
X024597Y003262D02*
X026117Y003262D01*
X026117Y003317D01*
X026577Y003244D02*
X026657Y003244D01*
X026657Y003403D02*
X026577Y003403D01*
X026524Y003561D02*
X026710Y003561D01*
X026869Y003720D02*
X026365Y003720D01*
X027114Y003878D02*
X024641Y003878D01*
X024641Y004037D02*
X027081Y004037D01*
X027081Y004195D02*
X024641Y004195D01*
X024641Y004354D02*
X027081Y004354D01*
X027081Y004512D02*
X026597Y004512D01*
X026765Y004671D02*
X026973Y004671D01*
X026909Y004829D02*
X026829Y004829D01*
X026829Y004988D02*
X026909Y004988D01*
X026909Y005146D02*
X026829Y005146D01*
X026829Y005305D02*
X026909Y005305D01*
X026909Y005463D02*
X026829Y005463D01*
X026790Y005622D02*
X026948Y005622D01*
X027361Y005176D02*
X027361Y004014D01*
X027975Y004014D01*
X027975Y003014D01*
X029617Y003014D01*
X029627Y003014D02*
X029627Y003034D01*
X029257Y002610D02*
X023719Y002610D01*
X023855Y002452D02*
X029337Y002452D01*
X029337Y002293D02*
X023870Y002293D01*
X023871Y002135D02*
X029337Y002135D01*
X029337Y001976D02*
X027369Y001976D01*
X027300Y002045D02*
X026919Y002045D01*
X026649Y001776D01*
X026649Y001395D01*
X026919Y001125D01*
X027300Y001125D01*
X027569Y001395D01*
X027569Y001776D01*
X027300Y002045D01*
X027527Y001818D02*
X028384Y001818D01*
X028226Y001659D02*
X027569Y001659D01*
X027569Y001501D02*
X028157Y001501D01*
X028157Y001342D02*
X027517Y001342D01*
X027358Y001184D02*
X028183Y001184D01*
X029077Y001501D02*
X029157Y001501D01*
X029226Y001659D02*
X029008Y001659D01*
X028850Y001818D02*
X029337Y001818D01*
X030051Y001184D02*
X031196Y001184D01*
X031345Y001025D02*
X029893Y001025D01*
X031967Y001025D02*
X032345Y001025D01*
X032466Y000905D02*
X032847Y000905D01*
X033116Y001174D01*
X033116Y001555D01*
X032847Y001825D01*
X032466Y001825D01*
X032196Y001555D01*
X032196Y001174D01*
X032466Y000905D01*
X032196Y001184D02*
X032116Y001184D01*
X032116Y001342D02*
X032196Y001342D01*
X032196Y001501D02*
X032116Y001501D01*
X032012Y001659D02*
X032300Y001659D01*
X032459Y001818D02*
X031936Y001818D01*
X031936Y001976D02*
X035931Y001976D01*
X035860Y002135D02*
X031936Y002135D01*
X031936Y002293D02*
X035711Y002293D01*
X035711Y002452D02*
X031936Y002452D01*
X031997Y002610D02*
X035711Y002610D01*
X035782Y002769D02*
X032047Y002769D01*
X032047Y002927D02*
X035931Y002927D01*
X035909Y003086D02*
X032047Y003086D01*
X032047Y003244D02*
X035751Y003244D01*
X035711Y003403D02*
X032020Y003403D01*
X031914Y003561D02*
X035711Y003561D01*
X037711Y004671D02*
X037751Y004671D01*
X037871Y004829D02*
X037580Y004829D01*
X037422Y004988D02*
X038030Y004988D01*
X037916Y005146D02*
X037574Y005146D01*
X037711Y005305D02*
X037758Y005305D01*
X037751Y005463D02*
X037711Y005463D01*
X037711Y005622D02*
X037751Y005622D01*
X037822Y005780D02*
X037629Y005780D01*
X037471Y005939D02*
X037981Y005939D01*
X037965Y006097D02*
X037525Y006097D01*
X037684Y006256D02*
X037807Y006256D01*
X037751Y006414D02*
X037711Y006414D01*
X037711Y006573D02*
X037751Y006573D01*
X037773Y006731D02*
X037678Y006731D01*
X037520Y006890D02*
X037932Y006890D01*
X038014Y007048D02*
X037476Y007048D01*
X037635Y007207D02*
X037856Y007207D01*
X037751Y007365D02*
X037711Y007365D01*
X038251Y007524D02*
X038956Y007524D01*
X038956Y007682D02*
X038711Y007682D01*
X038580Y007841D02*
X038956Y007841D01*
X038956Y007999D02*
X037427Y007999D01*
X038211Y007841D02*
X038251Y007841D01*
X038251Y007682D02*
X038211Y007682D01*
X038711Y007365D02*
X038956Y007365D01*
X038956Y007207D02*
X038606Y007207D01*
X038448Y007048D02*
X038956Y007048D01*
X038956Y006890D02*
X038531Y006890D01*
X038689Y006731D02*
X038956Y006731D01*
X038956Y006573D02*
X038711Y006573D01*
X038711Y006414D02*
X038956Y006414D01*
X038956Y006256D02*
X038655Y006256D01*
X038497Y006097D02*
X038956Y006097D01*
X038956Y005939D02*
X038482Y005939D01*
X038640Y005780D02*
X038956Y005780D01*
X038956Y005622D02*
X038711Y005622D01*
X038711Y005463D02*
X038956Y005463D01*
X038956Y005305D02*
X038704Y005305D01*
X038546Y005146D02*
X038956Y005146D01*
X038956Y004988D02*
X038433Y004988D01*
X038591Y004829D02*
X038956Y004829D01*
X038956Y004671D02*
X038711Y004671D01*
X035931Y005939D02*
X032649Y005939D01*
X032647Y006097D02*
X035898Y006097D01*
X035739Y006256D02*
X032547Y006256D01*
X032137Y006414D02*
X035711Y006414D01*
X035711Y006573D02*
X032137Y006573D01*
X032137Y006731D02*
X035745Y006731D01*
X035903Y006890D02*
X032137Y006890D01*
X032137Y007048D02*
X035931Y007048D01*
X035788Y007207D02*
X032137Y007207D01*
X032137Y007365D02*
X035711Y007365D01*
X035711Y007524D02*
X032625Y007524D01*
X032770Y007682D02*
X035711Y007682D01*
X032404Y009426D02*
X031888Y009426D01*
X031888Y009584D02*
X032404Y009584D01*
X032404Y009743D02*
X031850Y009743D01*
X031692Y009901D02*
X032404Y009901D01*
X032404Y010377D02*
X031868Y010377D01*
X031868Y010535D02*
X032404Y010535D01*
X032404Y010694D02*
X031868Y010694D01*
X031712Y010852D02*
X032404Y010852D01*
X031428Y009514D02*
X031369Y009514D01*
X031369Y008176D01*
X031063Y005780D02*
X030680Y005780D01*
X030790Y005622D02*
X030948Y005622D01*
X030909Y005463D02*
X030829Y005463D01*
X030829Y005305D02*
X030909Y005305D01*
X029909Y005305D02*
X029829Y005305D01*
X029829Y005463D02*
X029909Y005463D01*
X029948Y005622D02*
X029790Y005622D01*
X029816Y005780D02*
X029675Y005780D01*
X029063Y005780D02*
X028675Y005780D01*
X028790Y005622D02*
X028948Y005622D01*
X028909Y005463D02*
X028829Y005463D01*
X028829Y005305D02*
X028909Y005305D01*
X028909Y005146D02*
X028829Y005146D01*
X028829Y004988D02*
X028909Y004988D01*
X028909Y004829D02*
X028829Y004829D01*
X028765Y004671D02*
X028973Y004671D01*
X029141Y004512D02*
X028724Y004512D01*
X028542Y004298D02*
X028542Y003762D01*
X030156Y003762D01*
X030141Y004512D02*
X029597Y004512D01*
X029765Y004671D02*
X029973Y004671D01*
X029909Y004829D02*
X029829Y004829D01*
X029829Y004988D02*
X029909Y004988D01*
X029909Y005146D02*
X029829Y005146D01*
X028369Y005176D02*
X028330Y005176D01*
X028330Y004298D01*
X028542Y004298D01*
X027695Y003720D02*
X027365Y003720D01*
X027524Y003561D02*
X027695Y003561D01*
X027695Y003403D02*
X027577Y003403D01*
X027577Y003244D02*
X027695Y003244D01*
X027695Y003086D02*
X027536Y003086D01*
X027377Y002927D02*
X027708Y002927D01*
X027836Y002769D02*
X023303Y002769D01*
X023872Y001976D02*
X025850Y001976D01*
X025691Y001818D02*
X023873Y001818D01*
X023890Y001659D02*
X024304Y001659D01*
X024146Y001501D02*
X024049Y001501D01*
X024057Y001342D02*
X024137Y001342D01*
X024137Y001184D02*
X024057Y001184D01*
X023971Y001025D02*
X024223Y001025D01*
X024382Y000867D02*
X023813Y000867D01*
X023382Y000867D02*
X000380Y000867D01*
X000380Y001025D02*
X008406Y001025D01*
X008325Y001184D02*
X000380Y001184D01*
X000380Y001342D02*
X008322Y001342D01*
X008399Y001501D02*
X000380Y001501D01*
X000380Y001659D02*
X008420Y001659D01*
X008420Y001818D02*
X000380Y001818D01*
X000380Y001976D02*
X008420Y001976D01*
X008420Y002135D02*
X000380Y002135D01*
X000380Y002293D02*
X008420Y002293D01*
X008420Y002452D02*
X000380Y002452D01*
X000380Y002610D02*
X008420Y002610D01*
X020818Y001471D02*
X022169Y001471D01*
X022700Y001025D02*
X023223Y001025D01*
X023137Y001184D02*
X022889Y001184D01*
X024597Y001302D02*
X026109Y001561D01*
X026109Y001585D01*
X026569Y001659D02*
X026649Y001659D01*
X026649Y001501D02*
X026569Y001501D01*
X026517Y001342D02*
X026702Y001342D01*
X026860Y001184D02*
X026358Y001184D01*
X025860Y001184D02*
X025564Y001184D01*
X025025Y001659D02*
X024890Y001659D01*
X026369Y001976D02*
X026850Y001976D01*
X026691Y001818D02*
X026527Y001818D01*
X026377Y002927D02*
X026857Y002927D01*
X026698Y003086D02*
X026536Y003086D01*
X025857Y002927D02*
X024913Y002927D01*
X024949Y003561D02*
X025710Y003561D01*
X025869Y003720D02*
X024790Y003720D01*
X024641Y004512D02*
X025192Y004512D01*
X025200Y004508D02*
X025266Y004486D01*
X025334Y004476D01*
X025369Y004476D01*
X025404Y004476D01*
X025472Y004486D01*
X025538Y004508D01*
X025600Y004539D01*
X025656Y004580D01*
X025705Y004629D01*
X025745Y004685D01*
X025777Y004747D01*
X025798Y004813D01*
X025809Y004881D01*
X025809Y005176D01*
X025369Y005176D01*
X025369Y005176D01*
X025369Y005176D01*
X024929Y005176D01*
X024929Y004881D01*
X024940Y004813D01*
X024961Y004747D01*
X024993Y004685D01*
X025033Y004629D01*
X025082Y004580D01*
X025138Y004539D01*
X025200Y004508D01*
X025369Y004512D02*
X025369Y004512D01*
X025369Y004476D02*
X025369Y005176D01*
X025369Y005176D01*
X025369Y004476D01*
X025546Y004512D02*
X026141Y004512D01*
X025973Y004671D02*
X025735Y004671D01*
X025801Y004829D02*
X025909Y004829D01*
X025909Y004988D02*
X025809Y004988D01*
X025809Y005146D02*
X025909Y005146D01*
X025909Y005305D02*
X025809Y005305D01*
X025809Y005463D02*
X025909Y005463D01*
X025948Y005622D02*
X025768Y005622D01*
X024970Y005622D02*
X024790Y005622D01*
X024829Y005463D02*
X024929Y005463D01*
X024929Y005305D02*
X024829Y005305D01*
X024829Y005146D02*
X024929Y005146D01*
X024929Y004988D02*
X024829Y004988D01*
X024829Y004829D02*
X024937Y004829D01*
X025003Y004671D02*
X024765Y004671D01*
X025369Y004671D02*
X025369Y004671D01*
X025369Y004829D02*
X025369Y004829D01*
X025369Y004988D02*
X025369Y004988D01*
X025369Y005146D02*
X025369Y005146D01*
X024369Y005176D02*
X024361Y005176D01*
X027361Y005176D02*
X027369Y005176D01*
X031627Y003034D02*
X031627Y002991D01*
X032854Y001818D02*
X035831Y001818D01*
X035711Y001659D02*
X033012Y001659D01*
X033116Y001501D02*
X035711Y001501D01*
X035711Y001342D02*
X033116Y001342D01*
X033116Y001184D02*
X035811Y001184D01*
X035970Y001025D02*
X032967Y001025D01*
X036453Y001025D02*
X036970Y001025D01*
X036811Y001184D02*
X036612Y001184D01*
X036711Y001342D02*
X036711Y001342D01*
X037711Y001659D02*
X037751Y001659D01*
X037860Y001818D02*
X037592Y001818D01*
X038211Y001342D02*
X038251Y001342D01*
X038251Y001184D02*
X038211Y001184D01*
X038583Y001184D02*
X038956Y001184D01*
X038956Y001342D02*
X038711Y001342D01*
X035711Y005305D02*
X032829Y005305D01*
X032829Y005463D02*
X035711Y005463D01*
X035711Y005622D02*
X032790Y005622D01*
X032675Y005780D02*
X035794Y005780D01*
D20*
X030054Y006077D03*
X030046Y006581D03*
X021314Y006526D03*
X021322Y006014D03*
X017589Y004920D03*
X016983Y004959D03*
X015109Y007101D03*
X013786Y009542D03*
X012141Y010581D03*
X013802Y010715D03*
X015101Y010888D03*
X015141Y012361D03*
X017897Y013148D03*
X018519Y011794D03*
X008700Y007077D03*
X008700Y001266D03*
X022314Y017219D03*
M02*
