%
M48
M72
T01C0.0236
T02C0.0240
T03C0.0320
T04C0.0400
T05C0.0433
T06C0.0591
T07C0.0630
%
T01
X17897Y13148
X18519Y11794
X15141Y12361
X15101Y10888
X13802Y10715
X12141Y10581
X13786Y9542
X8700Y7077
X15109Y7101
X16983Y4959
X17589Y4920
X21322Y6014
X21314Y6526
X30046Y6581
X30054Y6077
X8700Y1266
X22314Y17219
T02
X29627Y3034
X31627Y3034
T03
X12731Y1683
X13731Y1683
X13231Y2433
X15365Y2447
X16857Y2428
X18239Y2451
X18239Y1451
X16857Y1428
X15365Y1447
X17101Y3617
X18101Y3617
X16046Y4085
X16046Y5085
X16046Y6085
X16046Y7085
X16046Y8085
X16046Y9085
X16046Y10085
X13046Y10085
X13046Y9085
X13046Y8085
X13046Y7085
X13046Y6085
X13046Y5085
X13046Y4085
X19369Y5176
X20369Y5176
X21369Y5176
X22369Y5176
X23369Y5176
X24369Y5176
X25369Y5176
X26369Y5176
X27369Y5176
X28369Y5176
X29369Y5176
X30369Y5176
X31369Y5176
X32369Y5176
X27117Y3317
X26117Y3317
X24597Y3262
X23597Y3262
X26109Y1585
X27109Y1585
X28617Y1400
X29617Y1400
X31656Y1365
X32656Y1365
X24597Y1302
X23597Y1302
X23369Y8176
X24369Y8176
X25369Y8176
X26369Y8176
X27369Y8176
X28369Y8176
X29369Y8176
X30369Y8176
X31369Y8176
X32369Y8176
X31428Y9514
X31428Y10514
X26822Y10057
X25822Y10057
X22369Y8176
X21369Y8176
X20369Y8176
X19369Y8176
X28086Y12869
X29086Y12869
X30034Y12845
X31034Y12845
X32097Y14306
X32097Y15306
X32097Y16306
X32097Y17306
X29097Y17306
X27688Y17369
X27688Y16369
X29097Y16306
X29097Y15306
X29097Y14306
X21771Y14333
X20601Y14306
X20601Y15306
X21771Y15333
X20601Y16306
X20601Y17306
X19554Y18640
X18554Y18640
X16306Y17892
X15306Y17892
X17601Y17306
X17601Y16306
X17601Y15306
X16349Y14924
X15349Y14924
X17601Y14306
X5554Y16475
X4554Y16475
X4617Y14967
X4617Y13967
X4176Y18778
X3176Y18778
X27708Y18715
X28708Y18715
X37188Y18085
X37188Y17085
X37188Y16085
X36885Y11727
X37885Y11727
T04
X1652Y18782
X1652Y17782
X1652Y16782
X1652Y15782
X1652Y14782
X1652Y13782
X6558Y18431
X5558Y18431
X19341Y9912
X20341Y9912
X21341Y9912
X22341Y9912
X23341Y9912
X24341Y9912
X34105Y14286
X34105Y15286
X34105Y16286
X34105Y17286
X36211Y10491
X37211Y10491
X38231Y10510
X38231Y9510
X37211Y9491
X36211Y9491
X36211Y8491
X37211Y8491
X38231Y8510
X38231Y7510
X37211Y7491
X36211Y7491
X36211Y6491
X37211Y6491
X38231Y6510
X38231Y5510
X37211Y5491
X36211Y5491
X36211Y4491
X37211Y4491
X38231Y4510
X38231Y3510
X37211Y3491
X36211Y3491
X36211Y2491
X37211Y2491
X38231Y2510
X38231Y1510
X37211Y1491
X36211Y1491
X22169Y1471
X19609Y1471
X19609Y3251
X22169Y3251
T05
X9747Y11392
T06
X9971Y16376
X12885Y16376
T07
X9747Y3085
M30
