G75*
%MOIN*%
%OFA0B0*%
%FSLAX24Y24*%
%IPPOS*%
%LPD*%
%AMOC8*
5,1,8,0,0,1.08239X$1,22.5*
%
%ADD10C,0.0000*%
%ADD11C,0.0040*%
%ADD12C,0.0030*%
%ADD13R,0.1850X0.1197*%
%ADD14C,0.0060*%
%ADD15C,0.0006*%
%ADD16C,0.0050*%
%ADD17C,0.0020*%
%ADD18C,0.0100*%
%ADD19C,0.0240*%
%ADD20C,0.0160*%
%ADD21R,0.0230X0.0160*%
D10*
X000180Y000550D02*
X000180Y019841D01*
X039156Y019841D01*
X039156Y000550D01*
X000180Y000550D01*
X009432Y003085D02*
X009434Y003120D01*
X009440Y003155D01*
X009450Y003189D01*
X009463Y003222D01*
X009480Y003253D01*
X009501Y003281D01*
X009524Y003308D01*
X009551Y003331D01*
X009579Y003352D01*
X009610Y003369D01*
X009643Y003382D01*
X009677Y003392D01*
X009712Y003398D01*
X009747Y003400D01*
X009782Y003398D01*
X009817Y003392D01*
X009851Y003382D01*
X009884Y003369D01*
X009915Y003352D01*
X009943Y003331D01*
X009970Y003308D01*
X009993Y003281D01*
X010014Y003253D01*
X010031Y003222D01*
X010044Y003189D01*
X010054Y003155D01*
X010060Y003120D01*
X010062Y003085D01*
X010060Y003050D01*
X010054Y003015D01*
X010044Y002981D01*
X010031Y002948D01*
X010014Y002917D01*
X009993Y002889D01*
X009970Y002862D01*
X009943Y002839D01*
X009915Y002818D01*
X009884Y002801D01*
X009851Y002788D01*
X009817Y002778D01*
X009782Y002772D01*
X009747Y002770D01*
X009712Y002772D01*
X009677Y002778D01*
X009643Y002788D01*
X009610Y002801D01*
X009579Y002818D01*
X009551Y002839D01*
X009524Y002862D01*
X009501Y002889D01*
X009480Y002917D01*
X009463Y002948D01*
X009450Y002981D01*
X009440Y003015D01*
X009434Y003050D01*
X009432Y003085D01*
X009530Y011392D02*
X009532Y011421D01*
X009538Y011449D01*
X009547Y011477D01*
X009560Y011503D01*
X009577Y011526D01*
X009596Y011548D01*
X009618Y011567D01*
X009643Y011582D01*
X009669Y011595D01*
X009697Y011603D01*
X009725Y011608D01*
X009754Y011609D01*
X009783Y011606D01*
X009811Y011599D01*
X009838Y011589D01*
X009864Y011575D01*
X009887Y011558D01*
X009908Y011538D01*
X009926Y011515D01*
X009941Y011490D01*
X009952Y011463D01*
X009960Y011435D01*
X009964Y011406D01*
X009964Y011378D01*
X009960Y011349D01*
X009952Y011321D01*
X009941Y011294D01*
X009926Y011269D01*
X009908Y011246D01*
X009887Y011226D01*
X009864Y011209D01*
X009838Y011195D01*
X009811Y011185D01*
X009783Y011178D01*
X009754Y011175D01*
X009725Y011176D01*
X009697Y011181D01*
X009669Y011189D01*
X009643Y011202D01*
X009618Y011217D01*
X009596Y011236D01*
X009577Y011258D01*
X009560Y011281D01*
X009547Y011307D01*
X009538Y011335D01*
X009532Y011363D01*
X009530Y011392D01*
X009676Y016376D02*
X009678Y016410D01*
X009684Y016444D01*
X009694Y016477D01*
X009707Y016508D01*
X009725Y016538D01*
X009745Y016566D01*
X009769Y016591D01*
X009795Y016613D01*
X009823Y016631D01*
X009854Y016647D01*
X009886Y016659D01*
X009920Y016667D01*
X009954Y016671D01*
X009988Y016671D01*
X010022Y016667D01*
X010056Y016659D01*
X010088Y016647D01*
X010118Y016631D01*
X010147Y016613D01*
X010173Y016591D01*
X010197Y016566D01*
X010217Y016538D01*
X010235Y016508D01*
X010248Y016477D01*
X010258Y016444D01*
X010264Y016410D01*
X010266Y016376D01*
X010264Y016342D01*
X010258Y016308D01*
X010248Y016275D01*
X010235Y016244D01*
X010217Y016214D01*
X010197Y016186D01*
X010173Y016161D01*
X010147Y016139D01*
X010119Y016121D01*
X010088Y016105D01*
X010056Y016093D01*
X010022Y016085D01*
X009988Y016081D01*
X009954Y016081D01*
X009920Y016085D01*
X009886Y016093D01*
X009854Y016105D01*
X009823Y016121D01*
X009795Y016139D01*
X009769Y016161D01*
X009745Y016186D01*
X009725Y016214D01*
X009707Y016244D01*
X009694Y016275D01*
X009684Y016308D01*
X009678Y016342D01*
X009676Y016376D01*
X012590Y016376D02*
X012592Y016410D01*
X012598Y016444D01*
X012608Y016477D01*
X012621Y016508D01*
X012639Y016538D01*
X012659Y016566D01*
X012683Y016591D01*
X012709Y016613D01*
X012737Y016631D01*
X012768Y016647D01*
X012800Y016659D01*
X012834Y016667D01*
X012868Y016671D01*
X012902Y016671D01*
X012936Y016667D01*
X012970Y016659D01*
X013002Y016647D01*
X013032Y016631D01*
X013061Y016613D01*
X013087Y016591D01*
X013111Y016566D01*
X013131Y016538D01*
X013149Y016508D01*
X013162Y016477D01*
X013172Y016444D01*
X013178Y016410D01*
X013180Y016376D01*
X013178Y016342D01*
X013172Y016308D01*
X013162Y016275D01*
X013149Y016244D01*
X013131Y016214D01*
X013111Y016186D01*
X013087Y016161D01*
X013061Y016139D01*
X013033Y016121D01*
X013002Y016105D01*
X012970Y016093D01*
X012936Y016085D01*
X012902Y016081D01*
X012868Y016081D01*
X012834Y016085D01*
X012800Y016093D01*
X012768Y016105D01*
X012737Y016121D01*
X012709Y016139D01*
X012683Y016161D01*
X012659Y016186D01*
X012639Y016214D01*
X012621Y016244D01*
X012608Y016275D01*
X012598Y016308D01*
X012592Y016342D01*
X012590Y016376D01*
D11*
X011672Y015321D02*
X011672Y014861D01*
X011519Y014861D02*
X011826Y014861D01*
X011519Y015168D02*
X011672Y015321D01*
X011365Y015245D02*
X011365Y015168D01*
X011288Y015091D01*
X011058Y015091D01*
X011058Y014861D02*
X011288Y014861D01*
X011365Y014938D01*
X011365Y015014D01*
X011288Y015091D01*
X011365Y015245D02*
X011288Y015321D01*
X011058Y015321D01*
X011058Y014861D01*
X018445Y014924D02*
X018598Y014924D01*
X018521Y014924D02*
X018521Y014463D01*
X018445Y014463D02*
X018598Y014463D01*
X018752Y014540D02*
X018828Y014463D01*
X018982Y014463D01*
X019059Y014540D01*
X019212Y014540D02*
X019289Y014463D01*
X019442Y014463D01*
X019519Y014540D01*
X019519Y014617D01*
X019442Y014694D01*
X019366Y014694D01*
X019442Y014694D02*
X019519Y014770D01*
X019519Y014847D01*
X019442Y014924D01*
X019289Y014924D01*
X019212Y014847D01*
X019059Y014847D02*
X018982Y014924D01*
X018828Y014924D01*
X018752Y014847D01*
X018752Y014540D01*
X020111Y011699D02*
X020571Y011392D01*
X020571Y011085D02*
X020111Y011085D01*
X020111Y010932D02*
X020111Y011239D01*
X020111Y011392D02*
X020571Y011699D01*
X021111Y011699D02*
X021571Y011392D01*
X021571Y011239D02*
X021418Y011085D01*
X021418Y011162D02*
X021418Y010932D01*
X021571Y010932D02*
X021111Y010932D01*
X021111Y011162D01*
X021188Y011239D01*
X021341Y011239D01*
X021418Y011162D01*
X021111Y011392D02*
X021571Y011699D01*
X024668Y014640D02*
X024668Y014871D01*
X024822Y015024D01*
X024822Y015101D01*
X024975Y015024D02*
X025052Y015101D01*
X025206Y015101D01*
X025282Y015024D01*
X025282Y014947D01*
X024975Y014640D01*
X025282Y014640D01*
X024668Y014871D02*
X024515Y015024D01*
X024515Y015101D01*
X030027Y016979D02*
X030180Y016979D01*
X030104Y016979D02*
X030104Y017439D01*
X030180Y017439D02*
X030027Y017439D01*
X030334Y017363D02*
X030334Y017056D01*
X030410Y016979D01*
X030564Y016979D01*
X030641Y017056D01*
X030794Y016979D02*
X031101Y017286D01*
X031101Y017363D01*
X031024Y017439D01*
X030871Y017439D01*
X030794Y017363D01*
X030641Y017363D02*
X030564Y017439D01*
X030410Y017439D01*
X030334Y017363D01*
X030794Y016979D02*
X031101Y016979D01*
X014951Y010233D02*
X014644Y010233D01*
X014875Y010463D01*
X014875Y010003D01*
X014491Y010079D02*
X014414Y010003D01*
X014261Y010003D01*
X014184Y010079D01*
X014184Y010386D01*
X014261Y010463D01*
X014414Y010463D01*
X014491Y010386D01*
X014031Y010463D02*
X013877Y010463D01*
X013954Y010463D02*
X013954Y010003D01*
X013877Y010003D02*
X014031Y010003D01*
X019101Y007144D02*
X019562Y007144D01*
X019562Y007297D02*
X019562Y006990D01*
X019485Y006837D02*
X019562Y006760D01*
X019562Y006607D01*
X019485Y006530D01*
X019178Y006530D01*
X019101Y006607D01*
X019101Y006760D01*
X019178Y006837D01*
X019255Y006990D02*
X019101Y007144D01*
X019101Y006377D02*
X019101Y006223D01*
X019101Y006300D02*
X019562Y006300D01*
X019562Y006223D02*
X019562Y006377D01*
X030294Y003282D02*
X030294Y003205D01*
X030448Y003052D01*
X030448Y002822D01*
X030448Y003052D02*
X030601Y003205D01*
X030601Y003282D01*
X030755Y003129D02*
X030908Y003282D01*
X030908Y002822D01*
X030755Y002822D02*
X031062Y002822D01*
X005837Y006451D02*
X005530Y006451D01*
X005684Y006451D02*
X005684Y006912D01*
X005530Y006758D01*
X005377Y006835D02*
X005377Y006528D01*
X005300Y006451D01*
X005070Y006451D01*
X005070Y006912D01*
X005300Y006912D01*
X005377Y006835D01*
X004916Y006835D02*
X004840Y006912D01*
X004686Y006912D01*
X004609Y006835D01*
X004609Y006758D01*
X004686Y006682D01*
X004840Y006682D01*
X004916Y006605D01*
X004916Y006528D01*
X004840Y006451D01*
X004686Y006451D01*
X004609Y006528D01*
X003713Y013562D02*
X003483Y013562D01*
X003483Y014022D01*
X003713Y014022D01*
X003790Y013945D01*
X003790Y013638D01*
X003713Y013562D01*
X003330Y013562D02*
X003330Y014022D01*
X003023Y014022D02*
X003330Y013562D01*
X003023Y013562D02*
X003023Y014022D01*
X002869Y013945D02*
X002792Y014022D01*
X002639Y014022D01*
X002562Y013945D01*
X002562Y013638D01*
X002639Y013562D01*
X002792Y013562D01*
X002869Y013638D01*
X002869Y013792D01*
X002716Y013792D01*
X002716Y015530D02*
X002869Y015684D01*
X002869Y015991D01*
X003023Y015914D02*
X003023Y015607D01*
X003099Y015530D01*
X003253Y015530D01*
X003330Y015607D01*
X003483Y015607D02*
X003560Y015530D01*
X003713Y015530D01*
X003790Y015607D01*
X003483Y015607D02*
X003483Y015914D01*
X003560Y015991D01*
X003713Y015991D01*
X003790Y015914D01*
X003330Y015914D02*
X003253Y015991D01*
X003099Y015991D01*
X003023Y015914D01*
X002562Y015991D02*
X002562Y015684D01*
X002716Y015530D01*
X002672Y016552D02*
X002672Y017012D01*
X002903Y017012D01*
X002979Y016936D01*
X002979Y016782D01*
X002903Y016705D01*
X002672Y016705D01*
X002826Y016705D02*
X002979Y016552D01*
X003133Y016552D02*
X003440Y017012D01*
X003133Y017012D02*
X003440Y016552D01*
X003440Y017552D02*
X003133Y018012D01*
X002979Y018012D02*
X002672Y018012D01*
X002826Y018012D02*
X002826Y017552D01*
X003133Y017552D02*
X003440Y018012D01*
D12*
X005148Y017452D02*
X005148Y017259D01*
X005196Y017210D01*
X005293Y017210D01*
X005341Y017259D01*
X005341Y017355D01*
X005245Y017355D01*
X005341Y017452D02*
X005293Y017501D01*
X005196Y017501D01*
X005148Y017452D01*
X005442Y017501D02*
X005636Y017210D01*
X005636Y017501D01*
X005737Y017501D02*
X005882Y017501D01*
X005931Y017452D01*
X005931Y017259D01*
X005882Y017210D01*
X005737Y017210D01*
X005737Y017501D01*
X005442Y017501D02*
X005442Y017210D01*
X006130Y017358D02*
X006323Y017358D01*
X006227Y017455D02*
X006227Y017261D01*
X006425Y017261D02*
X006473Y017213D01*
X006570Y017213D01*
X006618Y017261D01*
X006618Y017310D01*
X006570Y017358D01*
X006521Y017358D01*
X006570Y017358D02*
X006618Y017407D01*
X006618Y017455D01*
X006570Y017503D01*
X006473Y017503D01*
X006425Y017455D01*
X006719Y017407D02*
X006816Y017213D01*
X006913Y017407D01*
X005395Y015956D02*
X005202Y015763D01*
X005250Y015714D01*
X005347Y015714D01*
X005395Y015763D01*
X005395Y015956D01*
X005347Y016004D01*
X005250Y016004D01*
X005202Y015956D01*
X005202Y015763D01*
X005100Y015714D02*
X004907Y015714D01*
X005100Y015908D01*
X005100Y015956D01*
X005052Y016004D01*
X004955Y016004D01*
X004907Y015956D01*
X004806Y015956D02*
X004757Y016004D01*
X004661Y016004D01*
X004612Y015956D01*
X004806Y015956D02*
X004806Y015908D01*
X004612Y015714D01*
X004806Y015714D01*
X004815Y013532D02*
X004718Y013435D01*
X004815Y013532D02*
X004815Y013242D01*
X004911Y013242D02*
X004718Y013242D01*
X004617Y013242D02*
X004423Y013242D01*
X004423Y013532D01*
X004098Y019376D02*
X004098Y019618D01*
X004146Y019666D01*
X004146Y019521D02*
X004050Y019521D01*
X003949Y019569D02*
X003949Y019376D01*
X003803Y019376D01*
X003755Y019424D01*
X003755Y019569D01*
X003654Y019376D02*
X003460Y019376D01*
X003557Y019376D02*
X003557Y019666D01*
X003460Y019569D01*
X003361Y019424D02*
X003361Y019376D01*
X003313Y019376D01*
X003313Y019424D01*
X003361Y019424D01*
X015770Y018687D02*
X015867Y018784D01*
X015867Y018494D01*
X015963Y018494D02*
X015770Y018494D01*
X016064Y018542D02*
X016258Y018736D01*
X016258Y018542D01*
X016210Y018494D01*
X016113Y018494D01*
X016064Y018542D01*
X016064Y018736D01*
X016113Y018784D01*
X016210Y018784D01*
X016258Y018736D01*
X016359Y018784D02*
X016359Y018494D01*
X016359Y018590D02*
X016553Y018784D01*
X016407Y018639D02*
X016553Y018494D01*
X018667Y019376D02*
X018716Y019376D01*
X018716Y019424D01*
X018667Y019424D01*
X018667Y019376D01*
X018815Y019376D02*
X019008Y019376D01*
X018912Y019376D02*
X018912Y019666D01*
X018815Y019569D01*
X019109Y019569D02*
X019109Y019424D01*
X019158Y019376D01*
X019303Y019376D01*
X019303Y019569D01*
X019404Y019521D02*
X019501Y019521D01*
X019452Y019618D02*
X019501Y019666D01*
X019452Y019618D02*
X019452Y019376D01*
X016639Y015784D02*
X016446Y015590D01*
X016494Y015639D02*
X016639Y015494D01*
X016446Y015494D02*
X016446Y015784D01*
X016345Y015736D02*
X016151Y015542D01*
X016199Y015494D01*
X016296Y015494D01*
X016345Y015542D01*
X016345Y015736D01*
X016296Y015784D01*
X016199Y015784D01*
X016151Y015736D01*
X016151Y015542D01*
X016050Y015494D02*
X015856Y015494D01*
X015953Y015494D02*
X015953Y015784D01*
X015856Y015687D01*
X025809Y010841D02*
X025809Y010793D01*
X025858Y010793D01*
X025858Y010841D01*
X025809Y010841D01*
X025956Y010793D02*
X026150Y010793D01*
X026053Y010793D02*
X026053Y011083D01*
X025956Y010986D01*
X026251Y010986D02*
X026251Y010841D01*
X026300Y010793D01*
X026445Y010793D01*
X026445Y010986D01*
X026546Y010938D02*
X026643Y010938D01*
X026594Y011035D02*
X026594Y010793D01*
X026594Y011035D02*
X026643Y011083D01*
X028297Y011990D02*
X028491Y011990D01*
X028394Y011990D02*
X028394Y012280D01*
X028297Y012183D01*
X028592Y012232D02*
X028640Y012280D01*
X028737Y012280D01*
X028786Y012232D01*
X028592Y012038D01*
X028640Y011990D01*
X028737Y011990D01*
X028786Y012038D01*
X028786Y012232D01*
X028887Y012280D02*
X028887Y011990D01*
X028887Y012087D02*
X029032Y011990D01*
X028887Y012087D02*
X029032Y012183D01*
X028592Y012232D02*
X028592Y012038D01*
X030242Y012045D02*
X030436Y012238D01*
X030436Y012287D01*
X030387Y012335D01*
X030291Y012335D01*
X030242Y012287D01*
X030242Y012045D02*
X030436Y012045D01*
X030537Y012045D02*
X030537Y012335D01*
X030682Y012238D02*
X030537Y012142D01*
X030682Y012045D01*
X032137Y010449D02*
X032234Y010304D01*
X032330Y010449D01*
X032330Y010304D02*
X032040Y010304D01*
X032088Y010202D02*
X032282Y010009D01*
X032330Y010057D01*
X032330Y010154D01*
X032282Y010202D01*
X032088Y010202D01*
X032040Y010154D01*
X032040Y010057D01*
X032088Y010009D01*
X032282Y010009D01*
X032330Y009908D02*
X032330Y009714D01*
X032330Y009811D02*
X032040Y009811D01*
X032137Y009714D01*
X035142Y010488D02*
X035239Y010391D01*
X035142Y010488D02*
X035433Y010488D01*
X035433Y010391D02*
X035433Y010585D01*
X036954Y012376D02*
X036954Y012666D01*
X036809Y012521D01*
X037003Y012521D01*
X037104Y012424D02*
X037152Y012424D01*
X037152Y012376D01*
X037104Y012376D01*
X037104Y012424D01*
X037251Y012424D02*
X037251Y012376D01*
X037251Y012424D02*
X037445Y012618D01*
X037445Y012666D01*
X037251Y012666D01*
X037546Y012666D02*
X037546Y012376D01*
X037546Y012472D02*
X037691Y012376D01*
X037546Y012472D02*
X037691Y012569D01*
X036728Y014116D02*
X036728Y014406D01*
X036534Y014406D02*
X036534Y014116D01*
X036433Y014116D02*
X036433Y014406D01*
X036534Y014406D02*
X036728Y014116D01*
X036433Y014116D02*
X036336Y014213D01*
X036240Y014116D01*
X036240Y014406D01*
X036139Y014358D02*
X036139Y014164D01*
X036090Y014116D01*
X035945Y014116D01*
X035945Y014406D01*
X036090Y014406D01*
X036139Y014358D01*
X035844Y014406D02*
X035650Y014406D01*
X035747Y014406D02*
X035747Y014116D01*
X035549Y014116D02*
X035549Y014406D01*
X035549Y014261D02*
X035356Y014261D01*
X035255Y014213D02*
X035206Y014261D01*
X035110Y014261D01*
X035061Y014309D01*
X035061Y014358D01*
X035110Y014406D01*
X035206Y014406D01*
X035255Y014358D01*
X035356Y014406D02*
X035356Y014116D01*
X035255Y014164D02*
X035206Y014116D01*
X035110Y014116D01*
X035061Y014164D01*
X035255Y014164D02*
X035255Y014213D01*
X038064Y016108D02*
X038064Y016253D01*
X038112Y016301D01*
X038306Y016301D01*
X038354Y016253D01*
X038354Y016108D01*
X038064Y016108D01*
X038112Y016403D02*
X038160Y016403D01*
X038209Y016451D01*
X038209Y016548D01*
X038257Y016596D01*
X038306Y016596D01*
X038354Y016548D01*
X038354Y016451D01*
X038306Y016403D01*
X038112Y016403D02*
X038064Y016451D01*
X038064Y016548D01*
X038112Y016596D01*
X038160Y016697D02*
X038064Y016794D01*
X038354Y016794D01*
X038354Y016697D02*
X038354Y016891D01*
X038306Y016992D02*
X038257Y016992D01*
X038209Y017040D01*
X038209Y017137D01*
X038257Y017185D01*
X038306Y017185D01*
X038354Y017137D01*
X038354Y017040D01*
X038306Y016992D01*
X038209Y017040D02*
X038160Y016992D01*
X038112Y016992D01*
X038064Y017040D01*
X038064Y017137D01*
X038112Y017185D01*
X038160Y017185D01*
X038209Y017137D01*
X038209Y017287D02*
X038209Y017432D01*
X038257Y017480D01*
X038306Y017480D01*
X038354Y017432D01*
X038354Y017287D01*
X038064Y017287D01*
X038064Y017432D01*
X038112Y017480D01*
X038160Y017480D01*
X038209Y017432D01*
X038112Y017581D02*
X038064Y017630D01*
X038064Y017726D01*
X038112Y017775D01*
X038160Y017775D01*
X038354Y017581D01*
X038354Y017775D01*
X038306Y017876D02*
X038112Y017876D01*
X038064Y017924D01*
X038064Y018021D01*
X038112Y018069D01*
X038306Y017876D01*
X038354Y017924D01*
X038354Y018021D01*
X038306Y018069D01*
X038112Y018069D01*
X028903Y019481D02*
X028807Y019481D01*
X028855Y019578D02*
X028903Y019627D01*
X028855Y019578D02*
X028855Y019336D01*
X028706Y019336D02*
X028706Y019530D01*
X028706Y019336D02*
X028560Y019336D01*
X028512Y019385D01*
X028512Y019530D01*
X028411Y019578D02*
X028217Y019385D01*
X028266Y019336D01*
X028362Y019336D01*
X028411Y019385D01*
X028411Y019578D01*
X028362Y019627D01*
X028266Y019627D01*
X028217Y019578D01*
X028217Y019385D01*
X028116Y019385D02*
X028068Y019336D01*
X027971Y019336D01*
X027923Y019385D01*
X028116Y019578D01*
X028116Y019385D01*
X028116Y019578D02*
X028068Y019627D01*
X027971Y019627D01*
X027923Y019578D01*
X027923Y019385D01*
X027822Y019336D02*
X027628Y019336D01*
X027725Y019336D02*
X027725Y019627D01*
X027628Y019530D01*
X026815Y017248D02*
X026815Y017152D01*
X026718Y017200D02*
X026960Y017200D01*
X026960Y017050D02*
X026767Y017050D01*
X026718Y017200D02*
X026670Y017248D01*
X026960Y017050D02*
X026960Y016905D01*
X026912Y016857D01*
X026767Y016857D01*
X026960Y016756D02*
X026960Y016562D01*
X026960Y016659D02*
X026670Y016659D01*
X026767Y016562D01*
X026912Y016463D02*
X026960Y016463D01*
X026960Y016415D01*
X026912Y016415D01*
X026912Y016463D01*
X017855Y004493D02*
X017855Y004202D01*
X017855Y004299D02*
X018000Y004202D01*
X017855Y004299D02*
X018000Y004396D01*
X017754Y004444D02*
X017754Y004251D01*
X017706Y004202D01*
X017609Y004202D01*
X017561Y004251D01*
X017754Y004444D01*
X017706Y004493D01*
X017609Y004493D01*
X017561Y004444D01*
X017561Y004251D01*
X017459Y004202D02*
X017266Y004202D01*
X017363Y004202D02*
X017363Y004493D01*
X017266Y004396D01*
X018948Y002748D02*
X019045Y002603D01*
X019141Y002748D01*
X019141Y002603D02*
X018851Y002603D01*
X018900Y002502D02*
X018851Y002453D01*
X018851Y002356D01*
X018900Y002308D01*
X019093Y002308D01*
X018900Y002502D01*
X019093Y002502D01*
X019141Y002453D01*
X019141Y002356D01*
X019093Y002308D01*
X019141Y002207D02*
X019141Y002013D01*
X019141Y002110D02*
X018851Y002110D01*
X018948Y002013D01*
X017685Y002031D02*
X017685Y001935D01*
X017636Y001886D01*
X017443Y002080D01*
X017636Y002080D01*
X017685Y002031D01*
X017636Y001886D02*
X017443Y001886D01*
X017394Y001935D01*
X017394Y002031D01*
X017443Y002080D01*
X017491Y002181D02*
X017636Y002181D01*
X017685Y002229D01*
X017685Y002374D01*
X017491Y002374D01*
X017540Y002475D02*
X017540Y002572D01*
X017443Y002524D02*
X017394Y002572D01*
X017443Y002524D02*
X017685Y002524D01*
X016220Y002310D02*
X015978Y002310D01*
X015930Y002359D01*
X016075Y002359D02*
X016075Y002262D01*
X016027Y002161D02*
X016220Y002161D01*
X016220Y002016D01*
X016172Y001967D01*
X016027Y001967D01*
X016220Y001866D02*
X016220Y001673D01*
X016220Y001769D02*
X015930Y001769D01*
X016027Y001673D01*
X016172Y001574D02*
X016220Y001574D01*
X016220Y001525D01*
X016172Y001525D01*
X016172Y001574D01*
X017394Y001640D02*
X017443Y001592D01*
X017636Y001592D01*
X017443Y001785D01*
X017636Y001785D01*
X017685Y001737D01*
X017685Y001640D01*
X017636Y001592D01*
X017685Y001490D02*
X017685Y001297D01*
X017685Y001394D02*
X017394Y001394D01*
X017491Y001297D01*
X017394Y001640D02*
X017394Y001737D01*
X017443Y001785D01*
X022316Y002139D02*
X022316Y002285D01*
X022364Y002333D01*
X022412Y002333D01*
X022461Y002285D01*
X022461Y002139D01*
X022606Y002139D02*
X022606Y002285D01*
X022558Y002333D01*
X022509Y002333D01*
X022461Y002285D01*
X022412Y002434D02*
X022316Y002531D01*
X022606Y002531D01*
X022606Y002434D02*
X022606Y002628D01*
X022606Y002139D02*
X022316Y002139D01*
X024754Y002494D02*
X024948Y002494D01*
X025049Y002494D02*
X025242Y002687D01*
X025242Y002736D01*
X025194Y002784D01*
X025097Y002784D01*
X025049Y002736D01*
X025049Y002494D02*
X025242Y002494D01*
X024754Y002494D02*
X024754Y002784D01*
X026313Y002688D02*
X026361Y002737D01*
X026458Y002737D01*
X026507Y002688D01*
X026507Y002640D01*
X026313Y002446D01*
X026507Y002446D01*
X026608Y002446D02*
X026801Y002640D01*
X026801Y002688D01*
X026753Y002737D01*
X026656Y002737D01*
X026608Y002688D01*
X026608Y002446D02*
X026801Y002446D01*
X026902Y002495D02*
X027096Y002688D01*
X027096Y002495D01*
X027048Y002446D01*
X026951Y002446D01*
X026902Y002495D01*
X026902Y002688D01*
X026951Y002737D01*
X027048Y002737D01*
X027096Y002688D01*
X027612Y002255D02*
X027661Y002304D01*
X027757Y002304D01*
X027806Y002255D01*
X027806Y002207D01*
X027612Y002013D01*
X027806Y002013D01*
X027907Y002013D02*
X028100Y002207D01*
X028100Y002255D01*
X028052Y002304D01*
X027955Y002304D01*
X027907Y002255D01*
X027907Y002013D02*
X028100Y002013D01*
X028202Y002013D02*
X028347Y002013D01*
X028395Y002062D01*
X028395Y002159D01*
X028347Y002207D01*
X028202Y002207D01*
X028202Y001917D01*
X028545Y002013D02*
X028545Y002255D01*
X028593Y002304D01*
X028593Y002159D02*
X028496Y002159D01*
X026954Y000964D02*
X026906Y001012D01*
X026809Y001012D01*
X026761Y000964D01*
X026761Y000770D01*
X026954Y000964D01*
X026954Y000770D01*
X026906Y000722D01*
X026809Y000722D01*
X026761Y000770D01*
X026660Y000722D02*
X026466Y000722D01*
X026660Y000916D01*
X026660Y000964D01*
X026611Y001012D01*
X026514Y001012D01*
X026466Y000964D01*
X026365Y000964D02*
X026317Y001012D01*
X026220Y001012D01*
X026171Y000964D01*
X026365Y000964D02*
X026365Y000916D01*
X026171Y000722D01*
X026365Y000722D01*
X025226Y000802D02*
X025178Y000754D01*
X025081Y000754D01*
X025033Y000802D01*
X024932Y000754D02*
X024738Y000754D01*
X024738Y001044D01*
X025033Y000995D02*
X025081Y001044D01*
X025178Y001044D01*
X025226Y000995D01*
X025226Y000947D01*
X025178Y000899D01*
X025226Y000850D01*
X025226Y000802D01*
X025178Y000899D02*
X025130Y000899D01*
X032715Y001982D02*
X032908Y002175D01*
X032908Y002224D01*
X032860Y002272D01*
X032763Y002272D01*
X032715Y002224D01*
X033009Y002224D02*
X033058Y002272D01*
X033154Y002272D01*
X033203Y002224D01*
X033203Y002175D01*
X033009Y001982D01*
X033203Y001982D01*
X033304Y001982D02*
X033449Y001982D01*
X033497Y002030D01*
X033497Y002127D01*
X033449Y002175D01*
X033304Y002175D01*
X033304Y001885D01*
X033647Y001982D02*
X033647Y002224D01*
X033695Y002272D01*
X033695Y002127D02*
X033599Y002127D01*
X032908Y001982D02*
X032715Y001982D01*
X035198Y001634D02*
X035198Y001538D01*
X035246Y001489D01*
X035439Y001489D01*
X035246Y001683D01*
X035439Y001683D01*
X035488Y001634D01*
X035488Y001538D01*
X035439Y001489D01*
X035488Y001388D02*
X035488Y001195D01*
X035488Y001291D02*
X035198Y001291D01*
X035294Y001195D01*
X035817Y000804D02*
X035865Y000756D01*
X035962Y000756D01*
X036011Y000707D01*
X035962Y000659D01*
X035817Y000659D01*
X035817Y000804D02*
X035865Y000853D01*
X036011Y000853D01*
X036112Y000853D02*
X036160Y000853D01*
X036160Y000659D01*
X036112Y000659D02*
X036208Y000659D01*
X036308Y000707D02*
X036357Y000659D01*
X036502Y000659D01*
X036502Y000611D02*
X036502Y000853D01*
X036357Y000853D01*
X036308Y000804D01*
X036308Y000707D01*
X036405Y000562D02*
X036453Y000562D01*
X036502Y000611D01*
X036849Y000723D02*
X036849Y000820D01*
X036897Y000868D01*
X037042Y000868D01*
X037042Y000626D01*
X036994Y000578D01*
X036945Y000578D01*
X036897Y000675D02*
X037042Y000675D01*
X037143Y000675D02*
X037143Y000868D01*
X037288Y000868D01*
X037337Y000820D01*
X037337Y000675D01*
X037438Y000723D02*
X037438Y000820D01*
X037486Y000868D01*
X037631Y000868D01*
X037631Y000965D02*
X037631Y000675D01*
X037486Y000675D01*
X037438Y000723D01*
X037864Y000781D02*
X038058Y000781D01*
X038159Y000781D02*
X038256Y000829D01*
X038304Y000829D01*
X038352Y000781D01*
X038352Y000684D01*
X038304Y000635D01*
X038207Y000635D01*
X038159Y000684D01*
X038159Y000781D02*
X038159Y000926D01*
X038352Y000926D01*
X038454Y000829D02*
X038550Y000635D01*
X038647Y000829D01*
X037961Y000877D02*
X037961Y000684D01*
X036897Y000675D02*
X036849Y000723D01*
X036160Y000949D02*
X036160Y000998D01*
X035246Y001683D02*
X035198Y001634D01*
X012116Y001430D02*
X011922Y001430D01*
X011922Y001285D01*
X012019Y001333D01*
X012067Y001333D01*
X012116Y001285D01*
X012116Y001188D01*
X012067Y001139D01*
X011971Y001139D01*
X011922Y001188D01*
X011821Y001188D02*
X011773Y001139D01*
X011676Y001139D01*
X011628Y001188D01*
X011628Y001381D01*
X011676Y001430D01*
X011773Y001430D01*
X011821Y001381D01*
X011528Y001430D02*
X011431Y001430D01*
X011480Y001430D02*
X011480Y001139D01*
X011528Y001139D02*
X011431Y001139D01*
D13*
X020790Y011369D03*
D14*
X018569Y009026D02*
X033169Y009026D01*
X033169Y004326D01*
X018569Y004326D01*
X018569Y006426D01*
X018599Y006428D01*
X018629Y006433D01*
X018658Y006442D01*
X018685Y006455D01*
X018711Y006470D01*
X018735Y006489D01*
X018756Y006510D01*
X018775Y006534D01*
X018790Y006560D01*
X018803Y006587D01*
X018812Y006616D01*
X018817Y006646D01*
X018819Y006676D01*
X018817Y006706D01*
X018812Y006736D01*
X018803Y006765D01*
X018790Y006792D01*
X018775Y006818D01*
X018756Y006842D01*
X018735Y006863D01*
X018711Y006882D01*
X018685Y006897D01*
X018658Y006910D01*
X018629Y006919D01*
X018599Y006924D01*
X018569Y006926D01*
X018569Y009026D01*
X015696Y010985D02*
X014946Y010985D01*
X014944Y010946D01*
X014938Y010907D01*
X014929Y010869D01*
X014916Y010832D01*
X014899Y010796D01*
X014879Y010763D01*
X014855Y010731D01*
X014829Y010702D01*
X014800Y010676D01*
X014768Y010652D01*
X014735Y010632D01*
X014699Y010615D01*
X014662Y010602D01*
X014624Y010593D01*
X014585Y010587D01*
X014546Y010585D01*
X014507Y010587D01*
X014468Y010593D01*
X014430Y010602D01*
X014393Y010615D01*
X014357Y010632D01*
X014324Y010652D01*
X014292Y010676D01*
X014263Y010702D01*
X014237Y010731D01*
X014213Y010763D01*
X014193Y010796D01*
X014176Y010832D01*
X014163Y010869D01*
X014154Y010907D01*
X014148Y010946D01*
X014146Y010985D01*
X013396Y010985D01*
X013396Y003185D01*
X015696Y003185D01*
X015696Y010985D01*
X017951Y013806D02*
X018701Y013806D01*
X018703Y013845D01*
X018709Y013884D01*
X018718Y013922D01*
X018731Y013959D01*
X018748Y013995D01*
X018768Y014028D01*
X018792Y014060D01*
X018818Y014089D01*
X018847Y014115D01*
X018879Y014139D01*
X018912Y014159D01*
X018948Y014176D01*
X018985Y014189D01*
X019023Y014198D01*
X019062Y014204D01*
X019101Y014206D01*
X019140Y014204D01*
X019179Y014198D01*
X019217Y014189D01*
X019254Y014176D01*
X019290Y014159D01*
X019323Y014139D01*
X019355Y014115D01*
X019384Y014089D01*
X019410Y014060D01*
X019434Y014028D01*
X019454Y013995D01*
X019471Y013959D01*
X019484Y013922D01*
X019493Y013884D01*
X019499Y013845D01*
X019501Y013806D01*
X020251Y013806D01*
X020251Y017806D01*
X017951Y017806D01*
X017951Y013806D01*
X014849Y014924D02*
X014851Y014968D01*
X014857Y015012D01*
X014867Y015055D01*
X014880Y015097D01*
X014897Y015138D01*
X014918Y015177D01*
X014942Y015214D01*
X014969Y015249D01*
X014999Y015281D01*
X015032Y015311D01*
X015068Y015337D01*
X015105Y015361D01*
X015145Y015380D01*
X015186Y015397D01*
X015229Y015409D01*
X015272Y015418D01*
X015316Y015423D01*
X015360Y015424D01*
X015404Y015421D01*
X015448Y015414D01*
X015491Y015403D01*
X015533Y015389D01*
X015573Y015371D01*
X015612Y015349D01*
X015648Y015325D01*
X015682Y015297D01*
X015714Y015266D01*
X015743Y015232D01*
X015769Y015196D01*
X015791Y015158D01*
X015810Y015118D01*
X015825Y015076D01*
X015837Y015034D01*
X015845Y014990D01*
X015849Y014946D01*
X015849Y014902D01*
X015845Y014858D01*
X015837Y014814D01*
X015825Y014772D01*
X015810Y014730D01*
X015791Y014690D01*
X015769Y014652D01*
X015743Y014616D01*
X015714Y014582D01*
X015682Y014551D01*
X015648Y014523D01*
X015612Y014499D01*
X015573Y014477D01*
X015533Y014459D01*
X015491Y014445D01*
X015448Y014434D01*
X015404Y014427D01*
X015360Y014424D01*
X015316Y014425D01*
X015272Y014430D01*
X015229Y014439D01*
X015186Y014451D01*
X015145Y014468D01*
X015105Y014487D01*
X015068Y014511D01*
X015032Y014537D01*
X014999Y014567D01*
X014969Y014599D01*
X014942Y014634D01*
X014918Y014671D01*
X014897Y014710D01*
X014880Y014751D01*
X014867Y014793D01*
X014857Y014836D01*
X014851Y014880D01*
X014849Y014924D01*
X014806Y017892D02*
X014808Y017936D01*
X014814Y017980D01*
X014824Y018023D01*
X014837Y018065D01*
X014854Y018106D01*
X014875Y018145D01*
X014899Y018182D01*
X014926Y018217D01*
X014956Y018249D01*
X014989Y018279D01*
X015025Y018305D01*
X015062Y018329D01*
X015102Y018348D01*
X015143Y018365D01*
X015186Y018377D01*
X015229Y018386D01*
X015273Y018391D01*
X015317Y018392D01*
X015361Y018389D01*
X015405Y018382D01*
X015448Y018371D01*
X015490Y018357D01*
X015530Y018339D01*
X015569Y018317D01*
X015605Y018293D01*
X015639Y018265D01*
X015671Y018234D01*
X015700Y018200D01*
X015726Y018164D01*
X015748Y018126D01*
X015767Y018086D01*
X015782Y018044D01*
X015794Y018002D01*
X015802Y017958D01*
X015806Y017914D01*
X015806Y017870D01*
X015802Y017826D01*
X015794Y017782D01*
X015782Y017740D01*
X015767Y017698D01*
X015748Y017658D01*
X015726Y017620D01*
X015700Y017584D01*
X015671Y017550D01*
X015639Y017519D01*
X015605Y017491D01*
X015569Y017467D01*
X015530Y017445D01*
X015490Y017427D01*
X015448Y017413D01*
X015405Y017402D01*
X015361Y017395D01*
X015317Y017392D01*
X015273Y017393D01*
X015229Y017398D01*
X015186Y017407D01*
X015143Y017419D01*
X015102Y017436D01*
X015062Y017455D01*
X015025Y017479D01*
X014989Y017505D01*
X014956Y017535D01*
X014926Y017567D01*
X014899Y017602D01*
X014875Y017639D01*
X014854Y017678D01*
X014837Y017719D01*
X014824Y017761D01*
X014814Y017804D01*
X014808Y017848D01*
X014806Y017892D01*
X018104Y018240D02*
X018104Y019040D01*
X018106Y019057D01*
X018110Y019074D01*
X018117Y019090D01*
X018127Y019104D01*
X018140Y019117D01*
X018154Y019127D01*
X018170Y019134D01*
X018187Y019138D01*
X018204Y019140D01*
X019904Y019140D01*
X019921Y019138D01*
X019938Y019134D01*
X019954Y019127D01*
X019968Y019117D01*
X019981Y019104D01*
X019991Y019090D01*
X019998Y019074D01*
X020002Y019057D01*
X020004Y019040D01*
X020004Y018240D01*
X020002Y018223D01*
X019998Y018206D01*
X019991Y018190D01*
X019981Y018176D01*
X019968Y018163D01*
X019954Y018153D01*
X019938Y018146D01*
X019921Y018142D01*
X019904Y018140D01*
X018204Y018140D01*
X018187Y018142D01*
X018170Y018146D01*
X018154Y018153D01*
X018140Y018163D01*
X018127Y018176D01*
X018117Y018190D01*
X018110Y018206D01*
X018106Y018223D01*
X018104Y018240D01*
X018904Y018640D02*
X018954Y018640D01*
X019154Y018640D02*
X019204Y018640D01*
X022571Y015433D02*
X025571Y015433D01*
X025588Y015431D01*
X025605Y015427D01*
X025621Y015420D01*
X025635Y015410D01*
X025648Y015397D01*
X025658Y015383D01*
X025665Y015367D01*
X025669Y015350D01*
X025671Y015333D01*
X025671Y014333D01*
X025669Y014316D01*
X025665Y014299D01*
X025658Y014283D01*
X025648Y014269D01*
X025635Y014256D01*
X025621Y014246D01*
X025605Y014239D01*
X025588Y014235D01*
X025571Y014233D01*
X022571Y014233D01*
X022571Y014283D01*
X022571Y015383D01*
X022571Y015433D01*
X022571Y015383D02*
X022421Y015383D01*
X022421Y014283D01*
X022571Y014283D01*
X023471Y014833D02*
X023671Y014833D01*
X023671Y014533D01*
X023821Y014533D02*
X023971Y014533D01*
X023971Y015133D01*
X023821Y015133D01*
X023821Y014533D01*
X024121Y014533D02*
X024121Y014833D01*
X024321Y014833D01*
X024121Y014833D02*
X024121Y015133D01*
X023671Y015133D02*
X023671Y014833D01*
X027188Y016019D02*
X027188Y017719D01*
X027190Y017736D01*
X027194Y017753D01*
X027201Y017769D01*
X027211Y017783D01*
X027224Y017796D01*
X027238Y017806D01*
X027254Y017813D01*
X027271Y017817D01*
X027288Y017819D01*
X028088Y017819D01*
X028105Y017817D01*
X028122Y017813D01*
X028138Y017806D01*
X028152Y017796D01*
X028165Y017783D01*
X028175Y017769D01*
X028182Y017753D01*
X028186Y017736D01*
X028188Y017719D01*
X028188Y016019D01*
X028186Y016002D01*
X028182Y015985D01*
X028175Y015969D01*
X028165Y015955D01*
X028152Y015942D01*
X028138Y015932D01*
X028122Y015925D01*
X028105Y015921D01*
X028088Y015919D01*
X027288Y015919D01*
X027271Y015921D01*
X027254Y015925D01*
X027238Y015932D01*
X027224Y015942D01*
X027211Y015955D01*
X027201Y015969D01*
X027194Y015985D01*
X027190Y016002D01*
X027188Y016019D01*
X027688Y016719D02*
X027688Y016769D01*
X027688Y016969D02*
X027688Y017019D01*
X029597Y017806D02*
X029597Y013806D01*
X031597Y013806D01*
X031597Y017806D01*
X030847Y017806D01*
X030845Y017776D01*
X030840Y017746D01*
X030831Y017717D01*
X030818Y017690D01*
X030803Y017664D01*
X030784Y017640D01*
X030763Y017619D01*
X030739Y017600D01*
X030713Y017585D01*
X030686Y017572D01*
X030657Y017563D01*
X030627Y017558D01*
X030597Y017556D01*
X030567Y017558D01*
X030537Y017563D01*
X030508Y017572D01*
X030481Y017585D01*
X030455Y017600D01*
X030431Y017619D01*
X030410Y017640D01*
X030391Y017664D01*
X030376Y017690D01*
X030363Y017717D01*
X030354Y017746D01*
X030349Y017776D01*
X030347Y017806D01*
X029597Y017806D01*
X029058Y018215D02*
X027358Y018215D01*
X027341Y018217D01*
X027324Y018221D01*
X027308Y018228D01*
X027294Y018238D01*
X027281Y018251D01*
X027271Y018265D01*
X027264Y018281D01*
X027260Y018298D01*
X027258Y018315D01*
X027258Y019115D01*
X027260Y019132D01*
X027264Y019149D01*
X027271Y019165D01*
X027281Y019179D01*
X027294Y019192D01*
X027308Y019202D01*
X027324Y019209D01*
X027341Y019213D01*
X027358Y019215D01*
X029058Y019215D01*
X029075Y019213D01*
X029092Y019209D01*
X029108Y019202D01*
X029122Y019192D01*
X029135Y019179D01*
X029145Y019165D01*
X029152Y019149D01*
X029156Y019132D01*
X029158Y019115D01*
X029158Y018315D01*
X029156Y018298D01*
X029152Y018281D01*
X029145Y018265D01*
X029135Y018251D01*
X029122Y018238D01*
X029108Y018228D01*
X029092Y018221D01*
X029075Y018217D01*
X029058Y018215D01*
X028358Y018715D02*
X028308Y018715D01*
X028108Y018715D02*
X028058Y018715D01*
X027586Y012869D02*
X027588Y012913D01*
X027594Y012957D01*
X027604Y013000D01*
X027617Y013042D01*
X027634Y013083D01*
X027655Y013122D01*
X027679Y013159D01*
X027706Y013194D01*
X027736Y013226D01*
X027769Y013256D01*
X027805Y013282D01*
X027842Y013306D01*
X027882Y013325D01*
X027923Y013342D01*
X027966Y013354D01*
X028009Y013363D01*
X028053Y013368D01*
X028097Y013369D01*
X028141Y013366D01*
X028185Y013359D01*
X028228Y013348D01*
X028270Y013334D01*
X028310Y013316D01*
X028349Y013294D01*
X028385Y013270D01*
X028419Y013242D01*
X028451Y013211D01*
X028480Y013177D01*
X028506Y013141D01*
X028528Y013103D01*
X028547Y013063D01*
X028562Y013021D01*
X028574Y012979D01*
X028582Y012935D01*
X028586Y012891D01*
X028586Y012847D01*
X028582Y012803D01*
X028574Y012759D01*
X028562Y012717D01*
X028547Y012675D01*
X028528Y012635D01*
X028506Y012597D01*
X028480Y012561D01*
X028451Y012527D01*
X028419Y012496D01*
X028385Y012468D01*
X028349Y012444D01*
X028310Y012422D01*
X028270Y012404D01*
X028228Y012390D01*
X028185Y012379D01*
X028141Y012372D01*
X028097Y012369D01*
X028053Y012370D01*
X028009Y012375D01*
X027966Y012384D01*
X027923Y012396D01*
X027882Y012413D01*
X027842Y012432D01*
X027805Y012456D01*
X027769Y012482D01*
X027736Y012512D01*
X027706Y012544D01*
X027679Y012579D01*
X027655Y012616D01*
X027634Y012655D01*
X027617Y012696D01*
X027604Y012738D01*
X027594Y012781D01*
X027588Y012825D01*
X027586Y012869D01*
X030534Y012845D02*
X030536Y012889D01*
X030542Y012933D01*
X030552Y012976D01*
X030565Y013018D01*
X030582Y013059D01*
X030603Y013098D01*
X030627Y013135D01*
X030654Y013170D01*
X030684Y013202D01*
X030717Y013232D01*
X030753Y013258D01*
X030790Y013282D01*
X030830Y013301D01*
X030871Y013318D01*
X030914Y013330D01*
X030957Y013339D01*
X031001Y013344D01*
X031045Y013345D01*
X031089Y013342D01*
X031133Y013335D01*
X031176Y013324D01*
X031218Y013310D01*
X031258Y013292D01*
X031297Y013270D01*
X031333Y013246D01*
X031367Y013218D01*
X031399Y013187D01*
X031428Y013153D01*
X031454Y013117D01*
X031476Y013079D01*
X031495Y013039D01*
X031510Y012997D01*
X031522Y012955D01*
X031530Y012911D01*
X031534Y012867D01*
X031534Y012823D01*
X031530Y012779D01*
X031522Y012735D01*
X031510Y012693D01*
X031495Y012651D01*
X031476Y012611D01*
X031454Y012573D01*
X031428Y012537D01*
X031399Y012503D01*
X031367Y012472D01*
X031333Y012444D01*
X031297Y012420D01*
X031258Y012398D01*
X031218Y012380D01*
X031176Y012366D01*
X031133Y012355D01*
X031089Y012348D01*
X031045Y012345D01*
X031001Y012346D01*
X030957Y012351D01*
X030914Y012360D01*
X030871Y012372D01*
X030830Y012389D01*
X030790Y012408D01*
X030753Y012432D01*
X030717Y012458D01*
X030684Y012488D01*
X030654Y012520D01*
X030627Y012555D01*
X030603Y012592D01*
X030582Y012631D01*
X030565Y012672D01*
X030552Y012714D01*
X030542Y012757D01*
X030536Y012801D01*
X030534Y012845D01*
X030928Y010514D02*
X030930Y010558D01*
X030936Y010602D01*
X030946Y010645D01*
X030959Y010687D01*
X030976Y010728D01*
X030997Y010767D01*
X031021Y010804D01*
X031048Y010839D01*
X031078Y010871D01*
X031111Y010901D01*
X031147Y010927D01*
X031184Y010951D01*
X031224Y010970D01*
X031265Y010987D01*
X031308Y010999D01*
X031351Y011008D01*
X031395Y011013D01*
X031439Y011014D01*
X031483Y011011D01*
X031527Y011004D01*
X031570Y010993D01*
X031612Y010979D01*
X031652Y010961D01*
X031691Y010939D01*
X031727Y010915D01*
X031761Y010887D01*
X031793Y010856D01*
X031822Y010822D01*
X031848Y010786D01*
X031870Y010748D01*
X031889Y010708D01*
X031904Y010666D01*
X031916Y010624D01*
X031924Y010580D01*
X031928Y010536D01*
X031928Y010492D01*
X031924Y010448D01*
X031916Y010404D01*
X031904Y010362D01*
X031889Y010320D01*
X031870Y010280D01*
X031848Y010242D01*
X031822Y010206D01*
X031793Y010172D01*
X031761Y010141D01*
X031727Y010113D01*
X031691Y010089D01*
X031652Y010067D01*
X031612Y010049D01*
X031570Y010035D01*
X031527Y010024D01*
X031483Y010017D01*
X031439Y010014D01*
X031395Y010015D01*
X031351Y010020D01*
X031308Y010029D01*
X031265Y010041D01*
X031224Y010058D01*
X031184Y010077D01*
X031147Y010101D01*
X031111Y010127D01*
X031078Y010157D01*
X031048Y010189D01*
X031021Y010224D01*
X030997Y010261D01*
X030976Y010300D01*
X030959Y010341D01*
X030946Y010383D01*
X030936Y010426D01*
X030930Y010470D01*
X030928Y010514D01*
X027272Y010457D02*
X027272Y009657D01*
X027270Y009640D01*
X027266Y009623D01*
X027259Y009607D01*
X027249Y009593D01*
X027236Y009580D01*
X027222Y009570D01*
X027206Y009563D01*
X027189Y009559D01*
X027172Y009557D01*
X025472Y009557D01*
X025455Y009559D01*
X025438Y009563D01*
X025422Y009570D01*
X025408Y009580D01*
X025395Y009593D01*
X025385Y009607D01*
X025378Y009623D01*
X025374Y009640D01*
X025372Y009657D01*
X025372Y010457D01*
X025374Y010474D01*
X025378Y010491D01*
X025385Y010507D01*
X025395Y010521D01*
X025408Y010534D01*
X025422Y010544D01*
X025438Y010551D01*
X025455Y010555D01*
X025472Y010557D01*
X027172Y010557D01*
X027189Y010555D01*
X027206Y010551D01*
X027222Y010544D01*
X027236Y010534D01*
X027249Y010521D01*
X027259Y010507D01*
X027266Y010491D01*
X027270Y010474D01*
X027272Y010457D01*
X026472Y010057D02*
X026422Y010057D01*
X026222Y010057D02*
X026172Y010057D01*
X035711Y010241D02*
X035711Y010741D01*
X035961Y010991D01*
X037461Y010991D01*
X037711Y010741D01*
X037711Y010241D01*
X037461Y009991D01*
X035961Y009991D01*
X035711Y010241D01*
X035961Y009991D02*
X035711Y009741D01*
X035711Y009241D01*
X035961Y008991D01*
X037461Y008991D01*
X037711Y008741D01*
X037711Y008241D01*
X037461Y007991D01*
X035961Y007991D01*
X035711Y008241D01*
X035711Y008741D01*
X035961Y008991D01*
X037461Y008991D02*
X037711Y009241D01*
X037711Y009741D01*
X037461Y009991D01*
X037731Y009760D02*
X037981Y010010D01*
X037731Y010260D01*
X037731Y010760D01*
X037981Y011010D01*
X038481Y011010D01*
X038731Y010760D01*
X038731Y010260D01*
X038481Y010010D01*
X038731Y009760D01*
X038731Y009260D01*
X038481Y009010D01*
X038731Y008760D01*
X038731Y008260D01*
X038481Y008010D01*
X038731Y007760D01*
X038731Y007260D01*
X038481Y007010D01*
X038731Y006760D01*
X038731Y006260D01*
X038481Y006010D01*
X038731Y005760D01*
X038731Y005260D01*
X038481Y005010D01*
X037981Y005010D01*
X037731Y004760D01*
X037731Y004260D01*
X037981Y004010D01*
X038481Y004010D01*
X038731Y004260D01*
X038731Y004760D01*
X038481Y005010D01*
X037981Y005010D02*
X037731Y005260D01*
X037731Y005760D01*
X037981Y006010D01*
X038481Y006010D01*
X037981Y006010D02*
X037731Y006260D01*
X037731Y006760D01*
X037981Y007010D01*
X037731Y007260D01*
X037731Y007760D01*
X037981Y008010D01*
X037731Y008260D01*
X037731Y008760D01*
X037981Y009010D01*
X038481Y009010D01*
X037981Y009010D02*
X037731Y009260D01*
X037731Y009760D01*
X037981Y010010D02*
X038481Y010010D01*
X036385Y011727D02*
X036387Y011771D01*
X036393Y011815D01*
X036403Y011858D01*
X036416Y011900D01*
X036433Y011941D01*
X036454Y011980D01*
X036478Y012017D01*
X036505Y012052D01*
X036535Y012084D01*
X036568Y012114D01*
X036604Y012140D01*
X036641Y012164D01*
X036681Y012183D01*
X036722Y012200D01*
X036765Y012212D01*
X036808Y012221D01*
X036852Y012226D01*
X036896Y012227D01*
X036940Y012224D01*
X036984Y012217D01*
X037027Y012206D01*
X037069Y012192D01*
X037109Y012174D01*
X037148Y012152D01*
X037184Y012128D01*
X037218Y012100D01*
X037250Y012069D01*
X037279Y012035D01*
X037305Y011999D01*
X037327Y011961D01*
X037346Y011921D01*
X037361Y011879D01*
X037373Y011837D01*
X037381Y011793D01*
X037385Y011749D01*
X037385Y011705D01*
X037381Y011661D01*
X037373Y011617D01*
X037361Y011575D01*
X037346Y011533D01*
X037327Y011493D01*
X037305Y011455D01*
X037279Y011419D01*
X037250Y011385D01*
X037218Y011354D01*
X037184Y011326D01*
X037148Y011302D01*
X037109Y011280D01*
X037069Y011262D01*
X037027Y011248D01*
X036984Y011237D01*
X036940Y011230D01*
X036896Y011227D01*
X036852Y011228D01*
X036808Y011233D01*
X036765Y011242D01*
X036722Y011254D01*
X036681Y011271D01*
X036641Y011290D01*
X036604Y011314D01*
X036568Y011340D01*
X036535Y011370D01*
X036505Y011402D01*
X036478Y011437D01*
X036454Y011474D01*
X036433Y011513D01*
X036416Y011554D01*
X036403Y011596D01*
X036393Y011639D01*
X036387Y011683D01*
X036385Y011727D01*
X035961Y007991D02*
X035711Y007741D01*
X035711Y007241D01*
X035961Y006991D01*
X037461Y006991D01*
X037711Y007241D01*
X037711Y007741D01*
X037461Y007991D01*
X037981Y008010D02*
X038481Y008010D01*
X038481Y007010D02*
X037981Y007010D01*
X037711Y006741D02*
X037711Y006241D01*
X037461Y005991D01*
X035961Y005991D01*
X035711Y006241D01*
X035711Y006741D01*
X035961Y006991D01*
X037461Y006991D02*
X037711Y006741D01*
X037461Y005991D02*
X037711Y005741D01*
X037711Y005241D01*
X037461Y004991D01*
X035961Y004991D01*
X035711Y005241D01*
X035711Y005741D01*
X035961Y005991D01*
X035961Y004991D02*
X035711Y004741D01*
X035711Y004241D01*
X035961Y003991D01*
X037461Y003991D01*
X037711Y004241D01*
X037711Y004741D01*
X037461Y004991D01*
X037981Y004010D02*
X037731Y003760D01*
X037731Y003260D01*
X037981Y003010D01*
X038481Y003010D01*
X038731Y002760D01*
X038731Y002260D01*
X038481Y002010D01*
X038731Y001760D01*
X038731Y001260D01*
X038481Y001010D01*
X037981Y001010D01*
X037731Y001260D01*
X037731Y001760D01*
X037981Y002010D01*
X037731Y002260D01*
X037731Y002760D01*
X037981Y003010D01*
X037711Y003241D02*
X037461Y002991D01*
X035961Y002991D01*
X035711Y003241D01*
X035711Y003741D01*
X035961Y003991D01*
X037461Y003991D02*
X037711Y003741D01*
X037711Y003241D01*
X037461Y002991D02*
X037711Y002741D01*
X037711Y002241D01*
X037461Y001991D01*
X035961Y001991D01*
X035711Y002241D01*
X035711Y002741D01*
X035961Y002991D01*
X035961Y001991D02*
X035711Y001741D01*
X035711Y001241D01*
X035961Y000991D01*
X037461Y000991D01*
X037711Y001241D01*
X037711Y001741D01*
X037461Y001991D01*
X037981Y002010D02*
X038481Y002010D01*
X038481Y003010D02*
X038731Y003260D01*
X038731Y003760D01*
X038481Y004010D01*
X033106Y001765D02*
X033106Y000965D01*
X033104Y000948D01*
X033100Y000931D01*
X033093Y000915D01*
X033083Y000901D01*
X033070Y000888D01*
X033056Y000878D01*
X033040Y000871D01*
X033023Y000867D01*
X033006Y000865D01*
X031306Y000865D01*
X031289Y000867D01*
X031272Y000871D01*
X031256Y000878D01*
X031242Y000888D01*
X031229Y000901D01*
X031219Y000915D01*
X031212Y000931D01*
X031208Y000948D01*
X031206Y000965D01*
X031206Y001765D01*
X031208Y001782D01*
X031212Y001799D01*
X031219Y001815D01*
X031229Y001829D01*
X031242Y001842D01*
X031256Y001852D01*
X031272Y001859D01*
X031289Y001863D01*
X031306Y001865D01*
X033006Y001865D01*
X033023Y001863D01*
X033040Y001859D01*
X033056Y001852D01*
X033070Y001842D01*
X033083Y001829D01*
X033093Y001815D01*
X033100Y001799D01*
X033104Y001782D01*
X033106Y001765D01*
X032306Y001365D02*
X032256Y001365D01*
X032056Y001365D02*
X032006Y001365D01*
X031977Y002134D02*
X029277Y002134D01*
X029967Y001900D02*
X028267Y001900D01*
X028250Y001898D01*
X028233Y001894D01*
X028217Y001887D01*
X028203Y001877D01*
X028190Y001864D01*
X028180Y001850D01*
X028173Y001834D01*
X028169Y001817D01*
X028167Y001800D01*
X028167Y001000D01*
X028169Y000983D01*
X028173Y000966D01*
X028180Y000950D01*
X028190Y000936D01*
X028203Y000923D01*
X028217Y000913D01*
X028233Y000906D01*
X028250Y000902D01*
X028267Y000900D01*
X029967Y000900D01*
X029984Y000902D01*
X030001Y000906D01*
X030017Y000913D01*
X030031Y000923D01*
X030044Y000936D01*
X030054Y000950D01*
X030061Y000966D01*
X030065Y000983D01*
X030067Y001000D01*
X030067Y001800D01*
X030065Y001817D01*
X030061Y001834D01*
X030054Y001850D01*
X030044Y001864D01*
X030031Y001877D01*
X030017Y001887D01*
X030001Y001894D01*
X029984Y001898D01*
X029967Y001900D01*
X029267Y001400D02*
X029217Y001400D01*
X029017Y001400D02*
X028967Y001400D01*
X025609Y001585D02*
X025611Y001629D01*
X025617Y001673D01*
X025627Y001716D01*
X025640Y001758D01*
X025657Y001799D01*
X025678Y001838D01*
X025702Y001875D01*
X025729Y001910D01*
X025759Y001942D01*
X025792Y001972D01*
X025828Y001998D01*
X025865Y002022D01*
X025905Y002041D01*
X025946Y002058D01*
X025989Y002070D01*
X026032Y002079D01*
X026076Y002084D01*
X026120Y002085D01*
X026164Y002082D01*
X026208Y002075D01*
X026251Y002064D01*
X026293Y002050D01*
X026333Y002032D01*
X026372Y002010D01*
X026408Y001986D01*
X026442Y001958D01*
X026474Y001927D01*
X026503Y001893D01*
X026529Y001857D01*
X026551Y001819D01*
X026570Y001779D01*
X026585Y001737D01*
X026597Y001695D01*
X026605Y001651D01*
X026609Y001607D01*
X026609Y001563D01*
X026605Y001519D01*
X026597Y001475D01*
X026585Y001433D01*
X026570Y001391D01*
X026551Y001351D01*
X026529Y001313D01*
X026503Y001277D01*
X026474Y001243D01*
X026442Y001212D01*
X026408Y001184D01*
X026372Y001160D01*
X026333Y001138D01*
X026293Y001120D01*
X026251Y001106D01*
X026208Y001095D01*
X026164Y001088D01*
X026120Y001085D01*
X026076Y001086D01*
X026032Y001091D01*
X025989Y001100D01*
X025946Y001112D01*
X025905Y001129D01*
X025865Y001148D01*
X025828Y001172D01*
X025792Y001198D01*
X025759Y001228D01*
X025729Y001260D01*
X025702Y001295D01*
X025678Y001332D01*
X025657Y001371D01*
X025640Y001412D01*
X025627Y001454D01*
X025617Y001497D01*
X025611Y001541D01*
X025609Y001585D01*
X024597Y001652D02*
X024597Y001802D01*
X023597Y001802D01*
X023597Y001652D01*
X023456Y001900D02*
X023029Y001900D01*
X023242Y002113D02*
X023242Y001686D01*
X023755Y001595D02*
X023782Y001623D01*
X023811Y001649D01*
X023842Y001673D01*
X023874Y001693D01*
X023909Y001711D01*
X023945Y001726D01*
X023982Y001737D01*
X024020Y001745D01*
X024058Y001750D01*
X024097Y001752D01*
X024136Y001750D01*
X024174Y001745D01*
X024212Y001737D01*
X024249Y001726D01*
X024285Y001711D01*
X024320Y001693D01*
X024352Y001673D01*
X024383Y001649D01*
X024412Y001623D01*
X024439Y001595D01*
X024439Y001009D02*
X024412Y000981D01*
X024383Y000955D01*
X024352Y000931D01*
X024320Y000911D01*
X024285Y000893D01*
X024249Y000878D01*
X024212Y000867D01*
X024174Y000859D01*
X024136Y000854D01*
X024097Y000852D01*
X023597Y000802D02*
X024597Y000802D01*
X024597Y000952D01*
X024297Y001302D02*
X024295Y001276D01*
X024290Y001250D01*
X024282Y001225D01*
X024270Y001202D01*
X024256Y001180D01*
X024238Y001161D01*
X024219Y001143D01*
X024197Y001129D01*
X024174Y001117D01*
X024149Y001109D01*
X024123Y001104D01*
X024097Y001102D01*
X024097Y000852D02*
X024058Y000854D01*
X024020Y000859D01*
X023982Y000867D01*
X023945Y000878D01*
X023909Y000893D01*
X023874Y000911D01*
X023842Y000931D01*
X023811Y000955D01*
X023782Y000981D01*
X023755Y001009D01*
X023597Y000952D02*
X023597Y000802D01*
X021739Y001161D02*
X021339Y001161D01*
X020389Y001161D01*
X020039Y001161D01*
X019689Y001961D02*
X019689Y002061D01*
X019589Y002061D01*
X019589Y002661D01*
X019689Y002661D01*
X019689Y002761D01*
X020789Y002361D02*
X020791Y002381D01*
X020797Y002399D01*
X020806Y002417D01*
X020818Y002432D01*
X020833Y002444D01*
X020851Y002453D01*
X020869Y002459D01*
X020889Y002461D01*
X020909Y002459D01*
X020927Y002453D01*
X020945Y002444D01*
X020960Y002432D01*
X020972Y002417D01*
X020981Y002399D01*
X020987Y002381D01*
X020989Y002361D01*
X020987Y002341D01*
X020981Y002323D01*
X020972Y002305D01*
X020960Y002290D01*
X020945Y002278D01*
X020927Y002269D01*
X020909Y002263D01*
X020889Y002261D01*
X020869Y002263D01*
X020851Y002269D01*
X020833Y002278D01*
X020818Y002290D01*
X020806Y002305D01*
X020797Y002323D01*
X020791Y002341D01*
X020789Y002361D01*
X020189Y002361D02*
X020191Y002413D01*
X020197Y002465D01*
X020207Y002517D01*
X020220Y002567D01*
X020237Y002617D01*
X020258Y002665D01*
X020283Y002711D01*
X020311Y002755D01*
X020342Y002797D01*
X020376Y002837D01*
X020413Y002874D01*
X020453Y002908D01*
X020495Y002939D01*
X020539Y002967D01*
X020585Y002992D01*
X020633Y003013D01*
X020683Y003030D01*
X020733Y003043D01*
X020785Y003053D01*
X020837Y003059D01*
X020889Y003061D01*
X020941Y003059D01*
X020993Y003053D01*
X021045Y003043D01*
X021095Y003030D01*
X021145Y003013D01*
X021193Y002992D01*
X021239Y002967D01*
X021283Y002939D01*
X021325Y002908D01*
X021365Y002874D01*
X021402Y002837D01*
X021436Y002797D01*
X021467Y002755D01*
X021495Y002711D01*
X021520Y002665D01*
X021541Y002617D01*
X021558Y002567D01*
X021571Y002517D01*
X021581Y002465D01*
X021587Y002413D01*
X021589Y002361D01*
X021587Y002309D01*
X021581Y002257D01*
X021571Y002205D01*
X021558Y002155D01*
X021541Y002105D01*
X021520Y002057D01*
X021495Y002011D01*
X021467Y001967D01*
X021436Y001925D01*
X021402Y001885D01*
X021365Y001848D01*
X021325Y001814D01*
X021283Y001783D01*
X021239Y001755D01*
X021193Y001730D01*
X021145Y001709D01*
X021095Y001692D01*
X021045Y001679D01*
X020993Y001669D01*
X020941Y001663D01*
X020889Y001661D01*
X020837Y001663D01*
X020785Y001669D01*
X020733Y001679D01*
X020683Y001692D01*
X020633Y001709D01*
X020585Y001730D01*
X020539Y001755D01*
X020495Y001783D01*
X020453Y001814D01*
X020413Y001848D01*
X020376Y001885D01*
X020342Y001925D01*
X020311Y001967D01*
X020283Y002011D01*
X020258Y002057D01*
X020237Y002105D01*
X020220Y002155D01*
X020207Y002205D01*
X020197Y002257D01*
X020191Y002309D01*
X020189Y002361D01*
X022089Y002661D02*
X022089Y002761D01*
X022089Y002661D02*
X022189Y002661D01*
X022189Y002061D01*
X022089Y002061D01*
X022089Y001961D01*
X023597Y002762D02*
X023597Y002912D01*
X023597Y002762D02*
X024597Y002762D01*
X024597Y002912D01*
X024439Y002969D02*
X024412Y002941D01*
X024383Y002915D01*
X024352Y002891D01*
X024320Y002871D01*
X024285Y002853D01*
X024249Y002838D01*
X024212Y002827D01*
X024174Y002819D01*
X024136Y002814D01*
X024097Y002812D01*
X024058Y002814D01*
X024020Y002819D01*
X023982Y002827D01*
X023945Y002838D01*
X023909Y002853D01*
X023874Y002871D01*
X023842Y002891D01*
X023811Y002915D01*
X023782Y002941D01*
X023755Y002969D01*
X023755Y003555D02*
X023782Y003583D01*
X023811Y003609D01*
X023842Y003633D01*
X023874Y003653D01*
X023909Y003671D01*
X023945Y003686D01*
X023982Y003697D01*
X024020Y003705D01*
X024058Y003710D01*
X024097Y003712D01*
X023597Y003762D02*
X024597Y003762D01*
X024597Y003612D01*
X024439Y003555D02*
X024412Y003583D01*
X024383Y003609D01*
X024352Y003633D01*
X024320Y003653D01*
X024285Y003671D01*
X024249Y003686D01*
X024212Y003697D01*
X024174Y003705D01*
X024136Y003710D01*
X024097Y003712D01*
X024297Y003262D02*
X024295Y003236D01*
X024290Y003210D01*
X024282Y003185D01*
X024270Y003162D01*
X024256Y003140D01*
X024238Y003121D01*
X024219Y003103D01*
X024197Y003089D01*
X024174Y003077D01*
X024149Y003069D01*
X024123Y003064D01*
X024097Y003062D01*
X023235Y003521D02*
X023235Y003948D01*
X023021Y003735D02*
X023448Y003735D01*
X023597Y003762D02*
X023597Y003612D01*
X021739Y003561D02*
X021389Y003561D01*
X020389Y003561D01*
X020039Y003561D01*
X017601Y003617D02*
X017603Y003661D01*
X017609Y003705D01*
X017619Y003748D01*
X017632Y003790D01*
X017649Y003831D01*
X017670Y003870D01*
X017694Y003907D01*
X017721Y003942D01*
X017751Y003974D01*
X017784Y004004D01*
X017820Y004030D01*
X017857Y004054D01*
X017897Y004073D01*
X017938Y004090D01*
X017981Y004102D01*
X018024Y004111D01*
X018068Y004116D01*
X018112Y004117D01*
X018156Y004114D01*
X018200Y004107D01*
X018243Y004096D01*
X018285Y004082D01*
X018325Y004064D01*
X018364Y004042D01*
X018400Y004018D01*
X018434Y003990D01*
X018466Y003959D01*
X018495Y003925D01*
X018521Y003889D01*
X018543Y003851D01*
X018562Y003811D01*
X018577Y003769D01*
X018589Y003727D01*
X018597Y003683D01*
X018601Y003639D01*
X018601Y003595D01*
X018597Y003551D01*
X018589Y003507D01*
X018577Y003465D01*
X018562Y003423D01*
X018543Y003383D01*
X018521Y003345D01*
X018495Y003309D01*
X018466Y003275D01*
X018434Y003244D01*
X018400Y003216D01*
X018364Y003192D01*
X018325Y003170D01*
X018285Y003152D01*
X018243Y003138D01*
X018200Y003127D01*
X018156Y003120D01*
X018112Y003117D01*
X018068Y003118D01*
X018024Y003123D01*
X017981Y003132D01*
X017938Y003144D01*
X017897Y003161D01*
X017857Y003180D01*
X017820Y003204D01*
X017784Y003230D01*
X017751Y003260D01*
X017721Y003292D01*
X017694Y003327D01*
X017670Y003364D01*
X017649Y003403D01*
X017632Y003444D01*
X017619Y003486D01*
X017609Y003529D01*
X017603Y003573D01*
X017601Y003617D01*
X017257Y002878D02*
X016457Y002878D01*
X016440Y002876D01*
X016423Y002872D01*
X016407Y002865D01*
X016393Y002855D01*
X016380Y002842D01*
X016370Y002828D01*
X016363Y002812D01*
X016359Y002795D01*
X016357Y002778D01*
X016357Y001078D01*
X016359Y001061D01*
X016363Y001044D01*
X016370Y001028D01*
X016380Y001014D01*
X016393Y001001D01*
X016407Y000991D01*
X016423Y000984D01*
X016440Y000980D01*
X016457Y000978D01*
X017257Y000978D01*
X017274Y000980D01*
X017291Y000984D01*
X017307Y000991D01*
X017321Y001001D01*
X017334Y001014D01*
X017344Y001028D01*
X017351Y001044D01*
X017355Y001061D01*
X017357Y001078D01*
X017357Y002778D01*
X017355Y002795D01*
X017351Y002812D01*
X017344Y002828D01*
X017334Y002842D01*
X017321Y002855D01*
X017307Y002865D01*
X017291Y002872D01*
X017274Y002876D01*
X017257Y002878D01*
X017739Y002451D02*
X017741Y002495D01*
X017747Y002539D01*
X017757Y002582D01*
X017770Y002624D01*
X017787Y002665D01*
X017808Y002704D01*
X017832Y002741D01*
X017859Y002776D01*
X017889Y002808D01*
X017922Y002838D01*
X017958Y002864D01*
X017995Y002888D01*
X018035Y002907D01*
X018076Y002924D01*
X018119Y002936D01*
X018162Y002945D01*
X018206Y002950D01*
X018250Y002951D01*
X018294Y002948D01*
X018338Y002941D01*
X018381Y002930D01*
X018423Y002916D01*
X018463Y002898D01*
X018502Y002876D01*
X018538Y002852D01*
X018572Y002824D01*
X018604Y002793D01*
X018633Y002759D01*
X018659Y002723D01*
X018681Y002685D01*
X018700Y002645D01*
X018715Y002603D01*
X018727Y002561D01*
X018735Y002517D01*
X018739Y002473D01*
X018739Y002429D01*
X018735Y002385D01*
X018727Y002341D01*
X018715Y002299D01*
X018700Y002257D01*
X018681Y002217D01*
X018659Y002179D01*
X018633Y002143D01*
X018604Y002109D01*
X018572Y002078D01*
X018538Y002050D01*
X018502Y002026D01*
X018463Y002004D01*
X018423Y001986D01*
X018381Y001972D01*
X018338Y001961D01*
X018294Y001954D01*
X018250Y001951D01*
X018206Y001952D01*
X018162Y001957D01*
X018119Y001966D01*
X018076Y001978D01*
X018035Y001995D01*
X017995Y002014D01*
X017958Y002038D01*
X017922Y002064D01*
X017889Y002094D01*
X017859Y002126D01*
X017832Y002161D01*
X017808Y002198D01*
X017787Y002237D01*
X017770Y002278D01*
X017757Y002320D01*
X017747Y002363D01*
X017741Y002407D01*
X017739Y002451D01*
X016857Y002078D02*
X016857Y002028D01*
X016857Y001828D02*
X016857Y001778D01*
X015865Y001097D02*
X015865Y002797D01*
X015863Y002814D01*
X015859Y002831D01*
X015852Y002847D01*
X015842Y002861D01*
X015829Y002874D01*
X015815Y002884D01*
X015799Y002891D01*
X015782Y002895D01*
X015765Y002897D01*
X014965Y002897D01*
X014948Y002895D01*
X014931Y002891D01*
X014915Y002884D01*
X014901Y002874D01*
X014888Y002861D01*
X014878Y002847D01*
X014871Y002831D01*
X014867Y002814D01*
X014865Y002797D01*
X014865Y001097D01*
X014867Y001080D01*
X014871Y001063D01*
X014878Y001047D01*
X014888Y001033D01*
X014901Y001020D01*
X014915Y001010D01*
X014931Y001003D01*
X014948Y000999D01*
X014965Y000997D01*
X015765Y000997D01*
X015782Y000999D01*
X015799Y001003D01*
X015815Y001010D01*
X015829Y001020D01*
X015842Y001033D01*
X015852Y001047D01*
X015859Y001063D01*
X015863Y001080D01*
X015865Y001097D01*
X015365Y001797D02*
X015365Y001847D01*
X015365Y002047D02*
X015365Y002097D01*
X014276Y001583D02*
X014119Y001583D01*
X014056Y001033D02*
X012406Y001033D01*
X012344Y001583D02*
X012186Y001583D01*
X013119Y001583D02*
X013344Y001583D01*
X025617Y003317D02*
X025619Y003361D01*
X025625Y003405D01*
X025635Y003448D01*
X025648Y003490D01*
X025665Y003531D01*
X025686Y003570D01*
X025710Y003607D01*
X025737Y003642D01*
X025767Y003674D01*
X025800Y003704D01*
X025836Y003730D01*
X025873Y003754D01*
X025913Y003773D01*
X025954Y003790D01*
X025997Y003802D01*
X026040Y003811D01*
X026084Y003816D01*
X026128Y003817D01*
X026172Y003814D01*
X026216Y003807D01*
X026259Y003796D01*
X026301Y003782D01*
X026341Y003764D01*
X026380Y003742D01*
X026416Y003718D01*
X026450Y003690D01*
X026482Y003659D01*
X026511Y003625D01*
X026537Y003589D01*
X026559Y003551D01*
X026578Y003511D01*
X026593Y003469D01*
X026605Y003427D01*
X026613Y003383D01*
X026617Y003339D01*
X026617Y003295D01*
X026613Y003251D01*
X026605Y003207D01*
X026593Y003165D01*
X026578Y003123D01*
X026559Y003083D01*
X026537Y003045D01*
X026511Y003009D01*
X026482Y002975D01*
X026450Y002944D01*
X026416Y002916D01*
X026380Y002892D01*
X026341Y002870D01*
X026301Y002852D01*
X026259Y002838D01*
X026216Y002827D01*
X026172Y002820D01*
X026128Y002817D01*
X026084Y002818D01*
X026040Y002823D01*
X025997Y002832D01*
X025954Y002844D01*
X025913Y002861D01*
X025873Y002880D01*
X025836Y002904D01*
X025800Y002930D01*
X025767Y002960D01*
X025737Y002992D01*
X025710Y003027D01*
X025686Y003064D01*
X025665Y003103D01*
X025648Y003144D01*
X025635Y003186D01*
X025625Y003229D01*
X025619Y003273D01*
X025617Y003317D01*
X029277Y003934D02*
X029218Y003932D01*
X029160Y003926D01*
X029101Y003917D01*
X029044Y003903D01*
X028988Y003886D01*
X028933Y003865D01*
X028879Y003841D01*
X028827Y003813D01*
X028777Y003782D01*
X028729Y003748D01*
X028684Y003711D01*
X028641Y003670D01*
X028600Y003627D01*
X028563Y003582D01*
X028529Y003534D01*
X028498Y003484D01*
X028470Y003432D01*
X028446Y003378D01*
X028425Y003323D01*
X028408Y003267D01*
X028394Y003210D01*
X028385Y003151D01*
X028379Y003093D01*
X028377Y003034D01*
X028379Y002975D01*
X028385Y002917D01*
X028394Y002858D01*
X028408Y002801D01*
X028425Y002745D01*
X028446Y002690D01*
X028470Y002636D01*
X028498Y002584D01*
X028529Y002534D01*
X028563Y002486D01*
X028600Y002441D01*
X028641Y002398D01*
X028684Y002357D01*
X028729Y002320D01*
X028777Y002286D01*
X028827Y002255D01*
X028879Y002227D01*
X028933Y002203D01*
X028988Y002182D01*
X029044Y002165D01*
X029101Y002151D01*
X029160Y002142D01*
X029218Y002136D01*
X029277Y002134D01*
X031977Y002134D02*
X032036Y002136D01*
X032094Y002142D01*
X032153Y002151D01*
X032210Y002165D01*
X032266Y002182D01*
X032321Y002203D01*
X032375Y002227D01*
X032427Y002255D01*
X032477Y002286D01*
X032525Y002320D01*
X032570Y002357D01*
X032613Y002398D01*
X032654Y002441D01*
X032691Y002486D01*
X032725Y002534D01*
X032756Y002584D01*
X032784Y002636D01*
X032808Y002690D01*
X032829Y002745D01*
X032846Y002801D01*
X032860Y002858D01*
X032869Y002917D01*
X032875Y002975D01*
X032877Y003034D01*
X032875Y003093D01*
X032869Y003151D01*
X032860Y003210D01*
X032846Y003267D01*
X032829Y003323D01*
X032808Y003378D01*
X032784Y003432D01*
X032756Y003484D01*
X032725Y003534D01*
X032691Y003582D01*
X032654Y003627D01*
X032613Y003670D01*
X032570Y003711D01*
X032525Y003748D01*
X032477Y003782D01*
X032427Y003813D01*
X032375Y003841D01*
X032321Y003865D01*
X032266Y003886D01*
X032210Y003903D01*
X032153Y003917D01*
X032094Y003926D01*
X032036Y003932D01*
X031977Y003934D01*
X029277Y003934D01*
X005511Y013687D02*
X005084Y013687D01*
X005117Y013967D02*
X004967Y013967D01*
X005117Y013967D02*
X005117Y014967D01*
X004967Y014967D01*
X004910Y014809D02*
X004938Y014782D01*
X004964Y014753D01*
X004988Y014722D01*
X005008Y014690D01*
X005026Y014655D01*
X005041Y014619D01*
X005052Y014582D01*
X005060Y014544D01*
X005065Y014506D01*
X005067Y014467D01*
X005065Y014428D01*
X005060Y014390D01*
X005052Y014352D01*
X005041Y014315D01*
X005026Y014279D01*
X005008Y014244D01*
X004988Y014212D01*
X004964Y014181D01*
X004938Y014152D01*
X004910Y014125D01*
X005298Y013901D02*
X005298Y013474D01*
X004267Y013967D02*
X004117Y013967D01*
X004117Y014967D01*
X004267Y014967D01*
X004324Y014809D02*
X004296Y014782D01*
X004270Y014753D01*
X004246Y014722D01*
X004226Y014690D01*
X004208Y014655D01*
X004193Y014619D01*
X004182Y014582D01*
X004174Y014544D01*
X004169Y014506D01*
X004167Y014467D01*
X004169Y014428D01*
X004174Y014390D01*
X004182Y014352D01*
X004193Y014315D01*
X004208Y014279D01*
X004226Y014244D01*
X004246Y014212D01*
X004270Y014181D01*
X004296Y014152D01*
X004324Y014125D01*
X004817Y014467D02*
X004815Y014493D01*
X004810Y014519D01*
X004802Y014544D01*
X004790Y014567D01*
X004776Y014589D01*
X004758Y014608D01*
X004739Y014626D01*
X004717Y014640D01*
X004694Y014652D01*
X004669Y014660D01*
X004643Y014665D01*
X004617Y014667D01*
X005054Y016475D02*
X005056Y016519D01*
X005062Y016563D01*
X005072Y016606D01*
X005085Y016648D01*
X005102Y016689D01*
X005123Y016728D01*
X005147Y016765D01*
X005174Y016800D01*
X005204Y016832D01*
X005237Y016862D01*
X005273Y016888D01*
X005310Y016912D01*
X005350Y016931D01*
X005391Y016948D01*
X005434Y016960D01*
X005477Y016969D01*
X005521Y016974D01*
X005565Y016975D01*
X005609Y016972D01*
X005653Y016965D01*
X005696Y016954D01*
X005738Y016940D01*
X005778Y016922D01*
X005817Y016900D01*
X005853Y016876D01*
X005887Y016848D01*
X005919Y016817D01*
X005948Y016783D01*
X005974Y016747D01*
X005996Y016709D01*
X006015Y016669D01*
X006030Y016627D01*
X006042Y016585D01*
X006050Y016541D01*
X006054Y016497D01*
X006054Y016453D01*
X006050Y016409D01*
X006042Y016365D01*
X006030Y016323D01*
X006015Y016281D01*
X005996Y016241D01*
X005974Y016203D01*
X005948Y016167D01*
X005919Y016133D01*
X005887Y016102D01*
X005853Y016074D01*
X005817Y016050D01*
X005778Y016028D01*
X005738Y016010D01*
X005696Y015996D01*
X005653Y015985D01*
X005609Y015978D01*
X005565Y015975D01*
X005521Y015976D01*
X005477Y015981D01*
X005434Y015990D01*
X005391Y016002D01*
X005350Y016019D01*
X005310Y016038D01*
X005273Y016062D01*
X005237Y016088D01*
X005204Y016118D01*
X005174Y016150D01*
X005147Y016185D01*
X005123Y016222D01*
X005102Y016261D01*
X005085Y016302D01*
X005072Y016344D01*
X005062Y016387D01*
X005056Y016431D01*
X005054Y016475D01*
X004526Y018278D02*
X002826Y018278D01*
X002809Y018280D01*
X002792Y018284D01*
X002776Y018291D01*
X002762Y018301D01*
X002749Y018314D01*
X002739Y018328D01*
X002732Y018344D01*
X002728Y018361D01*
X002726Y018378D01*
X002726Y019178D01*
X002728Y019195D01*
X002732Y019212D01*
X002739Y019228D01*
X002749Y019242D01*
X002762Y019255D01*
X002776Y019265D01*
X002792Y019272D01*
X002809Y019276D01*
X002826Y019278D01*
X004526Y019278D01*
X004543Y019276D01*
X004560Y019272D01*
X004576Y019265D01*
X004590Y019255D01*
X004603Y019242D01*
X004613Y019228D01*
X004620Y019212D01*
X004624Y019195D01*
X004626Y019178D01*
X004626Y018378D01*
X004624Y018361D01*
X004620Y018344D01*
X004613Y018328D01*
X004603Y018314D01*
X004590Y018301D01*
X004576Y018291D01*
X004560Y018284D01*
X004543Y018280D01*
X004526Y018278D01*
X003826Y018778D02*
X003776Y018778D01*
X003576Y018778D02*
X003526Y018778D01*
D15*
X012911Y002711D02*
X012927Y002659D01*
X012926Y002660D02*
X012868Y002639D01*
X012811Y002616D01*
X012755Y002589D01*
X012702Y002558D01*
X012650Y002525D01*
X012600Y002488D01*
X012553Y002449D01*
X012508Y002406D01*
X012465Y002361D01*
X012426Y002314D01*
X012389Y002264D01*
X012355Y002212D01*
X012325Y002158D01*
X012298Y002103D01*
X012274Y002046D01*
X012254Y001987D01*
X012238Y001928D01*
X012225Y001867D01*
X012215Y001806D01*
X012210Y001745D01*
X012208Y001683D01*
X012210Y001621D01*
X012215Y001560D01*
X012225Y001499D01*
X012238Y001438D01*
X012254Y001379D01*
X012275Y001320D01*
X012298Y001263D01*
X012325Y001208D01*
X012356Y001154D01*
X012389Y001102D01*
X012426Y001052D01*
X012384Y001019D01*
X012383Y001019D01*
X012346Y001069D01*
X012311Y001122D01*
X012280Y001177D01*
X012252Y001234D01*
X012228Y001292D01*
X012206Y001351D01*
X012189Y001412D01*
X012175Y001473D01*
X012164Y001535D01*
X012157Y001598D01*
X012154Y001661D01*
X012155Y001724D01*
X012159Y001787D01*
X012167Y001850D01*
X012179Y001912D01*
X012194Y001973D01*
X012213Y002033D01*
X012235Y002092D01*
X012260Y002150D01*
X012289Y002206D01*
X012322Y002260D01*
X012357Y002312D01*
X012395Y002363D01*
X012437Y002410D01*
X012481Y002456D01*
X012527Y002498D01*
X012576Y002538D01*
X012627Y002575D01*
X012681Y002609D01*
X012736Y002639D01*
X012793Y002667D01*
X012851Y002691D01*
X012911Y002711D01*
X012912Y002706D01*
X012851Y002685D01*
X012791Y002661D01*
X012733Y002632D01*
X012676Y002600D01*
X012622Y002565D01*
X012570Y002527D01*
X012520Y002485D01*
X012473Y002441D01*
X012429Y002394D01*
X012387Y002344D01*
X012349Y002292D01*
X012314Y002238D01*
X012282Y002181D01*
X012253Y002123D01*
X012229Y002063D01*
X012208Y002002D01*
X012190Y001939D01*
X012177Y001876D01*
X012167Y001812D01*
X012161Y001748D01*
X012159Y001683D01*
X012161Y001618D01*
X012167Y001554D01*
X012177Y001490D01*
X012190Y001426D01*
X012208Y001364D01*
X012229Y001303D01*
X012254Y001243D01*
X012282Y001185D01*
X012314Y001128D01*
X012349Y001074D01*
X012387Y001022D01*
X012391Y001025D01*
X012353Y001077D01*
X012318Y001131D01*
X012286Y001187D01*
X012258Y001245D01*
X012233Y001304D01*
X012212Y001365D01*
X012195Y001428D01*
X012182Y001491D01*
X012172Y001554D01*
X012166Y001618D01*
X012164Y001683D01*
X012166Y001747D01*
X012172Y001811D01*
X012181Y001875D01*
X012195Y001938D01*
X012212Y002000D01*
X012233Y002061D01*
X012258Y002121D01*
X012286Y002179D01*
X012318Y002235D01*
X012353Y002289D01*
X012391Y002341D01*
X012432Y002390D01*
X012476Y002437D01*
X012523Y002482D01*
X012573Y002523D01*
X012625Y002561D01*
X012679Y002596D01*
X012735Y002628D01*
X012793Y002656D01*
X012853Y002681D01*
X012914Y002702D01*
X012915Y002697D01*
X012854Y002676D01*
X012795Y002651D01*
X012737Y002623D01*
X012682Y002592D01*
X012628Y002557D01*
X012576Y002519D01*
X012527Y002478D01*
X012480Y002434D01*
X012436Y002387D01*
X012395Y002338D01*
X012357Y002286D01*
X012322Y002232D01*
X012291Y002176D01*
X012263Y002119D01*
X012238Y002059D01*
X012217Y001999D01*
X012200Y001937D01*
X012186Y001874D01*
X012177Y001811D01*
X012171Y001747D01*
X012169Y001683D01*
X012171Y001619D01*
X012177Y001555D01*
X012186Y001491D01*
X012200Y001429D01*
X012217Y001367D01*
X012238Y001306D01*
X012263Y001247D01*
X012291Y001189D01*
X012322Y001133D01*
X012357Y001080D01*
X012395Y001028D01*
X012399Y001031D01*
X012361Y001082D01*
X012327Y001136D01*
X012295Y001192D01*
X012267Y001249D01*
X012243Y001308D01*
X012222Y001368D01*
X012205Y001430D01*
X012191Y001492D01*
X012182Y001555D01*
X012176Y001619D01*
X012174Y001683D01*
X012176Y001747D01*
X012182Y001810D01*
X012191Y001873D01*
X012205Y001936D01*
X012222Y001997D01*
X012243Y002058D01*
X012267Y002117D01*
X012295Y002174D01*
X012326Y002230D01*
X012361Y002283D01*
X012399Y002335D01*
X012440Y002384D01*
X012484Y002430D01*
X012530Y002474D01*
X012579Y002515D01*
X012630Y002553D01*
X012684Y002588D01*
X012740Y002619D01*
X012797Y002647D01*
X012856Y002671D01*
X012916Y002692D01*
X012918Y002687D01*
X012858Y002667D01*
X012799Y002642D01*
X012742Y002614D01*
X012687Y002583D01*
X012633Y002549D01*
X012582Y002511D01*
X012533Y002470D01*
X012487Y002427D01*
X012443Y002381D01*
X012403Y002332D01*
X012365Y002281D01*
X012331Y002227D01*
X012299Y002172D01*
X012272Y002115D01*
X012247Y002056D01*
X012227Y001996D01*
X012210Y001935D01*
X012196Y001873D01*
X012187Y001810D01*
X012181Y001746D01*
X012179Y001683D01*
X012181Y001619D01*
X012187Y001556D01*
X012196Y001493D01*
X012210Y001431D01*
X012227Y001370D01*
X012247Y001310D01*
X012272Y001251D01*
X012300Y001194D01*
X012331Y001139D01*
X012365Y001085D01*
X012403Y001034D01*
X012407Y001037D01*
X012369Y001088D01*
X012335Y001141D01*
X012304Y001196D01*
X012276Y001253D01*
X012252Y001312D01*
X012231Y001371D01*
X012214Y001432D01*
X012201Y001494D01*
X012192Y001557D01*
X012186Y001620D01*
X012184Y001683D01*
X012186Y001746D01*
X012192Y001809D01*
X012201Y001872D01*
X012214Y001933D01*
X012231Y001994D01*
X012252Y002054D01*
X012276Y002113D01*
X012304Y002169D01*
X012335Y002225D01*
X012369Y002278D01*
X012407Y002329D01*
X012447Y002377D01*
X012491Y002423D01*
X012537Y002467D01*
X012585Y002507D01*
X012636Y002545D01*
X012689Y002579D01*
X012744Y002610D01*
X012801Y002638D01*
X012860Y002662D01*
X012919Y002683D01*
X012921Y002678D01*
X012861Y002657D01*
X012803Y002633D01*
X012747Y002606D01*
X012692Y002575D01*
X012639Y002540D01*
X012588Y002503D01*
X012540Y002463D01*
X012494Y002420D01*
X012451Y002374D01*
X012411Y002326D01*
X012373Y002275D01*
X012339Y002222D01*
X012308Y002167D01*
X012281Y002111D01*
X012257Y002052D01*
X012236Y001993D01*
X012219Y001932D01*
X012206Y001871D01*
X012197Y001808D01*
X012191Y001746D01*
X012189Y001683D01*
X012191Y001620D01*
X012197Y001557D01*
X012206Y001495D01*
X012219Y001434D01*
X012236Y001373D01*
X012257Y001313D01*
X012281Y001255D01*
X012308Y001199D01*
X012339Y001144D01*
X012374Y001091D01*
X012411Y001040D01*
X012415Y001043D01*
X012378Y001094D01*
X012344Y001146D01*
X012313Y001201D01*
X012285Y001257D01*
X012261Y001315D01*
X012241Y001374D01*
X012224Y001435D01*
X012211Y001496D01*
X012202Y001558D01*
X012196Y001620D01*
X012194Y001683D01*
X012196Y001746D01*
X012202Y001808D01*
X012211Y001870D01*
X012224Y001931D01*
X012241Y001991D01*
X012261Y002051D01*
X012285Y002108D01*
X012313Y002165D01*
X012343Y002219D01*
X012377Y002272D01*
X012415Y002322D01*
X012455Y002371D01*
X012498Y002416D01*
X012543Y002459D01*
X012591Y002499D01*
X012642Y002536D01*
X012694Y002570D01*
X012749Y002601D01*
X012805Y002629D01*
X012863Y002653D01*
X012922Y002673D01*
X012924Y002668D01*
X012865Y002648D01*
X012807Y002624D01*
X012751Y002597D01*
X012697Y002566D01*
X012645Y002532D01*
X012594Y002495D01*
X012547Y002455D01*
X012501Y002413D01*
X012458Y002367D01*
X012419Y002319D01*
X012382Y002269D01*
X012348Y002217D01*
X012317Y002162D01*
X012290Y002106D01*
X012266Y002049D01*
X012246Y001990D01*
X012229Y001930D01*
X012216Y001869D01*
X012207Y001807D01*
X012201Y001745D01*
X012199Y001683D01*
X012201Y001621D01*
X012207Y001559D01*
X012216Y001497D01*
X012229Y001436D01*
X012246Y001376D01*
X012266Y001317D01*
X012290Y001259D01*
X012317Y001203D01*
X012348Y001149D01*
X012382Y001097D01*
X012419Y001046D01*
X012423Y001050D01*
X012386Y001100D01*
X012352Y001152D01*
X012322Y001206D01*
X012295Y001261D01*
X012271Y001319D01*
X012251Y001377D01*
X012234Y001437D01*
X012221Y001498D01*
X012211Y001559D01*
X012206Y001621D01*
X012204Y001683D01*
X012206Y001745D01*
X012211Y001807D01*
X012221Y001868D01*
X012234Y001929D01*
X012250Y001988D01*
X012271Y002047D01*
X012294Y002104D01*
X012322Y002160D01*
X012352Y002214D01*
X012386Y002266D01*
X012422Y002316D01*
X012462Y002364D01*
X012505Y002409D01*
X012550Y002452D01*
X012598Y002491D01*
X012647Y002528D01*
X012700Y002562D01*
X012754Y002592D01*
X012809Y002619D01*
X012867Y002643D01*
X012925Y002663D01*
X014078Y001019D02*
X014036Y001053D01*
X014036Y001052D02*
X014073Y001102D01*
X014106Y001154D01*
X014137Y001208D01*
X014164Y001263D01*
X014187Y001320D01*
X014208Y001379D01*
X014224Y001438D01*
X014237Y001499D01*
X014247Y001560D01*
X014252Y001621D01*
X014254Y001683D01*
X014252Y001745D01*
X014247Y001806D01*
X014237Y001867D01*
X014224Y001928D01*
X014208Y001987D01*
X014188Y002046D01*
X014164Y002103D01*
X014137Y002158D01*
X014107Y002212D01*
X014073Y002264D01*
X014036Y002314D01*
X013997Y002361D01*
X013954Y002406D01*
X013909Y002449D01*
X013862Y002488D01*
X013812Y002525D01*
X013760Y002558D01*
X013707Y002589D01*
X013651Y002616D01*
X013594Y002639D01*
X013536Y002660D01*
X013551Y002711D01*
X013611Y002691D01*
X013669Y002667D01*
X013726Y002639D01*
X013781Y002609D01*
X013835Y002575D01*
X013886Y002538D01*
X013935Y002498D01*
X013981Y002456D01*
X014025Y002410D01*
X014067Y002363D01*
X014105Y002312D01*
X014140Y002260D01*
X014173Y002206D01*
X014202Y002150D01*
X014227Y002092D01*
X014249Y002033D01*
X014268Y001973D01*
X014283Y001912D01*
X014295Y001850D01*
X014303Y001787D01*
X014307Y001724D01*
X014308Y001661D01*
X014305Y001598D01*
X014298Y001535D01*
X014287Y001473D01*
X014273Y001412D01*
X014256Y001351D01*
X014234Y001292D01*
X014210Y001234D01*
X014182Y001177D01*
X014151Y001122D01*
X014116Y001069D01*
X014079Y001019D01*
X014075Y001022D01*
X014113Y001074D01*
X014148Y001128D01*
X014180Y001185D01*
X014208Y001243D01*
X014233Y001303D01*
X014254Y001364D01*
X014272Y001426D01*
X014285Y001490D01*
X014295Y001554D01*
X014301Y001618D01*
X014303Y001683D01*
X014301Y001748D01*
X014295Y001812D01*
X014285Y001876D01*
X014272Y001939D01*
X014254Y002002D01*
X014233Y002063D01*
X014209Y002123D01*
X014180Y002181D01*
X014148Y002238D01*
X014113Y002292D01*
X014075Y002344D01*
X014033Y002394D01*
X013989Y002441D01*
X013942Y002485D01*
X013892Y002527D01*
X013840Y002565D01*
X013786Y002600D01*
X013729Y002632D01*
X013671Y002661D01*
X013611Y002685D01*
X013550Y002706D01*
X013548Y002702D01*
X013609Y002681D01*
X013669Y002656D01*
X013727Y002628D01*
X013783Y002596D01*
X013837Y002561D01*
X013889Y002523D01*
X013939Y002482D01*
X013986Y002437D01*
X014030Y002390D01*
X014071Y002341D01*
X014109Y002289D01*
X014144Y002235D01*
X014176Y002179D01*
X014204Y002121D01*
X014229Y002061D01*
X014250Y002000D01*
X014267Y001938D01*
X014281Y001875D01*
X014290Y001811D01*
X014296Y001747D01*
X014298Y001683D01*
X014296Y001618D01*
X014290Y001554D01*
X014280Y001491D01*
X014267Y001428D01*
X014250Y001365D01*
X014229Y001304D01*
X014204Y001245D01*
X014176Y001187D01*
X014144Y001131D01*
X014109Y001077D01*
X014071Y001025D01*
X014067Y001028D01*
X014105Y001080D01*
X014140Y001133D01*
X014171Y001189D01*
X014199Y001247D01*
X014224Y001306D01*
X014245Y001367D01*
X014262Y001429D01*
X014276Y001491D01*
X014285Y001555D01*
X014291Y001619D01*
X014293Y001683D01*
X014291Y001747D01*
X014285Y001811D01*
X014276Y001874D01*
X014262Y001937D01*
X014245Y001999D01*
X014224Y002059D01*
X014199Y002119D01*
X014171Y002176D01*
X014140Y002232D01*
X014105Y002286D01*
X014067Y002338D01*
X014026Y002387D01*
X013982Y002434D01*
X013935Y002478D01*
X013886Y002519D01*
X013834Y002557D01*
X013780Y002592D01*
X013725Y002623D01*
X013667Y002651D01*
X013608Y002676D01*
X013547Y002697D01*
X013546Y002692D01*
X013606Y002671D01*
X013665Y002647D01*
X013722Y002619D01*
X013778Y002588D01*
X013832Y002553D01*
X013883Y002515D01*
X013932Y002474D01*
X013978Y002430D01*
X014022Y002384D01*
X014063Y002335D01*
X014101Y002283D01*
X014136Y002230D01*
X014167Y002174D01*
X014195Y002117D01*
X014219Y002058D01*
X014240Y001997D01*
X014257Y001936D01*
X014271Y001873D01*
X014280Y001810D01*
X014286Y001747D01*
X014288Y001683D01*
X014286Y001619D01*
X014280Y001555D01*
X014271Y001492D01*
X014257Y001430D01*
X014240Y001368D01*
X014219Y001308D01*
X014195Y001249D01*
X014167Y001192D01*
X014135Y001136D01*
X014101Y001082D01*
X014063Y001031D01*
X014059Y001034D01*
X014097Y001085D01*
X014131Y001139D01*
X014162Y001194D01*
X014190Y001251D01*
X014215Y001310D01*
X014235Y001370D01*
X014252Y001431D01*
X014266Y001493D01*
X014275Y001556D01*
X014281Y001619D01*
X014283Y001683D01*
X014281Y001746D01*
X014275Y001810D01*
X014266Y001873D01*
X014252Y001935D01*
X014235Y001996D01*
X014215Y002056D01*
X014190Y002115D01*
X014163Y002172D01*
X014131Y002227D01*
X014097Y002281D01*
X014059Y002332D01*
X014019Y002381D01*
X013975Y002427D01*
X013929Y002470D01*
X013880Y002511D01*
X013829Y002549D01*
X013775Y002583D01*
X013720Y002614D01*
X013663Y002642D01*
X013604Y002667D01*
X013544Y002687D01*
X013543Y002683D01*
X013602Y002662D01*
X013661Y002638D01*
X013718Y002610D01*
X013773Y002579D01*
X013826Y002545D01*
X013877Y002507D01*
X013925Y002467D01*
X013971Y002423D01*
X014015Y002377D01*
X014055Y002329D01*
X014093Y002278D01*
X014127Y002225D01*
X014158Y002169D01*
X014186Y002113D01*
X014210Y002054D01*
X014231Y001994D01*
X014248Y001933D01*
X014261Y001872D01*
X014270Y001809D01*
X014276Y001746D01*
X014278Y001683D01*
X014276Y001620D01*
X014270Y001557D01*
X014261Y001494D01*
X014248Y001432D01*
X014231Y001371D01*
X014210Y001312D01*
X014186Y001253D01*
X014158Y001196D01*
X014127Y001141D01*
X014093Y001088D01*
X014055Y001037D01*
X014051Y001040D01*
X014088Y001091D01*
X014123Y001144D01*
X014154Y001199D01*
X014181Y001255D01*
X014205Y001313D01*
X014226Y001373D01*
X014243Y001434D01*
X014256Y001495D01*
X014265Y001557D01*
X014271Y001620D01*
X014273Y001683D01*
X014271Y001746D01*
X014265Y001808D01*
X014256Y001871D01*
X014243Y001932D01*
X014226Y001993D01*
X014205Y002052D01*
X014181Y002111D01*
X014154Y002167D01*
X014123Y002222D01*
X014089Y002275D01*
X014051Y002326D01*
X014011Y002374D01*
X013968Y002420D01*
X013922Y002463D01*
X013874Y002503D01*
X013823Y002540D01*
X013770Y002575D01*
X013715Y002606D01*
X013659Y002633D01*
X013601Y002657D01*
X013541Y002678D01*
X013540Y002673D01*
X013599Y002653D01*
X013657Y002629D01*
X013713Y002601D01*
X013768Y002570D01*
X013820Y002536D01*
X013871Y002499D01*
X013919Y002459D01*
X013964Y002416D01*
X014007Y002371D01*
X014047Y002322D01*
X014085Y002272D01*
X014119Y002219D01*
X014149Y002165D01*
X014177Y002108D01*
X014201Y002051D01*
X014221Y001991D01*
X014238Y001931D01*
X014251Y001870D01*
X014260Y001808D01*
X014266Y001746D01*
X014268Y001683D01*
X014266Y001620D01*
X014260Y001558D01*
X014251Y001496D01*
X014238Y001435D01*
X014221Y001374D01*
X014201Y001315D01*
X014177Y001257D01*
X014149Y001201D01*
X014118Y001146D01*
X014084Y001094D01*
X014047Y001043D01*
X014043Y001046D01*
X014080Y001097D01*
X014114Y001149D01*
X014145Y001203D01*
X014172Y001259D01*
X014196Y001317D01*
X014216Y001376D01*
X014233Y001436D01*
X014246Y001497D01*
X014255Y001559D01*
X014261Y001621D01*
X014263Y001683D01*
X014261Y001745D01*
X014255Y001807D01*
X014246Y001869D01*
X014233Y001930D01*
X014216Y001990D01*
X014196Y002049D01*
X014172Y002106D01*
X014145Y002162D01*
X014114Y002217D01*
X014080Y002269D01*
X014043Y002319D01*
X014004Y002367D01*
X013961Y002413D01*
X013915Y002455D01*
X013868Y002495D01*
X013817Y002532D01*
X013765Y002566D01*
X013711Y002597D01*
X013655Y002624D01*
X013597Y002648D01*
X013538Y002668D01*
X013537Y002663D01*
X013595Y002643D01*
X013653Y002619D01*
X013708Y002592D01*
X013762Y002562D01*
X013815Y002528D01*
X013864Y002491D01*
X013912Y002452D01*
X013957Y002409D01*
X014000Y002364D01*
X014040Y002316D01*
X014076Y002266D01*
X014110Y002214D01*
X014140Y002160D01*
X014168Y002104D01*
X014191Y002047D01*
X014212Y001988D01*
X014228Y001929D01*
X014241Y001868D01*
X014251Y001807D01*
X014256Y001745D01*
X014258Y001683D01*
X014256Y001621D01*
X014251Y001559D01*
X014241Y001498D01*
X014228Y001437D01*
X014211Y001377D01*
X014191Y001319D01*
X014167Y001261D01*
X014140Y001206D01*
X014110Y001152D01*
X014076Y001100D01*
X014039Y001050D01*
D16*
X010574Y002652D02*
X009589Y002652D01*
X009589Y001628D01*
X000692Y001589D01*
X000692Y002022D01*
X000731Y002101D01*
X000692Y002022D02*
X000692Y011668D01*
X000810Y011707D01*
X000692Y011668D02*
X000692Y012022D01*
X010574Y012022D01*
X010574Y002652D01*
X000730Y002101D02*
X000842Y002572D01*
X000943Y003047D01*
X001032Y003523D01*
X001111Y004001D01*
X001177Y004482D01*
X001233Y004963D01*
X001277Y005446D01*
X001309Y005930D01*
X001331Y006414D01*
X001340Y006899D01*
X001339Y007384D01*
X001325Y007868D01*
X001301Y008353D01*
X001265Y008836D01*
X001217Y009319D01*
X001158Y009800D01*
X001088Y010279D01*
X001006Y010757D01*
X000913Y011233D01*
X000809Y011707D01*
X000902Y013407D02*
X000902Y019157D01*
X001152Y019157D01*
X002277Y019157D02*
X002402Y019157D01*
X002402Y018407D01*
X002277Y018407D01*
X002277Y018157D02*
X002402Y018157D01*
X002402Y017407D01*
X002277Y017407D01*
X002277Y017157D02*
X002402Y017157D01*
X002402Y016407D01*
X002277Y016407D01*
X002277Y016157D02*
X002402Y016157D01*
X002402Y015407D01*
X002277Y015407D01*
X002277Y015157D02*
X002402Y015157D01*
X002402Y014407D01*
X002277Y014407D01*
X002277Y014157D02*
X002402Y014157D01*
X002402Y013407D01*
X002277Y013407D01*
X001152Y013407D02*
X000902Y013407D01*
X005183Y017681D02*
X005933Y017681D01*
X005933Y017806D01*
X006183Y017806D02*
X006183Y017681D01*
X006933Y017681D01*
X006933Y017806D01*
X005183Y017806D02*
X005183Y017681D01*
X005058Y018931D02*
X005058Y019181D01*
X007058Y019181D01*
X007058Y018931D01*
X008515Y016770D02*
X008530Y016875D01*
X008548Y016979D01*
X008571Y017083D01*
X008597Y017185D01*
X008627Y017287D01*
X008661Y017387D01*
X008698Y017486D01*
X008739Y017583D01*
X008783Y017679D01*
X008831Y017774D01*
X008882Y017866D01*
X008937Y017957D01*
X008995Y018045D01*
X009056Y018132D01*
X009120Y018216D01*
X009187Y018297D01*
X009258Y018377D01*
X009331Y018453D01*
X009406Y018527D01*
X009485Y018598D01*
X009566Y018666D01*
X009649Y018731D01*
X009735Y018793D01*
X009823Y018852D01*
X009913Y018908D01*
X010005Y018960D01*
X010099Y019009D01*
X010194Y019054D01*
X010291Y019096D01*
X010390Y019134D01*
X010490Y019169D01*
X010591Y019200D01*
X010693Y019227D01*
X010796Y019251D01*
X010900Y019270D01*
X011005Y019286D01*
X011110Y019299D01*
X011215Y019307D01*
X011321Y019311D01*
X011427Y019312D01*
X011533Y019308D01*
X011638Y019301D01*
X011743Y019290D01*
X013357Y019172D02*
X013948Y019172D01*
X014538Y019172D01*
X014538Y016849D01*
X014538Y015904D02*
X014538Y013581D01*
X013357Y013581D01*
X013357Y019172D01*
X011074Y019290D02*
X011179Y019301D01*
X011284Y019308D01*
X011390Y019312D01*
X011496Y019311D01*
X011602Y019307D01*
X011707Y019299D01*
X011812Y019286D01*
X011917Y019270D01*
X012021Y019251D01*
X012124Y019227D01*
X012226Y019200D01*
X012327Y019169D01*
X012427Y019134D01*
X012526Y019096D01*
X012623Y019054D01*
X012718Y019009D01*
X012812Y018960D01*
X012904Y018908D01*
X012994Y018852D01*
X013082Y018793D01*
X013168Y018731D01*
X013251Y018666D01*
X013332Y018598D01*
X013411Y018527D01*
X013486Y018453D01*
X013559Y018377D01*
X013630Y018297D01*
X013697Y018216D01*
X013761Y018132D01*
X013822Y018045D01*
X013880Y017957D01*
X013935Y017866D01*
X013986Y017774D01*
X014034Y017679D01*
X014078Y017583D01*
X014119Y017486D01*
X014156Y017387D01*
X014190Y017287D01*
X014220Y017185D01*
X014246Y017083D01*
X014269Y016979D01*
X014287Y016875D01*
X014302Y016770D01*
X014341Y015983D02*
X014326Y015878D01*
X014308Y015774D01*
X014285Y015670D01*
X014259Y015568D01*
X014229Y015466D01*
X014195Y015366D01*
X014158Y015267D01*
X014117Y015170D01*
X014073Y015074D01*
X014025Y014979D01*
X013974Y014887D01*
X013919Y014796D01*
X013861Y014708D01*
X013800Y014621D01*
X013736Y014537D01*
X013669Y014456D01*
X013598Y014376D01*
X013525Y014300D01*
X013450Y014226D01*
X013371Y014155D01*
X013290Y014087D01*
X013207Y014022D01*
X013121Y013960D01*
X013033Y013901D01*
X012943Y013845D01*
X012851Y013793D01*
X012757Y013744D01*
X012662Y013699D01*
X012565Y013657D01*
X012466Y013619D01*
X012366Y013584D01*
X012265Y013553D01*
X012163Y013526D01*
X012060Y013502D01*
X011956Y013483D01*
X011851Y013467D01*
X011746Y013454D01*
X011641Y013446D01*
X011535Y013442D01*
X011429Y013441D01*
X011323Y013445D01*
X011218Y013452D01*
X011113Y013463D01*
X011704Y013463D02*
X011599Y013452D01*
X011494Y013446D01*
X011389Y013443D01*
X011284Y013444D01*
X011180Y013449D01*
X011075Y013458D01*
X010971Y013471D01*
X010867Y013487D01*
X010764Y013507D01*
X010662Y013531D01*
X010561Y013559D01*
X010460Y013590D01*
X010361Y013625D01*
X010264Y013664D01*
X010168Y013706D01*
X010073Y013752D01*
X009980Y013801D01*
X009889Y013853D01*
X009800Y013909D01*
X009713Y013968D01*
X009629Y014030D01*
X009546Y014095D01*
X009466Y014163D01*
X009389Y014234D01*
X009314Y014308D01*
X009242Y014384D01*
X009173Y014463D01*
X009107Y014544D01*
X009044Y014628D01*
X008983Y014714D01*
X008926Y014802D01*
X008873Y014893D01*
X008822Y014985D01*
X008775Y015079D01*
X008732Y015174D01*
X008692Y015271D01*
X008656Y015370D01*
X008623Y015469D01*
X008594Y015570D01*
X008568Y015672D01*
X008547Y015775D01*
X008529Y015878D01*
X008515Y015982D01*
X018966Y010662D02*
X018966Y010537D01*
X018966Y010662D02*
X019716Y010662D01*
X019716Y010537D01*
X019966Y010537D02*
X019966Y010662D01*
X020716Y010662D01*
X020716Y010537D01*
X020966Y010537D02*
X020966Y010662D01*
X021716Y010662D01*
X021716Y010537D01*
X021966Y010537D02*
X021966Y010662D01*
X022716Y010662D01*
X022716Y010537D01*
X022966Y010537D02*
X022966Y010662D01*
X023716Y010662D01*
X023716Y010537D01*
X023966Y010537D02*
X023966Y010662D01*
X024716Y010662D01*
X024716Y010537D01*
X024716Y009412D02*
X024716Y009162D01*
X018966Y009162D01*
X018966Y009412D01*
X033355Y013911D02*
X033480Y013911D01*
X033355Y013911D02*
X033355Y014661D01*
X033480Y014661D01*
X033480Y014911D02*
X033355Y014911D01*
X033355Y015661D01*
X033480Y015661D01*
X033480Y015911D02*
X033355Y015911D01*
X033355Y016661D01*
X033480Y016661D01*
X033480Y016911D02*
X033355Y016911D01*
X033355Y017661D01*
X033480Y017661D01*
X034605Y017661D02*
X034855Y017661D01*
X034855Y013911D01*
X034605Y013911D01*
X037838Y016260D02*
X037838Y017910D01*
X037238Y017638D02*
X037238Y017532D01*
X036741Y018035D02*
X036684Y018006D01*
X036628Y017973D01*
X036575Y017938D01*
X036524Y017898D01*
X036476Y017856D01*
X036430Y017811D01*
X036387Y017764D01*
X036347Y017714D01*
X036310Y017661D01*
X036277Y017606D01*
X036246Y017550D01*
X036220Y017491D01*
X036197Y017431D01*
X036177Y017370D01*
X036162Y017308D01*
X036150Y017245D01*
X036142Y017181D01*
X036138Y017117D01*
X036138Y017053D01*
X036142Y016989D01*
X036150Y016925D01*
X036162Y016862D01*
X036177Y016800D01*
X036197Y016739D01*
X036220Y016679D01*
X036246Y016620D01*
X036277Y016564D01*
X036310Y016509D01*
X036347Y016456D01*
X036387Y016406D01*
X036430Y016359D01*
X036476Y016314D01*
X036524Y016272D01*
X036575Y016232D01*
X036628Y016197D01*
X036684Y016164D01*
X036741Y016135D01*
X037238Y016532D02*
X037238Y016638D01*
X037838Y017910D02*
X037788Y017947D01*
X037736Y017981D01*
X037682Y018012D01*
X037626Y018039D01*
X037838Y016260D02*
X037790Y016225D01*
X037740Y016192D01*
X037689Y016162D01*
X037635Y016135D01*
D17*
X031977Y003734D02*
X029277Y003734D01*
X029226Y003732D01*
X029175Y003727D01*
X029125Y003717D01*
X029075Y003704D01*
X029027Y003688D01*
X028980Y003668D01*
X028934Y003644D01*
X028891Y003618D01*
X028849Y003588D01*
X028810Y003555D01*
X028773Y003520D01*
X028739Y003482D01*
X028708Y003441D01*
X028679Y003399D01*
X028654Y003354D01*
X028633Y003308D01*
X028614Y003260D01*
X028600Y003211D01*
X028589Y003161D01*
X028581Y003111D01*
X028577Y003060D01*
X028577Y003008D01*
X028581Y002957D01*
X028589Y002907D01*
X028600Y002857D01*
X028614Y002808D01*
X028633Y002760D01*
X028654Y002714D01*
X028679Y002669D01*
X028708Y002627D01*
X028739Y002586D01*
X028773Y002548D01*
X028810Y002513D01*
X028849Y002480D01*
X028891Y002450D01*
X028934Y002424D01*
X028980Y002400D01*
X029027Y002380D01*
X029075Y002364D01*
X029125Y002351D01*
X029175Y002341D01*
X029226Y002336D01*
X029277Y002334D01*
X031977Y002334D01*
X032028Y002336D01*
X032079Y002341D01*
X032129Y002351D01*
X032179Y002364D01*
X032227Y002380D01*
X032274Y002400D01*
X032320Y002424D01*
X032363Y002450D01*
X032405Y002480D01*
X032444Y002513D01*
X032481Y002548D01*
X032515Y002586D01*
X032546Y002627D01*
X032575Y002669D01*
X032600Y002714D01*
X032621Y002760D01*
X032640Y002808D01*
X032654Y002857D01*
X032665Y002907D01*
X032673Y002957D01*
X032677Y003008D01*
X032677Y003060D01*
X032673Y003111D01*
X032665Y003161D01*
X032654Y003211D01*
X032640Y003260D01*
X032621Y003308D01*
X032600Y003354D01*
X032575Y003399D01*
X032546Y003441D01*
X032515Y003482D01*
X032481Y003520D01*
X032444Y003555D01*
X032405Y003588D01*
X032363Y003618D01*
X032320Y003644D01*
X032274Y003668D01*
X032227Y003688D01*
X032179Y003704D01*
X032129Y003717D01*
X032079Y003727D01*
X032028Y003732D01*
X031977Y003734D01*
X021389Y003561D02*
X021389Y003461D01*
X020389Y003461D01*
X020389Y003561D01*
X020389Y001261D02*
X020389Y001161D01*
X020389Y001261D02*
X021339Y001261D01*
X021339Y001161D01*
D18*
X017157Y001828D02*
X016857Y001828D01*
X016557Y001828D01*
X016557Y002028D02*
X016857Y002028D01*
X017157Y002028D01*
X015665Y002047D02*
X015365Y002047D01*
X015065Y002047D01*
X015065Y001847D02*
X015365Y001847D01*
X015665Y001847D01*
X029017Y001700D02*
X029017Y001400D01*
X029017Y001100D01*
X029217Y001100D02*
X029217Y001400D01*
X029217Y001700D01*
X032056Y001665D02*
X032056Y001365D01*
X032056Y001065D01*
X032256Y001065D02*
X032256Y001365D01*
X032256Y001665D01*
X026422Y009757D02*
X026422Y010057D01*
X026422Y010357D01*
X026222Y010357D02*
X026222Y010057D01*
X026222Y009757D01*
X013948Y013620D02*
X013948Y015904D01*
X013948Y016849D02*
X013948Y019172D01*
X018954Y018940D02*
X018954Y018640D01*
X018954Y018340D01*
X019154Y018340D02*
X019154Y018640D01*
X019154Y018940D01*
X027388Y016969D02*
X027688Y016969D01*
X027988Y016969D01*
X027988Y016769D02*
X027688Y016769D01*
X027388Y016769D01*
X028108Y018415D02*
X028108Y018715D01*
X028108Y019015D01*
X028308Y019015D02*
X028308Y018715D01*
X028308Y018415D01*
X003776Y018478D02*
X003776Y018778D01*
X003776Y019078D01*
X003576Y019078D02*
X003576Y018778D01*
X003576Y018478D01*
D19*
X004954Y016475D02*
X005154Y016475D01*
X015706Y017892D02*
X015906Y017892D01*
X015949Y014924D02*
X015749Y014924D01*
X028486Y012869D02*
X028686Y012869D01*
X030434Y012845D02*
X030634Y012845D01*
X031428Y010114D02*
X031428Y009914D01*
X037285Y011727D02*
X037485Y011727D01*
X026717Y003317D02*
X026517Y003317D01*
X026509Y001585D02*
X026709Y001585D01*
X018239Y001851D02*
X018239Y002051D01*
X017701Y003617D02*
X017501Y003617D01*
D20*
X022051Y014613D02*
X022071Y014633D01*
X022221Y014633D01*
X022171Y015033D02*
X022071Y015033D01*
X022051Y015053D01*
D21*
X022286Y015033D03*
X022286Y014633D03*
M02*
