G75*
%MOIN*%
%OFA0B0*%
%FSLAX24Y24*%
%IPPOS*%
%LPD*%
%AMOC8*
5,1,8,0,0,1.08239X$1,22.5*
%
%ADD10C,0.0000*%
D10*
X000180Y000550D02*
X000180Y019841D01*
X039156Y019841D01*
X039156Y000550D01*
X000180Y000550D01*
X009432Y003085D02*
X009434Y003120D01*
X009440Y003155D01*
X009450Y003189D01*
X009463Y003222D01*
X009480Y003253D01*
X009501Y003281D01*
X009524Y003308D01*
X009551Y003331D01*
X009579Y003352D01*
X009610Y003369D01*
X009643Y003382D01*
X009677Y003392D01*
X009712Y003398D01*
X009747Y003400D01*
X009782Y003398D01*
X009817Y003392D01*
X009851Y003382D01*
X009884Y003369D01*
X009915Y003352D01*
X009943Y003331D01*
X009970Y003308D01*
X009993Y003281D01*
X010014Y003253D01*
X010031Y003222D01*
X010044Y003189D01*
X010054Y003155D01*
X010060Y003120D01*
X010062Y003085D01*
X010060Y003050D01*
X010054Y003015D01*
X010044Y002981D01*
X010031Y002948D01*
X010014Y002917D01*
X009993Y002889D01*
X009970Y002862D01*
X009943Y002839D01*
X009915Y002818D01*
X009884Y002801D01*
X009851Y002788D01*
X009817Y002778D01*
X009782Y002772D01*
X009747Y002770D01*
X009712Y002772D01*
X009677Y002778D01*
X009643Y002788D01*
X009610Y002801D01*
X009579Y002818D01*
X009551Y002839D01*
X009524Y002862D01*
X009501Y002889D01*
X009480Y002917D01*
X009463Y002948D01*
X009450Y002981D01*
X009440Y003015D01*
X009434Y003050D01*
X009432Y003085D01*
X009530Y011392D02*
X009532Y011421D01*
X009538Y011449D01*
X009547Y011477D01*
X009560Y011503D01*
X009577Y011526D01*
X009596Y011548D01*
X009618Y011567D01*
X009643Y011582D01*
X009669Y011595D01*
X009697Y011603D01*
X009725Y011608D01*
X009754Y011609D01*
X009783Y011606D01*
X009811Y011599D01*
X009838Y011589D01*
X009864Y011575D01*
X009887Y011558D01*
X009908Y011538D01*
X009926Y011515D01*
X009941Y011490D01*
X009952Y011463D01*
X009960Y011435D01*
X009964Y011406D01*
X009964Y011378D01*
X009960Y011349D01*
X009952Y011321D01*
X009941Y011294D01*
X009926Y011269D01*
X009908Y011246D01*
X009887Y011226D01*
X009864Y011209D01*
X009838Y011195D01*
X009811Y011185D01*
X009783Y011178D01*
X009754Y011175D01*
X009725Y011176D01*
X009697Y011181D01*
X009669Y011189D01*
X009643Y011202D01*
X009618Y011217D01*
X009596Y011236D01*
X009577Y011258D01*
X009560Y011281D01*
X009547Y011307D01*
X009538Y011335D01*
X009532Y011363D01*
X009530Y011392D01*
X009676Y016376D02*
X009678Y016410D01*
X009684Y016444D01*
X009694Y016477D01*
X009707Y016508D01*
X009725Y016538D01*
X009745Y016566D01*
X009769Y016591D01*
X009795Y016613D01*
X009823Y016631D01*
X009854Y016647D01*
X009886Y016659D01*
X009920Y016667D01*
X009954Y016671D01*
X009988Y016671D01*
X010022Y016667D01*
X010056Y016659D01*
X010088Y016647D01*
X010118Y016631D01*
X010147Y016613D01*
X010173Y016591D01*
X010197Y016566D01*
X010217Y016538D01*
X010235Y016508D01*
X010248Y016477D01*
X010258Y016444D01*
X010264Y016410D01*
X010266Y016376D01*
X010264Y016342D01*
X010258Y016308D01*
X010248Y016275D01*
X010235Y016244D01*
X010217Y016214D01*
X010197Y016186D01*
X010173Y016161D01*
X010147Y016139D01*
X010119Y016121D01*
X010088Y016105D01*
X010056Y016093D01*
X010022Y016085D01*
X009988Y016081D01*
X009954Y016081D01*
X009920Y016085D01*
X009886Y016093D01*
X009854Y016105D01*
X009823Y016121D01*
X009795Y016139D01*
X009769Y016161D01*
X009745Y016186D01*
X009725Y016214D01*
X009707Y016244D01*
X009694Y016275D01*
X009684Y016308D01*
X009678Y016342D01*
X009676Y016376D01*
X012590Y016376D02*
X012592Y016410D01*
X012598Y016444D01*
X012608Y016477D01*
X012621Y016508D01*
X012639Y016538D01*
X012659Y016566D01*
X012683Y016591D01*
X012709Y016613D01*
X012737Y016631D01*
X012768Y016647D01*
X012800Y016659D01*
X012834Y016667D01*
X012868Y016671D01*
X012902Y016671D01*
X012936Y016667D01*
X012970Y016659D01*
X013002Y016647D01*
X013032Y016631D01*
X013061Y016613D01*
X013087Y016591D01*
X013111Y016566D01*
X013131Y016538D01*
X013149Y016508D01*
X013162Y016477D01*
X013172Y016444D01*
X013178Y016410D01*
X013180Y016376D01*
X013178Y016342D01*
X013172Y016308D01*
X013162Y016275D01*
X013149Y016244D01*
X013131Y016214D01*
X013111Y016186D01*
X013087Y016161D01*
X013061Y016139D01*
X013033Y016121D01*
X013002Y016105D01*
X012970Y016093D01*
X012936Y016085D01*
X012902Y016081D01*
X012868Y016081D01*
X012834Y016085D01*
X012800Y016093D01*
X012768Y016105D01*
X012737Y016121D01*
X012709Y016139D01*
X012683Y016161D01*
X012659Y016186D01*
X012639Y016214D01*
X012621Y016244D01*
X012608Y016275D01*
X012598Y016308D01*
X012592Y016342D01*
X012590Y016376D01*
M02*
